<mxfile host="65bd71144e">
    <diagram id="kroa2Enb3uIKMZ7xdOIZ" name="第 1 页">
        <mxGraphModel dx="1053" dy="1831" grid="1" gridSize="10" guides="1" tooltips="1" connect="1" arrows="1" fold="1" page="1" pageScale="1" pageWidth="827" pageHeight="1169" math="0" shadow="0">
            <root>
                <mxCell id="0"/>
                <mxCell id="1" parent="0"/>
                <mxCell id="10" style="edgeStyle=none;html=1;entryX=-0.028;entryY=0.324;entryDx=0;entryDy=0;fontSize=18;entryPerimeter=0;exitX=1.022;exitY=0.338;exitDx=0;exitDy=0;exitPerimeter=0;endSize=14;" parent="1" source="2" target="4" edge="1">
                    <mxGeometry relative="1" as="geometry"/>
                </mxCell>
                <mxCell id="2" value="" style="rounded=0;whiteSpace=wrap;html=1;" parent="1" vertex="1">
                    <mxGeometry x="60" y="-280" width="120" height="820" as="geometry"/>
                </mxCell>
                <mxCell id="3" value="客户端" style="text;html=1;align=center;verticalAlign=middle;resizable=0;points=[];autosize=1;strokeColor=none;fillColor=none;" parent="1" vertex="1">
                    <mxGeometry x="90" y="-335" width="60" height="30" as="geometry"/>
                </mxCell>
                <mxCell id="13" style="edgeStyle=none;html=1;exitX=-0.035;exitY=0.595;exitDx=0;exitDy=0;entryX=1.003;entryY=0.624;entryDx=0;entryDy=0;entryPerimeter=0;fontSize=18;endSize=14;exitPerimeter=0;" parent="1" source="4" target="2" edge="1">
                    <mxGeometry relative="1" as="geometry"/>
                </mxCell>
                <mxCell id="4" value="" style="rounded=0;whiteSpace=wrap;html=1;" parent="1" vertex="1">
                    <mxGeometry x="990" y="-280" width="120" height="865" as="geometry"/>
                </mxCell>
                <mxCell id="5" value="服务端" style="text;html=1;align=center;verticalAlign=middle;resizable=0;points=[];autosize=1;strokeColor=none;fillColor=none;" parent="1" vertex="1">
                    <mxGeometry x="1020" y="-335" width="60" height="30" as="geometry"/>
                </mxCell>
                <mxCell id="15" value="toUpdateEmp" style="text;html=1;align=center;verticalAlign=middle;resizable=0;points=[];autosize=1;strokeColor=none;fillColor=none;" parent="1" vertex="1">
                    <mxGeometry x="505" y="-320" width="100" height="30" as="geometry"/>
                </mxCell>
                <mxCell id="19" value="Emp" style="text;html=1;align=center;verticalAlign=middle;resizable=0;points=[];autosize=1;strokeColor=none;fillColor=none;fontSize=20;" parent="1" vertex="1">
                    <mxGeometry x="525" y="-360" width="60" height="40" as="geometry"/>
                </mxCell>
                <mxCell id="36" value="" style="shape=image;verticalLabelPosition=bottom;labelBackgroundColor=default;verticalAlign=top;aspect=fixed;imageAspect=0;image=data:image/png,iVBORw0KGgoAAAANSUhEUgAABBkAAAFECAYAAABiV+Z8AAAgAElEQVR4nOzdz0oj294//vf5cW6hRMTQWznSkODAFmz0ApIMOpa5gwY7QnDw+Oikdnq83ZkoTkI4SQv7DtLVCk/M5DuLKNjCyUmgERKaiIh1Ef0b1L9VlapKJZZ/9/sFDXsb689atapS67M+a/mP32b+9QtERERERERERPf0/z31CRARERERERHR68AgAxERERERERFFgkEGIiIiIiIiIooEgwxEREREREREFAkGGYiIiIiIiIgoEgwyEBEREREREVEkGGQgIiIiIiIioki8zCBDtoTzrorCiJsV1Cv0xtjuecqgfHaFY+Xhj6TX2xV66iMczDjeeTlz/x2N2U5Go1+HXvcKvW4T5eyDHuzhKapRloiuAT0fioreWQnyU58HEREREb1qYwcZrI6n8c/q7AqdFOdnCo5dP9f/jd4JlJMLwMkX7I578hGRy80H6HiHDB5k01hEA9VixIf3sCvPYWZ2DlWsR9hJebwgycM6Qv79HGZmD9GOetdBnULXfRZNPSo43pBQ39HLc5f6/WUHTaw68njGZEs47/oFh5zPKnfdyuWm/tkI98Lgs8Ju/9b+XP/OyxnXeQr/jGMPbuv/PC0sx9GubUJ1ncNYAaWguiUiIiKiv7Uxggz6i2kOh5iZnbP+fRA7u1oDWwOfFfHB+P+tEw1omdvLIwYLFORSwEXjaOQz1zvLox7veSp8TALf60KH4eHtyodoSwtIv+SO52uQLeHcCgbMYWangYmNV5BFESG53EQve42tSsfjUwXHewu4sOrvEot7Zmc5g/LZOlAxn1+HgFC3BfUKB1Pf9GdYRNT8inWsNjTrui7lj4DaJpaM52a1BWgn2/rvvheCBS37WVxtxZHzCn5kS1ib76BpPacVHHf3Eattoz5iUYLrloiIiIj+7kYPMiifkJY6qMqPMITuefxlJFrfkK8JP3OP9okv2e7MCtcL+LCMDHsUUx/dFEcXD1ISML/umV7uHGF0jfa5zsncTt9mH2kJSGwEpeArWJnv4GveGWjxO2ZBvcJx2agjVbHKbGeYqCiI5+SXnZGNYUI4h+OuirJxzGPFHP0Vyuq6LmZdhitn2h5NDrxmrroVj7mXhORdEg/itIfB/QZez0DOUfGBEWPPjARjm404ICVx4LouhY9J4ORP+x6obeJrS8JiMmPVj3W9PerPvyxt9DV9P3J5FQntEnXxPvMrS7aE87MSyqpxHRXj2MJo+3lZ8Z5W4tjWI3PA1YbCjrir+RVnR9xR/lXHM0ROLkBCHCsK9OebmCGkLCMBu2535TnMPNWzL4Td0w4gTSPh+vlg9pce9P0wRlGC6paIiIiIaOQgg/xGAlqn+suq3/xtsWMUWSo3AGRQzkqo/+V6MxZG+2Zm51C9TSJnHrMo2xkXOw24B+3MqQDWiHDW6JAVZcxUOkhs6J2wgrqOiZNtx+iiMyPDGHk06uVg6pu93wqQszruRhl25ga200c09ZHFtjWSuuIMqEDvJE24p4sEHhNIpKbxdacBbX4dazfbqLaAiTfmNYsjl702sk8O0Z5f9U4f33N1bhFH2hjVTWysor9ziDYkxLLGNnvT+DorjgjrdRmmnFJqAf2dOf33YF/PgurMotk6keyR22wJ544RauF6+6Sd20GlT0jfitk5QsbLkLr1l0H5bNUoh16Wi3fCFARFRW/D2RYcWT+VjjMrSC4CyCA2Cdz9dAaY2jcapCm7a5lImfXgrL/gshwhX2wAqX0cvLvE1nt3an1AWaQkFm+2UW1JSG8YbU3o7EqpdcRq5jUD0h+F+pOSSJvXtNJBIutzPWcPcZfaN66ZOygUft2QxJQE7Uaf3GJmJpj3g/xGAm77UGGP2FdPnHU7NiEgaQbZolZYjtvPZ4uCXEobCEoSERERET2E+y38aHTgqy3Xzz2nS0RA+YQ03KOrgHuENTcvdqCDOUZ195KQxFHAoqx3Yrt6x3Yp5Et6YTnu7FBsxIHJmDGafIT+rYT03rgL63lPFwk+JqBZQYnBDAhAQ71odiiLaLYkxN66j9tBVQykmNuZAR93domyjATiyFnXZR0JKwAxnGYFM47QvzWvZwaxSc0RZFIbl1ZnVk4uQHKfh8kViBpomz+uoc2ve2YpDKtbX9k0FiX9WtsdS7tuC8txoZzR8q6/IWVRVPT2FnDX0gBpAemssG7GkLKI7UrzWi+ldWjVtdq4hOaoPyEz6se1HZx4O+26nkU0reCYuRaG61/oLIMEymdXWLvZ9tzGDD7MvN+Mbq2NlhjEGn2agi/heuZwOFAePXPDHXggIiIiInoY/xx1A/WnhoN3egfhsdNl9YXL5IHjFtR1JFr2y3VBvcJamB1mS/icAuo7c3pHJlvC+d70wK9pmgZpcrQytyv+wZVdeQ67sKcNoDXYMfBlTBf54NEx9Tvm/cdgi/gwO8Zmo5TroWVLOPeYPmHVWW0TSzXAClhBQ33Hzq4Iup6BtIYrI+C+jtC/3cei0dE2iaPzw3iXJYNyNm59VlCvkNvbB6Ch/sP4Fb+yPMlaEBmUzzyyAUK0ufaNhlxqHbHKHJaK+r5ik8Dd6RFUfMJBah1rJ9uYMYImo9Ttkwgscwbpd0C9+EzuQyIiIiJ69UbPZCieoi0l8fmx/7xdtoS1Sa+/pqB3EKxOQLaEtfmQ+3w7DQka+kZHsvDR1QlVVBy8u8Qf71dQvR0ss/pT8xzRbt9o1jSLIGp+RU/pd+zDOfLs5DNdZIRjDjWwQByMqQYjLixoZAb4T5UJKmfQNpIj1b7wMQnJGKVVf2rA/LJRBwqOxaDCsEwGiz5VoSpkc4xdt7U+7gLuld3TDqTUJ//9iqP6QdspKnIea3R48S+L83rsysZIu7kuw5CyjCL0oqU/rqGJU3eyJazNa0YWz/iZDGrjEhqENm6sM9MsQn++QbMzhRzHfIGUT0jf+mT3DN9YD7jxz14SERER0QjGmC5RxAdjbrQ4PcExR/wB1mTw75gcIV/rQDLPZ28aF2FXfi9+QV2zU/rXbhp2arQ5X96YRrArG2UW53wXv6AOu6zm9Ac1v6Kv8u65YJ3rT3nuLeCi6Bwd3v1Lnxc/sEie73SRYcccRkiD31vAxU4Ef4GjtomlSkdY2HGws+JbzgC78jbqk0J6+GQDW2bHsigLdWCuERGO+08B5iCk94e6nvp0EL0ezbIU8WFHLKNroUVhOo7nvVLbxFfxuGbbc2+3IaEe8poFlcVq4+Z0iNsO2lISB2clyMPKMowrpT/U1KPaJpYqmtA2k7irDK5R4slcL2YjDpjTdsz2V9vEUgVC/QFVaw2OIj7sXGLRcT/YxzTbyUFKsp9zkf8Z26gY2SmnXoEXc00LPRvEfH6GelYH1S0RERER/e3947eZf/166pMYypjG8PW+f35SUfU/vfYiV0bX08NjtQjXuACgd5JX0d8J2XkjGpFcburrGzyXqTN/Fy/6eUdEREREL9XIazI8CWu+/P0UluPA7ekLfeE+Qv79C03ZJqLHV5Qxw7gOERERET2ylxFkuIeCqk/nAGAsXMe3biIiIiIiIqKH8DKmSxARERERERHRszfGwo9ERERERERERIMYZCAiIiIiIiKiSDDIQERERERERESRYJCBiIiIiIiIiCLBIAMRERERERERRYJBBiIiIiIiIiKKBIMMRERERERERBQJBhmIiIiIiIiIKBIMMhARERERERFRJBhkICIiIiIiIqJIMMjw6DIon12h171Cr9tEOevxK9kSzrtXOC9nHu+0HvqYioreWQnyYx/3lSioPnWkqOh1r3CsPP45RerZlSOD8pmKwtDf8ThnRWV7JiIiIqK/rfGDDEan4Lm8TMvlJnrqs+mhBDhC/v0cZmYP0X7U4yo49gtqPILCchzt2ibUpzn8/fkFSe4pXLtVsDLfwdf8UcRHf/miv+/1wMF5OQHcXgPlpv91z6axiAaqReP/FRW9rh6YuPuZwPFzCJoYQbzAoKaPgmpudzVYx8bz3ywvEREREZHpn+NuWFiWUK80sJhNQ8bRy+08Pke1TSzVXtExsyWszXfw1aun9hRlfWHk8ioSrW/44PVhUcZM0euDF+bZlOMI+fdHkMtNHMxL0G62MfPeO7hT+JgEvm/bz76ijJmiguPuOhIAqrNz2H2s0/ak4HhvARc7c8jXoAcc9lQUavLQ85LLTeRwiJlZ/aLomTRtLOWNunl3ia0KcLDx4IUgIiIiohdmzEwGBSuTl6gX67jAAtLu0TFrlOtqMAXaMbLmyoRwfWZvp+C4q6Ig7tccWTO2OUhJwPy6937NKQojjkTL5aajHOI+C+oVjhUFx9bn9oieXG7ivKwMnxbhQRw99BwF9a1b8Vyc56Pvcx0JSEjv+X3ud0xxeoezDvVyljzrwFGPyQXg5IvQsXHtc+C47s+d+3WMsIqfZUs4PyuhPKwOR2LU60YckJI48BrZ9Wu3A1MA9H2dlzMh261eF+l3QP0vsQfuvtau9uU6H/uaKYOj69kSzn3awrB7139027WtcV0Kwv1klzNo+tB97/tx6OfzGd9QbzXwFb/7tGuP7BJFRa+7jGalg3blFCse56M/U0bPKHJflzDlNINTeSOIJycXICGOlaH3hIJcSmxzClbmAeldGjIANb+CmfcvOCuJiIiIiB7UeEEGZRkT3+tQcYT6d2AxKbzwKip6GxLqO3OYmdX/fTDfVbMlnO8lcVexP1uyXtIVHO9N4+us+dkhsCG+3MeRy15jy/isPb+qv6jXNrE0O4etEw1oHXrsd3xqfsXa38zsIe5SnxydjcTGKvpGOautONaEF38ptY5YTf9s6wRIfwzX292V5zAzu4265vFhUN2iiA+z9s+3TiTrfPR9HqINTdjWHs30P2YG5bN9LH7ftvZbvU3iQOhcSqkkUPGuA+OkkUtprlR/c8qIuZ17k09I3x4KdW+fa0G9MkZY7XLmxOCRlETa/LzSQSJ73ykORr1WOoDWMNrfHGZkuwPm226Lsn4Oxv8X1HVMnGzrbTNsu1U+IX1rdxQd5zTrc92MfYvXLKfo21VPNCSW7esnJxcgtU5dbcH4t9PAhFB/hY/Oe9euAwxpmwCkJNbwp7VfWPfSsOlDj33f6+ezlG8Dk9NAfsXR/qx6K69iwhE4g369jd+deNPGh4ieQ+42L94v7uCDGFRKTEnQbtrW7x1MfUO1BUy8GRKgyMYwAQ19M/uhu4p+pQFNmkbi3qUhIiIiotdujCBDBuVsHHc/9ZdntXEJGCNcgD73Xjv509Up0ukdmkNn58OkLCOBOHLWy7I+8h6zRvw01Ivm6FkRzZaE2Nuw52x0ZEYdfXOMzLrPB45y7p52IE0Jr+BCOdXGJbTJ2L3n8wfVrXv0/yAlOc9nLAnEJOdo7e5pBxDLIpSzfaMNHFMfTT0dLW38xzW0+XWPEeQMYpOaY1RfbVy6Oj8dVM3O74/rh+8YDWu3RVkPhHT1juJonU79XmufjjqPwJnpkJu3O5Zq/hva88tGvQ5mSTiyd/aSkIT6a99oSGx4ZDBgWNsEAKEd1Tax5NFx93af+/4+jpB/73eO+kj/RcPnWhZl3+usBy5XAupp8Fgr85ork8XmCAqZ/xzPuQTKZ1dYu9l2BoVCHVpFb28aX2dXkP8x2qZERERE9Pc1epAhm8aiBL2zYXVEPKZMjKN16HphHuVlPGoKjjfiaFfsEerHXahxNHL5d6Rhj7RvnXilQjw2r1T/EKyReD3lfJz08kcVot1qmuYMzoThXlgwpIK6jkTLe+Rb76gbKfPZNBZxibp5rtkSPqdgZyPsNCC2Iiuz53R5YOrM34qy7JiG8JSCMhnaN5qVUaUHPTKITcIKEPuq9XFnZZAYgZa305C062f9DCQiIiKi52HkIIOZjSB2qrZO7CkTu6cdSK5pBSa1cQnNTHd2M0avQ82hNxYSbAqdL/VnUCdujDUZzJRhYwRPLq8GjIgHjzjrC8TV7z2HOahuE1MScNs3jqEgl5Jcv9FGXxt1FLiNviZOgdDLqYUti2eq/yj0aQFVa/T6CP1byTH1pPAx6Uj3H35OY/5VFL+siGHtVlFx8O4Sf7xfQfU2ic+u4wa128LHJO5G/oscekfSTJPX7xXnb+z+1cDEsgI5ueDc/9tpSGaavHF8dysCYEwLOERbqI+gthmZce/7SP8CQgblrDR64Mw08p/q1O9b8/kql5vICdczKJNBbVxCg1BfyiekJWf9ed8PRTRbEO7zEe97IiIiIvpbGzHIkEH6nTTQmVZ/anYHQ0gPH1gArraJpYomLD4ovNzWNrFU6dgZEgMjpcKihXsLuNhxpTIXv6AOe2G+ey8AV9vE15Z9zIOpy4G571Jq3zhXfd0CxzQQYTE6Z5q8mcouLsRojtSbnaJ9pIVsEav+Aup296+GMcXgCr3uKvonHVeBjpCvifWrWinz/sc8Qv79Ie6EcqZvw6b8j5vqP7jgZg72lIxdeRv1SaFuJxvYGiUN/Mc1NGD0qSS1TXxtCdMizCkDQe3WXKfASPfflY26FKcb+LVbjw51OPp1ttrm3jQu3FkttTouJtdx8O7SmSVR/IK6Zpdx7aYhjFy7F+NcByrCPRh03wcKuh+A+933R+jf6vuIRZUJo3xCWsz+GJXR/sR1MYIdIV9sAMb1PHh3ibp7DRM/tU0sVWBfkw2gGnKayq68jYt3zuebdd+b08g24oA5VejvmtVCRERERAP+8dvMv3499UkMp+C4u4r+zlNOn3AqqPo8Z68Ot1xu4mDq2+hzoF8TRUUve42toetg6ItLxmpz3mt1RM5ezDKKRfkeSlD7cnp+90Z0Iiiboo7UuQ4WRVvV/8QlKuPvI3zbICIiIiJ6fP986hOgV6ooYyZMJyqbxqKk4eIRFpaTy00cpCRoJ8+/g7Yrz4XrFCvLSEBD89UFGO5L78wn0IkowADomT3jtxtH+/sbxx+JiIiI6HVjkIEen/GnTM35/u3K3KOMwqv5ldcxp1xRjVR1ANBQ31mJqBP9mhTxYfZ59eRfTfsjIiIiIgrwQqZLEBEREREREdFzN/qfsCQiIiIiIiIi8sAgAxERERERERFFgkEGIiIiIiIiIooEgwxEREREREREFAkGGYiIiIiIiIgoEgwyEBEREREREVEkGGQgIiIiIiIiokgwyEBEREREREREkWCQgYiIiIiIiIgiwSADEREREREREUWCQYanli3hvKuiMPCzK5yXM091VtFRVPS6VzhWnuDYXnU7jHG++j9jW+N69LpX6J2VID/M2UamoL6StkNERERERC/O+EEGozP2XDozcrmJnjpqTzaD8tmV0Kl8GZ1IeigKjjck1HfmMDM7h5lZGbsAUNvE0uwcZiqdMfapt7EnCbIQERERERE9sn+Ou2FhWUK90sBiNg0ZR1CjPKtH1q7M4UPxqc9CUNvEUu2pTyIiRRkzz6lug2RjmICG5mupeyIiIiIiokc2ZiaDgpXJS9SLdVxgAems+2PVkR3gGMUVU8/dmRCuz+ztFBx3VRTE/ZpZC8Y2BykJmF/33u+YZTzuqiiXm/77DChnQb0aTLv3KudeEhK8t3OPfhfUKxyX/VP3nce8Qq/bRFm4NnK5OfCz4TyyPczyuMrvrCNxO/cxA67nfQXUrX5cj3M1t9lLQkIcuRHbkLvezeum1/c+0hKQ2PCuC8e2EWbR3P1MCGUV2l+2hPOzEgpB7ZqIiIiIiGhM4wUZlGVMfK9DxRHq34HFpNBJUVT0HCnnQpZAtoTzvSTuKvZnS/kjc0Mc703j66z52SGwIXbO48hlr7FlfNaeX9U7a0Yq+9aJBrQOPfY7nN0BdHf04ki/u9SPudMAUp/s8wkoZ0G9Qg72uWydSMiZ+82WcL63gAtzu50GNOFcduU5zMxuoy7+UDzXlLntNupIIid0aHOTDaN+9O3blRXk7zkqX1D3kb49tK5JGxrqO8Y0gqJslXFmpwGtdSjU+xHy781tvPhcz/sIrNsMymer6FvXaxsX7353tCH99zuojtiG9GtmH3Miq19rNb8iXAvzd+xrIpebWLvZttvJ9wV8jqjDn9iwy1ptxbEm7ldKYg1/WufraNdERERERET3MMZ0iQzK2TjuanoHTG1c4rNiT5koLMehnWx7dm7l5AKk1iGWvNLnlWUkEEeie4Wc9UMN/SyAmv7f9eKmMS2jiGZrHStvQ57vmT6arOugas61N/hPlxCOWevjbm8BMeN8/MuZQWxSQ71o71BtXOJzahoJAEguQGp9G7vzr538aWx7hP7tPhbfZAB4d4YnXJ+p+ZUIprVIiA3Uu4JjBfjj/SjzIsa9nv7koLrNprEoSZD2rtDbs3/cvucxAT1YcJAScyY6SABD6jqD9DsJkrSPXnff/nErAb/rOQq7nQC7px3klsX9dvDVDKC8pqk5RERERET05EYPMmTTWJQAaeMKvQ3zhxrSWUC9b2eldYgZOeoJ/EfIv79/p+250wMZSRx0r3AA6HU5QjaHn93TDnIb6+h11wEA2sm2K0hkZAgUowhgPDCtga33m9GeZ7aEzymgvjOnd+qzJZzvTYc9IdR37p9tQkRERERE9FyMPF3CzEaw0sNn57B1Yk+Z2D3tQPJJv1Ybl9D80uJ/XEObXw+3Cn+2hLX5DppCZ1f9qQGTsUf7yxD+5TxC/1ZC+qNdkMLHJKTWKXbN85xfNrZTcDywbsB4Ch+d01C8gjWjr8mQQTnrnBLinkIgl39HrHbPjrLH9bTWTxhhnYLAuq31cSclI5uOYHk7DQka+kb5Cx/d1/MI/Vszq8T9cwlpJah85roWI/4ZTvc+snG0T1/K6ptERERERPSSjRhk0FO83R0W9admd7iLsr4GgdeCiLVNLFU0pPc8Ft+rbWKp0glYH0Gyt9tbwMWOc8oDil9Qhz6SP+pidv7HDBBQzl15G/VJexHK3GQDW2anvyij2jIXF1xFf0dcs8DsVDoXCwwTeNn9q4EJsRyRLKZ4hHzNeb0cdauoOEhJzvqzjmkusriOhHXtxADHkOuJNvoaAMmYZhJGYN0W8WGnAaT2/Rfk9GMuULkRBySjjZntpPgFdc1eLHLtpjGwBsXuX+Jx7TrYlbcdbXbwWusBCkDSp+mMQLKOt4/F79vP66+nEBERERHRq/WP32b+9eupT2I4BcfdVfSZWu6roF5h7WbbzjSwFkG8T53p61nEasKaFYqK3gYG1rUYTbjrKZebOHh3Gf0Uh5ckkvomIiIiIiJ6HGP+CUt6XjKITbp+5ErjH08CMddcDvmNBGjXPn8xIiLmnyX9WwcYjEwQBhiIiIiIiOgFGeOvS9Dzc4R8MY3zPfEvFeiLCt6vc1rEh8oyeo5FPjuozj5wx59/8QBAER9mOceBiIiIiIhelhcyXYKIiIiIiIiInjtOlyAiIiIiIiKiSDDIQERERERERESRYJCBiIiIiIiIiCLBIAMRERERERERRYJBBiIiIiIiIiKKBIMMRERERERERBQJBhmIiIiIiIiIKBIMMhARERERERFRJBhkICIiIiIiIqJIMMhARERERERERJFgkIHGJpeb6KnKU59GSAqOu02Us099HkRERERERK/X+EEGRUWve4XzcibC0xnfuB3egvp8yvB3U1Cv0Ova/44VQA8GXKF3VoJs/qKiOv//RTHK4yhjGBmUz4T6eTHBHG9yuWmXZZRraTxnnlU9+JyTo4zdK/S6KgqPcDpj1a27DCO3z6h5BAFd97338+Jhjd1uAWcdv9jnFxEREdHoxg4yFJYl1CsN4F2aL080Ir0DnZtsYGt2DjPGvw9F83MNGpLIPYP+5P1kUD5bBypmGQ+BjXDZFAV1H+nbQ6tuqlh/ucEwRcXBu0vrWm99X8BBqGCBguMNoGq1kW3UJ1efNBtFLjfRc5zTHGbkov0LLeGateJYe+hrNm7dFmX7/I222YaG/o+HPd1xyeUmcjh0nPOH4vDt7mXsduvRTt5vQn3g0yUiIiJ6LsYMMihYmbxEvVjHBRaQdr/0u0bJHCNO2RLOhc8cHSfXZ/Z2Co67Kgrifs2XPWObg5QEzK9773dM7pFJcZ8F9QrHZeF8XSNV7lG3njlKly3hXBzhdP1/0DEHRrddo6XObQdHUfXPR5syMDg66x5BjAnnFHLkNpvGotRBNeDF+6LWwMTyqFEGZ9aA5whiUg1oI8b2Hh2JgXoI09lQPiGNBqpmZ0hZRgISFpPD2mYGsUkN9b/sXtTuaQfSVGL4MQ2O9ifUgVxu4rxcEupplHbirt8wbSmDcjaOds281hmk30nA/HKIttJGX4sjZ9a18glpSUO/NnRDoRwe5cyWcH5WQln1a9N+FORSEtoVGbvhTgF3P488zuk51K2TXF5FovUN+Ser22CJKSnkOT2Hus0g/Q6o74RvJ0RERESvyXhBBmUZE9/rUHGE+nc4O02Kit6GhPqOx4hTtoTzvSTuKvZnS3nzJVzB8d40vs6Ko75iByiOXPbaGFU6RHveGNGsbWJpdg5bJ5pjFNHe7/jU/IpjpO8u9cnxgplILeBixxhhFUbe5XJTGKXfRl0D2pWVUC/wQcd0jm7rI4/Wi6yi4mDqm71tBXbnLKo6qHSgnWw7RxDnk4jVRhy5fTsNSbtGO+h3ftRxMfKodREfxFFvzR3IkJB+Z7ShnQbgup5+5HLTOaJ5otkfeqad650Y+Y0E3PahGvvoZa9RPdFCBAuO0L8VgxF6hweTsVBZQ3K5ibWbbeu6bX1fwGfhukippJVdEX60XcFx15mVYV8/r+CXGYhJICaZI+QKjrv7iNUO0YaE2NBre4T8ez2Lo9e9Qi97ja3ZkB23YfeDlETaHBmvdJDIhkhnz8YwgQ6aRbMsHoEsIdCZw2HI0fanqFvn8XMpOIJawb/+AHU7xK58iLZRt6MFkJ+gbrNpLEoakGy69klERET09/DP0TfROzx3Nb0TrzYu8VlJQ8YRVACF5Ti0k23PDrWcXIDUOvZYYbAAACAASURBVMSS17ussowE4kh0r5CzfqihnwVQ0/+7XjQ7jEU0W+tYeRvyfM/2kbYGwjqojtBR6W3EhR+I5wNoJ38a5TxC/3Yfi28yALyDGxMBn41yTCcJMaMOCstxYD6OXndd2PQaMmB1stX8yvgpu9kSzpdPsSS7ytCyO1LtGw25qQTMcsrlpp5hYmhX9ICT/EYCcD3kgEfI1z6h91EBTkc/3YL6O1BccV1noQ3V+rjbW9A7DFbdFvFh1t049RFMe0TTpShjxqdvJifNc9E7nDPvi5DLzVDnvysfYqW7j153Xz/vkw4w1Q9x/fTzlSRzW0PLvi5B1wzwaSfKMhJaA1ueZT1C/r1f2zY6V29LOO/qQbl8TZ8GMZxx794eYma2iIJ6hYOuikSI+3f4/dBB1Zzm8OMamjSNhPmZ6x7UTrY9gpZGW1FU9MROZ+vQmj5RUK/QU+GYTvF86tZmZjF8CJnF8PB168W8N/U20evuW88T0/Oq2zgWsY2Z2SPrnI+V4sNP8SAiIiJ6BkYPMmTTWJQAaeMKPeuFS0M6C6ghX1J9CS/o0Ql6kQyi4HgjLrzIKjjurobaUm1c4nMqiYPuFQ4AvVyhXqSDj7l72kFuY916uddOth0BG/dLd3TMLJPNkbbyC2qoPzUcpISOh5/iF9TPwmUbiPSR/D+xdN/2GMZAUAgANNR3VpD/qeEgtY61k23r+iemJGg3gTkcBmfAQy43sRhqO+H4j1F+AIOBPEPrEDNyG31tHemNaVRnjaBPNoYJaGgOOz9rWo1eD7vyNmJn+1hRAIRo52PfD36BI8/AlL/d0w5y2Zgj0De6B6pbU7aEzymgvjNaRUVet35u3YE143muqOhlS5CL91nr4CHrtoOv1jN/eBCaiIiI6DUZebqEmY0gLsC1dWJPmdg97UDySUNXG5fQ5n1S4H9cQ5tfDzd/N1vC2ryZtmzs+6cWOp08FOOF0lwITS6vIuyM+MJH55SQwcCJmXKbQVlJwnrHDTxmBuWscxqKOALYvtGQ2AheE2GcNRkAoKCuoh/l/OLiF9TFufa+jlD/LmEt6+4FmGnOHuXNlvB56tuY02WM/TrWcThC/xZImOtDKKojO2NwAb05zMwaHfziKdrQcNE4ss5tbV74f32Hg39Nw01RcZDShE6LzpwX77xn9KkWaeUeKerGFBDHfn9cQ5PM9Vf0BS3ttqlPaxioB7kI/RpqQOvUaj+Fj0lIwv/7lwWAIz09gdjA1Hzv+gtzP4yuiGYrfN0WluODneRnVbfm7/utxfCYddtGXxucIuQXkNOzodyn+0zqtlbHhRbXg2H6iWFl4L4nIiIier1GDDIYqeOnzk6z+lOzAwtFGVsnEnJeCwXWNrFU0ZDe81jYsLaJpUoHiQ2/Rfske7u9BVy4O73FL6hDzx4Ydd6ulNofXBSstomvLfuYB1OXqGtDdwUA2P2rgYkNr3m+7v2a83zh8Zn7mEfI15x1J5ZTza+g2oo76j2qxS9z85L3NRvbEfLvt1GfXHeUxasTpOa/4U5ydyj0jj8G5kcrON5LQpoX9ztKZ8jYr+RczFScD97bAOonIRsCiviwc4lFR7sNmWEgrvXgsxaB+lM/D30qjni+2457YeTF935cQ4MQWAGA2ib+OIHVbhe/N4LX1BDPM79ir6tgrFUQKmNp4Hmxjgn3miBoo68BMFLyHcd8gPthV55D9Vao2w1XIGF+SDmfS90CVtDLfy2Gx6zbI+TfH+LOehbr02T0YOHg2gkH7y6x5V449tnU7RHyRfE7YB0IuSYPERER0Wvwj99m/vXrqU9iOH3aQP9RU8DHV1CvsHYjzDXOlnA+SgfTk57aG6sJacqKavyZtL/hKuYPVHZrkceAv3whl5v6wneRT+0Zlb2oXbTTZMLs9/nck2Gu2fPBun04L6tuiYiIiF6rMf+EJfnLIDbp+tHbaUgI/6f3vA2mistvJGDYX2l4dYwU7sgDDPp+D1Ja4J/WfC70P1EZfYBBT//2yhh4hsw/X/tCOsGs24fzouqWiIiI6JUb469LULAj5ItpnO+Jq/vrC/Hdr0NcxIfKMnqOBTc7qM4+/w5AtLz+AsRz3u/D2JXnHiR75V5/geSx1TYfZ3HPiLBuH86LqlsiIiKiV+6FTJcgIiIiIiIioueO0yWIiIiIiIiIKBIMMhARERERERFRJBhkICIiIiIiIqJIMMhARERERERERJFgkIGIiIiIiIiIIsEgAxERERERERFFgkEGIiIiIiIiIooEgwxEREREREREFAkGGYiIiIiIiIgoEgwyEBEREREREVEkGGQYk1xuoqcqT30ar1gG5bMr9M5KkEfdVFHR617h+EVcnnuUcwyB7TZbwnlXReGBjl1Qr9AbZ//ZEs67VzgvZx7itJ6P11DOkdqQguNuE+VsRMce+75/3HvwKT2be/CBnzXAPcrKYz4N4/7V/z1SeZ7imC9CxM/mF+pJ3vPFNjnWsY3vM2MfL/p9gl688YMMxo3wkhuw/uU8+O9ldE6j464H9zV1fB7yoVdQ3S/tCo7d+x6zDTnPN/yLQVA5C6r4/8ZDWlWMc3QfQ//c/n29bJ5tx3g5H/2BP+xL3vlF0hN/1/HiFG3nyV2HkdwrrvMNvc+Acsrl5sB9bdb94IuDXpdhjuv1zHBsZ52Ts82Y52P/bvhjBl9PVzt4jBciV5uO5OVcUT3aaQblM7tdj3vfj3sPBrWhoWUR70dHB91+Vvjv07ymo9Xr0LYZOfczSGyDfs/7+3dcHr+cxjUT26dne43+mAPfSVEc03E/iNdj/GPq94rQXgcCfnZb8b6HFBxvSKjvzGFmdg4zszJ2jU/Gvu8dz02vdud3zGHfvV7f9+53gsF6GXyehCvLQN2K7yf39hDBhKDvJI9nhqt9eb9jDD437X37PIdc+3XUv3lO7u/WserC4/kQ+OvuY7raUlHGzOwctk407+3d378D5fwd6dtDo03PYSl/NGqBPDjr2P289apb5zu1cO73foZ5tAWrjQ1pX+66d99DPu9vg9uGfQ55fJeLAXZ3sN36jhz+PHkpxg4yFJYl1CsN4F36xY7+7MrGl8tOAxo6qBo35YfiU5/Z47LqwePBJpebyMF+YFWxHupFe1feRh1JfDZ+t6CuI9E6dDzwgtvQEfLv5zDzfhOq+3wmG9iyzldCzv3QMh7S7usYVE5nmY2HtFwEiqdoI44V8VmUTWNR6uBr/sh4SKyiv3OI9sCeFBzvJXFXsdsZUvuuB7R3OYMpOO7uO75IZmZXkK85y2+37SjoDz2xLYx6r+j1b788AtDrT3zR22lgYsP1RV/bxJLXl2VAOdX8in2dW4eRfdmabajaArSTbUcdyOUmetlrbFU63htrGiayAV+wY5SzoDrbQdj7816M89SP6dXuo+e+76uteMj73nUPzh7iLuQ9eJ82pLU0xJJGUCs5jbuWeNU0oWOjn4/jmmXTWLw9RLXleu4MEdQ2nb/jugfD8GybRr052kIHVbkIoIgPOw0g9btxLys43oijXRGeU2MKU07798YoqycNGpLIDbkekR5T6+BuyvhuzKYRu+14PstHO2YGZWUBFzvm9yCQVoT7KOQxvbRbsNprYVn/f53+fRWrbaPut7NsDBPQ0He1jVD3vef+3N8rl1jcc72c+xxz6H49v++PkC+K7R0AFORSQH1HuDYt4VndimMtxLNaza/o5TY6RHL5d6TRwJb8PF9Uw3wntSvCc8N67ga9YxTxYXbO8fNqC9Bu2hh8DhnP7Nu+9TwvqFc4eHdptaMZse40u33NVDSk90YJNGRQPlsHWj7f+V7E73Pruamh/yPEtoqK3p59/zrrT5eYkox6iYp+/y5+3/Z87wus2wcjfocOHtO7fcFV94doz69a1zr4/U3B8QasPqJ4P4Y6W00Kca+bQc8V5GshnycvwJhBBgUrk5eoF+u4wALS7hsyaGQyaFTJ9VnQdsHR0YgiPWFHwMzf8x1JdUWxzkooqz7lBMZO+/U7ZkF115ceCRy+f6NR/1W0/n9lHpCEoIBvOa0v3X0cqypy8+bLp71v3zbkmy5mnE/Rfmio+W9oS+b2YjsYMzqvqPoD0zrXIpotILFsn4ecXIDUOtVv9Nomlma9X5zl8ioSWgNVc1e1Tfxxotn7GjctTllGQrvPS0ZMqCfXvaJdA8I1tdq88glpyX0N3eflc9+L95F71OJjEjj5066/2ia+tiQsJs3g1GONVpq8RkXCPU/U/EpwsOj2G77eejwvMW45M4hNasL9CeyediBNJUJu7xwRsK51toRz1/0jl5sjjaLGhDbkLI94zHVYZ/rj2qczo6FfU5BLSWjX7LrdlQ9D3fdyeRWJ1qHwUlRENYJ7UH/uDWYrHCuA/EYCbk7Rn0pDRgbpqWs0b/z2VMSHSsf5TE0u4O60iN3TjuO5M/i94JEt4Mf3HnRmiziOJYxIhWmbBXUdqAgvQLVN/HECpPdUHBtBZncwwKudFFSfjLAw7W9YFpffMypE3V7UGphY9qiAEY9p3muD95QwepWNYQLXaN5MI53VA1X90+vwx3Q/x6zPj5B/b39fqY1LaNK0fh+OekyhfhJTEnB6CizrWSwrOEXT2lDvIHoGpM12uZeEhDhyjv0Ou+8DvJ2G1PomfK/UcaFJiGWHHXOIgO97q70bQRv92fMtMKh291MYdAnIEtyVD9GeX8e5quKz4x3IeJ4Kzy4xi1QuN3FeVjyfj/rx1pGAhPSe13edhv5b/+ej43yt9nWP76Qw7ximbAlr88ZAz+COPN5bO6iGGcgpyqgK7x/uYw6+5+sDUh9Oh5+ynzDtRJdBORuHJr4vCczrkZsHpNS+Zz/gWBG/f12flX2+I5TlgQFCm3/dtm98IopC8MebguOuirKV/Wmec8Qj+K4gY/D7WxEfhEDu7mkHmIz5Z5S6zvWu9g13gQPyRrBKDMKP8Tx5jsYLMijLmPheh4oj1L/DeUMqKnqOFDThyyVbwrljVEkcGVFwvDeNr0KUCRvCTfDRuZ0jcqV8co3qRhDpyZZw7ogYeo2AuX7PbKCKioOpb/b5VOCMeklJpM1obaWDRNDoZlgBx9z9qwFtfllIyVl2dn5960C4Cc0IfqVhv5QMK6fZqZ6Po11xXZOgNuSXLuY58tBGX5MQewvYEe1xR1fTerTS9aDZPe0AVv1lkH4noX06/IswMSUNPFDVn5r9cBqWFudDfjO435HMJxGr+YymSEnkzGu60wBSn/RUzzcSYAZWhJdNOwgRcN+bI98DEeIMYpPOFy1A/3IyX0r0UbqAEbDIOUdFqi0t0sjx7qmG9MfBjsp45TxC/1Z8IdJfQpxffn4yKJ+tom9dr21cvDOi5q5Aj9Xma2GzbeJIm23I8XxTcNxdB4SsAsd9ajxX7DTLBGIS7PveMdIT7r73GtWJ4h5U8yvCKHAGZUX/frI7Um3Ub6aRVtKI3dSx+1Pzf9H+cW0/U5FB+p2GZhF6FpX43C7Ken0a34sFdR0TJ9vhsit870G9DcXewtGRl9/Y9RaqbSoqchgMIqj5P1HX4kgMBJkBv3bSvtEw8cacWmK8A7ydhhTmmReUxaWo6AmjUY6sqTB1+6OOi8nVwYBM0DFdI+pmVsxS/sgVIIczQ87QblwjllSQnrpGvdjHndlOArPVMiifuTLdfF6eHQHzUY850PEooollFJRl4LQoXMcAZrt0ZZMu5Y9C3PcBfly73nk+IS0Z2wUd857U/J+oI4lcuYTPKW2wzc+vW9+d7vtFzLSc2Wm4st6MYOR83BmURxEfZvUAxLEC/T6cbGBLuN5Sat36vt86gfX9ox9PH0X3mqYCxJHLXhsj1IOjvms39sj21vcFI2s13HdSYmMwQDH0HUOgD0588fxeHuiMKctIaNeICUGRoICS+P5h8XrPz/pc45G4AyJBEohJGi4aR3B2avVnlleGl7svlNhYRtMnkyaRMvs7ehaymbVVWI5Du4kJwQlxam5w3er1KEzJeTsNKVS96N8NWycaEhtm5pARJNT3LATGBoPkYvty99ms4NheEnfufklIheU4tO91+5k6tA9aRPPWPxMuVv4di9+3vb8/g54nL8AYQQb9oWF2DNTGpSPdvbDsH2nTv9AGX0QA6I1ViCqbEVazUbVvNL3heI02/biGNr/uE+kaM8vBHQk3RrQdX5rz6+jtTeOrK7JdWI47vkx6G+6HrPDC5XjBNA/lne4fJPCYtU18FVJvC8vxEToMMFK0jHIKX/jDy2l0tOGqtyFt6KlIqSQ8uwHilAnjRbD5hPe6WadjE+7BwS9UoW2Koz8io31WW/aPgu77l0ouN7Fyev/0bofiF9S9Oipj2pX14Kd+D/4OfO+EC0Bl01iUxC/qffslHHpg0rons2ksIkRQ0uLzfAsKbtb6uAMAZBC76QyJ+j8Pan4F1dskDoxU0sEXhFPENqbRHKXzonxCGtdGsKSIpnvKRFHWp4gZnZQoOkZWZ/AtcHerj2InpqSB4F/ASevBWc8XICNQBI/niE87Uc2ATDaGvpGCLwY9xiW/kaCJHRPz+WZ2WIfW7RHyNe8g4Uis78giqid2gF1OLgx2nGqbaE6tI3Y6wve18R019IVUUXHg9eI69JgKjhXgD4/97/51jbXs9QjPigdS28QfxrXsda/QW75GXQuZkn4vR8jXOkikfDrBLec0AvF91pEVupeE5HovlN/o3/uDwUp9atLExpUeRHMHlITve7VxCS1UEBoANCFjoohmy7xX9KCzPVp+hYOUJAwMDP9O8k1nt4o0+I5hGSmLwSAlETsVBwx/D/8d7Pmeb047ut8AxPij00ZgfcTpsOLzb1d2Btbs97cj9G+d7+xSatoKTsxUNOcUK5+6VX8aZ5aNod/SPLJDXGsrOLKxhGyYgfpxTp3ZMrLlCmK9WOfaQcI1/dYO5h0CG+NljOcmG/jDEYAO6oMax/3LHTg0xZFO+b3TD3mevACjBxmyaSxKQqRoLwkpTPpaGC3nXCxxnrk5P3bmdHmwQVpzhE+xMhDZcs/XinA+S+vQe00AuB6iASMJUQo65u6pOVKkpzeF6iTX+rizotlGvb2dhqRdWyOGgeVUjGkSlQ4k8aE+bhuq9XE38LKqR3ejeHnQTrZ9rqedYu018uOnfaMNBF3unYXgs9+H5hj9jczglxnwEHMKw3C1ISNLJ/r1WfSOymIy7JSGYcQv3BXUMULdiXNRB7JP6rgwRjPk5AIgRu0fUjaNGL6gaU4r0a7RNu97x+hluPvea1QqintQpGnOY9gddGeKpS/hmVpYjgNSEgfmaOe8c6qWeMyo7kfzZbCwPI3mX/oodmwy/DNVLq86p0kIzLV4qi3J+WIaxJg6Iyengb/0FPzRgh73E1i3xS+oTy6HT9s1AhlmMO8gpTk6gWrj0sgWyyD9DsYoJRyZG7vyA6wTZWV1CNct1DGNDKii+D6TsdtLbRNLUb3r3OO+B4R3xtk5zMh9fbvHCIIXT9GGZl9LH46U62xJnwYhrE3kzoj5nALqlQY0M2vBTdOgeQbzHoJrTrwju3i876Rw7xh61phfh0t/3nh02h3B7eBsmIH3D6/3fCMzxgrSb9jP7dCdVvOahspiGH7eD8kRnHUPjA6pW/M5bg4c2HXrWmdjzOeG2rj0D7QUTwOymvX3+qHZVgK53NSnU7vPNbAPav/O19sFpAeuXwdVv0x5qwzDnyfP1chBBjMbwbnIih2N3z3tQDJSrN3UxiW0eZ9RPCMSNPQGLcp66pZ79F//EB9m51BtRXAj/rh2nmu2hLX5wQttjWYJEWk96+Ie84fGWJNh6DGLX1DHAnLqKiYcD+gMymV7Zdb0O/FlTs/esNOCjDlhxv8HH9Nc6EvGrjHPzZpbNKQN+dOj6eJIku+XyoCgctq8ridgt93PIadKWNtIQorUyF8qPvvNf0NbshfVdJPLJeuayMmFcGnGXpRPSOMS9Rr0B13AMYPu+yAD2xmBKe9RCqdxy6n+1ITpLzBeGMQXUAXH2euHW1ireIq71CoWQ/566HIaI5Puuhv8yxbQX+ADrqcVQV9WkXPvUykNpEuGCmv8uIbmWEdBWJPBeDlZ+TiNfuMIu6caFj8uYwKAtS6KMAoQ9r4f+M6J6B4E7EVxl97/ifpkiO8uL9kSzjfMzDIFK/Pul/dD55QJY82YP97rzyn/6zeCH9fA1Ces4BS7tT7wbhmxsAviZUv4/O7Se+Rasdfi0efShzzfWh93k8vITV2jXmujP7mMlbALowVQf2quZ40+B9wKuIeq2yPUv0tYy4bMJhuWRmtmGaqfkL6NaL5trY4LzX9RQbncHAwwhCSXf0esFnF2l69w973n881Bf9ZMPLORwMJy3A52vp2GJNxzhY9JIa3c7Fj/iXzRmILqeO9ScLy3gIviCpbco8zuY35MugLGITuuRvaAfq/oUyJCBQ19vpM8DXnH0Pen37Oe+zPe0Qee7cVTz2lJXgNtcrnp+f4x8F7oXryx0rGC9mEDgoWPSVe29DBHqH+/Z99iDLung2sGWQNtQXX74xqa9Rwvonm7gNzyPbNwPej16D3wp6+LZrzDDtDXfAkbvLYWuAwMhgT3QXdPNaSzC97beS16/hr8NvOvX+H//e+v/7v79eu//3b9/N/tX79+tX9VjP//n/rdL5Hj9//ddnx2V/9f389+3Z38+h/huH77dB/v13++jFCmf/36bfvk151w/n7nM3BM6zjm+dn7qPzHVRSznO5jeR3bOO5APQ/553tMRz3d/fq/7YByDtSds+7d+/Q+prGNY19ffv33169fv/7z/4a2oYHr6TgvV1uw2ohwDOcZ2eUNKGflP2LZjGM49j14jUc+5q8h7dZxXh77DSyreF3Fz5zn62y3rv/fPvnlPKPhZQ0qj/WZ+752lcW5nViOwfveecwh5XQfUmi7ox3T/tzd3sOW07PerW3HL6fjmI72MVgXA/dc2Osd+ExwPU+GPN/Eev/vv//31//dmdu77zn3sSO673+FvweD2pD+mbuc+ueV//g83+5Ofv1P0H1r/c5gXd/V/9coh8d9bpzvuG1TPHdrPwHfvfZ+vT/7dXfy63+MfXp99//338PaibNc7roOLKe7fbvq0/e+D6zbL7/+6/WZ1/02cEyvOgrxff/vtsd95z4P/3IO3BPu+8p9ycz2FXRMrzb0ny9GGQfPy37mDXu+ebQHv/rzqHPv55tzO9/24XnMoO/eIc+agOsU/J7qfs86+fVf49yc96P7Wamfj/jdpt8fPu9SXu/Gjuvqugd9yxjwTh74neTRFoY8y+1rJzwLB66ZUW6/d39HGf2/G9znO+w9f/D57nFsr3/bJ7/uvO5lr2vmum4Dn7uO63yXHf5zr8+8/t/3mvrVret7JXy/xr5/7PoX7ylXGwm4j7zqxvNcvdqCuP3Au9IvR1n87zN3n9nVhtzPIM868nnuv5B///ht5l+/njrQQY/DN9WHHpiC4+4q+juPNQJEFAV7ocbn8md95XJTX2z2BS6ARI9MUfU/SfaY33fuYw6cg74o4+J3YVFJr6kL9znmK8T7fjysNyJ6SmP+CUt6eQb/HBQ9liI+VDSfPxNF9DwN/AnWZ0DN61MTwqwSTn9vjnT0JzqmuVifTV8I007RNf8s3fip/E9RzsfG+56I6OVhJsOrZ/w5K0lf2DCK1ciJ6BVTVH0hK3TGH10legIFVV8sE4A+R/oRRveDj2l//5rM72Fru9bhyCPNT1FOenmYyfAEsiWc7yV9/lQjv1Pp74VBBiIiIiIiIiKKBKdLEBEREREREVEkGGQgIiIiIiIiokgwyEBEREREREREkWCQgYiIiIiIiIgiwSADEREREREREUWCQQYiIiIiIiIiigSDDEREREREREQUCQYZiIiIiIiIiCgSDDIQERERERERUSQYZCAiIiIiIiKiSDDIAACKil73CsfKU59IBuWz53AeIWVLOO9eode9Qu+sBNnrd55N3RIREREREdFDGzvIUFCNzqXx71l3IhXVvxNM46ttYml2DjOVzlOfCRERERERET0D/xx9kwzKZ/tIo4Gt2U2o0Z/T4yvKmCk+9Um8UqxbIiIiIiKiv43RMxmyaSxKHVTf+wUY9JT/nkcavVxu4rxcwrGVAaGiYO23hPOzEsqqX3aEImx3hfNyxnlYIy3fua2xzUYckJI4MD9XzR2L59pEOesuqzAdwHXMgnqF43LQdAFj3/fIoJDLTc/jetWt+Pt+dVsQPh+oPz+uOghfHv+6lcvNgf0U1PDlJCIiIiIioudp9CDD22lI2jXanh/qWQ6L37cxMzuHmdk5VG+TOFDtaIGUSgIV47NWHGtiZ1dKIo1DfdtKB4ms2bnMoHy2iv7OnLHfbVy8+93uuCoqehsS6tbnc/hQBIAiPpjp/FoDW8ZnM7I5tH6E/Ps5zMweDpYnW8L53gIurH0e4i617wh8JFLm59uoI4lchFNG5HITB+8usTU7h6X8kfWztRu7bre+L+CzWX+KioOpb9ZnMxUgJ9Q7pCRy5uc7DSD1yQ5CBDGnRAjXM1w5/etWzX9DW1pA2go8KFiZ13DRCFFOIiIiIiIierZGDjLIb6SATxOISR18NTrFALB72gEmY/ZIdOvQCAAA7RsN0lRC2L6DqhkA+HENTZpGAjCyJySk98zR7X2kJQmxt/qvFpbj0E7+RL42amkCvJ2G1Pom7LOIZguYeGN3du1jHqF/6/zM6mT7Znz4S2xc6QEDx7YZpN9JkFL71gj/QUqy6q+wHAfm1+3R/424s97Fuq3VcaFJiIlBGt8sEWcGSW7eXc5xFFE9ARaTZoBkGQmrroPLSURERERERM/XyGsyqD81HKT0zv+jrsegNbA1Rof9JWpXttHP7uO83LayGHQa6jsrvsGUdmXOCuCMJGDdhIK6jkTr0Mr+KKhXWBvjEG5q4xKflTRkHCGxHEf7VJwQEVxOs1lv8QAAIABJREFUIiIiIiIiep5Gny5R/IK6Fnem4lva6GviFIgMytk4tO/1+wUHan3cSUnflPnd0w6koPR/MSsirB/X0OZX7SkZ2RLWhJT+4e6zJsMR8u/d0zOO0L+VkFa899e+0ZDYUMNNgVA+IY1L1Id24jOITQLajTHhIVvC2nzIIgxT28TX2wWkswpWJhuoWkGO4HISERERERHR8zXGn7A8Qv79NuqT6xhcaNHuHFvTGm4PXaPx4yjiw04DEFLoHQsbFmVsnUjI+f1Jzdomvrbi9udWgMScCrCOBMzpGMYihbVNLFU0e4rGXhJ3lcccXdfLPLFhn++urK/9cOBRTjW/gqpYxoFpD8JnGwhYuFN0hHytY09d2JvGxYlmf2xOsxAX1rSCKgF1a9g91ZDeWwdqznMJKicRERERERE9X//4beZfv576JOiBZUs435vG11kZu099LkRERERERPRqjZHJQEREREREREQ0iEEGIiIiIiIiIooEp0sQERERERERUSSYyUBEREREREREkWCQgYiIiIiIiIgiwSADEREREREREUWCQQYiIiIiIiIiigSDDEREREREREQUCQYZiIiIiIiIiCgSDDIQERERERERUSQYZCAiIiIiIiKiSDDIQERERERERESRYJCBiIiIiIiIiCLx+oMM2RLOu1foda/QOytBfupjZks476ooPMZ5EBERERERET2i0YMMijrQcS6oVzgvZyI4HQXH3SbK2Qh2ZaptYml2DjOVToQ7fYbHBDyvTejtzKBI9wo9VXF8XFD9PsugfCZ85r52YrAl6utKREREREREz87rz2SgIRQcbwDV2TnMzM5hZnYb9clVKyAgl5vI4dD4bA5VrFsBJbn8Oxa/b1ufzVQ0pD8q9n73FnCxY3y2c4nFPWZwEBERERERvWYPEGRwjW57ZD14jXzrP19HAhLSe+bnrk6pMeJ+7Bxovx/XKL57387zFc7HMUo/+lSMWLnpfUzXfp0ZIu7MAfN8FBx3r9DbiANSEgc+GQlyuemRUdBGX4sjZ/6u8glpSUO/pu83lwLqfxXNysLKPCC9S0MGoP7UIKV+N/aXQTkbh3bTNo61ikTrG/I149jJBUiIYyXKa0dERERERETPynhBBrEj271Cbt78IIPy2b5jdLt6m8SB2YHNlrA22cCWNWq+YnVCd+U5zMweog0NdXP0e1bG7r2LGEBR0RNH8XcamNhwBj5yjvMVzsecEiGUMxe6Ax1HeuqbMfrfQSJrBCiyJZyLo/+zh7hL7dtBCOUT0rd2VoF9PkV8MKdnaML5ykW/ExAcIf9ez1Doda/Qy15jy9xvNoYJGAGHbAnn3VX0Kw1o0jQSAFCUjQyFK/S6+4jV5rCUPwIAJKYkK+BQUK9wMPUN1RYw8SaKaTVERERERET0HI0XZBA7srNzqLbMDxKISR18NTqaALB72gEmY3onutbHnZTEwbjz84syZmbn8CFM3zkE+Y0E7eSLEDio40KTEHsL6KP2GurFTaieWxvZA0KgJXwHuoOqGQD4cW132t9OQxJG/4EimmLH/Mc1tPn1wQyPkNT8iiOwo9OzI8wpEdXbJA68Mkj2pvF1dgX5H+6fG0GRnQYmNtyZFwmUz66wdrMdMuBBREREREREL9kjr8lgjLjP/gko3tMTXoqCuo5E69Aj0PKArOyJU6xEtZhiNo1FyQ567MrbqGvGtIZaH3eIIydmN7ydhqRdow2gsByHdvKnHrSobWKp0rGmUrRvNEipdSG7IYPYJHD388jvTIiIiIiIiOiFizjIoM/vX7NGs415+t/rrmwAPUV/60Rzjf630bcyCTxEvCaDvqbAJ3vUXvmEtNRBswjoWQSSsJChSO8wm9MBkC1hbd7j10b14xravL3oor5fDRcNd8dcD9ZUW666ErMiPHivyQAAEmLWzxKISfZxmi0I12/wekpT9tHkN9aGUBuX0GDWJVx1S0RERERERK/RP6Pd3RHy7xM47u6j193Xf9Q6xIw5fUJR9cUJTVoDW++PnNvXPqG3cYXeBgB0UL3vugyOY8Zx0L3CgdbA1vtNqEUZW2+aOOheIaefEOo7K9bxduVtxM720euuGz8xz8c8T7OcHdRPNCyGOWbQudY2sfRWRW/vCr09/Uftypy9eGK5iYOU3ZFH6xAzRef2Xz9eIWeWp3U4fJqCxzG1k20sFd11sG9/ZlxP7/oxymju16rbCK4lERERERERPWv/+G3mX7+e+iSIiIiIiIiI6OV75DUZiIiIiIiIiOi1YpCBiIiIiIiIiCLBIAMRERERERERRYJBBiIiIiIiIiKKBIMMRERERERERBQJBhmIiIiIiIiIKBIMMhARERERERFRJBhkICIiIiIiIqJIMMhARERERERERJFgkIGIiIiIiIiIIsEgAxERERERERFFgkEGIiIiIiIiIooEgwxEREREREREFImnCTJkSzjvXqHXvUKv20Q5+yRncS8F9Qrn5cxTn4avwPNTVPTOSpCF3+0Z1+NYebzz8zvmc6/bpzBenWRQPrtyXOsXLVvCeVdF4anPIyS53ERPfaQbystD1Zf4/PZqW9bnL/PZTkRERET3M0aQQcFx1+4gjt4xzaCsJHFXmcPM7BxmZleQr41+Fs+eqyPv+hDHD/oCrmBlvoOv+SPPTwvLcbRrm1CN/9+V5zAzu4269lDnM+gpjml2ukcPpBiddb/AWFDQTFEd94q70ykGW/w7pMHX8/GMW3/DhLsf5OQCcPIFu1Ef3nEqg/ft4wS9HqpuH+CYtU0szc5hptIJ/nznEot7j12miFn3r0ewJjBY7vyedNeBXG76B2mIiIiIXrgxMxk01HeMIEGlg8TGKKNlCcQkDf0f4x2ZhpPLq0i0Tr07Y9kS1uY7aBYf+6xeLrn8Oxa/bxtBsTnMVDSkP5q9BgXHewu4MO+HnUss7pn3g4LjDaBqbje7jfrkqtUZkctN5HBo7beKdc/ObOD1DHSE/Ps5zLy3A0ovl4JcCrhoPHWghUKrbeKPEw2J5ZcZZZDLTfSy19jyDKYE3fcZlM/WASuQfghs2EGIgnqFg6lv2Dp51AgrERER0aO5/3SJH9fQICEmjOI4RmetkRpzZGcdCUhI73mM3jpGhpyjPwX1CseKODrkDGx4H9PY51kJBXPkqDs4KqmPKo2TWZC2z8ddzo04ICVx4Bql1s/TVQddoVPaVVEQR78HRreN/fuOemeQfgfU//KOIow+GuwaxXePvLmumVi3jmsycsaLV9167dcV4HJlDpjno1/jfaQlILExZPTRVbfqTw1S6nfjdzMoZ+PQbtrGfleRaH2zsnHk5AIkxLGiAEAbfS2OnLk/5RPSkoZ+TT9WLiVeJwUr84D0Lu0a2fS+nkF1KwttfbANuTOR7PobuA+Ma3ushKs/33tw4HydHS7/+0E87WVHPQcfU7+PykY92M8NY78hngl+hj2HxLo/SEn+5ypcs/vW7TAx4ZxCHdOon7Jq/Ewx7vExRt0TU5LrJ872Z9X7kGPK5SbOy4rwLHK1U2tbj2dNwDMqiJpf8Q3QBd73yiek0UDVurWXkYCExaR+3F15DjMyo7xERET0et07yCAnFyBpl6ibL1vlJtZu7FHfre8L+FzOACjigzGq0xYzIWS7k3W8N42vs+Loj/MFPrGxjKY56tuKY03oQHof0yAlsYY/jRGnBpD6FMk8ZSm1gP6OMUKNJHIK7HJWOoDWwNass5z6NAFXHczKQqc/jlz22tjuEO351dGCH8onpG8HO2PGh8iltBHS7jMon+07RvGrt0kcmJ3WbAnne+LUlzksCfvWyzpn1ftENnwnxbtu9c6WOPq/dSIhZ3V+MihnJaFe7fNR8yvW9Iz2qFN1irKV+t3r7iNWs/ebmJKsgIM5QlltARNvMjAzCapY1zs42Wtsmdc6G8MEjIBDtoTz7ir6lQY0aRoJ8dg+1zOobvWy2plGrsIY96Fdf+Z9pOZXsHUCpJUSZGFa04fi8PoLvAezJaxNCveCsN3w+0G4rq5AS/B9H0faGC1ObKyiv3OIthgMlZLITX0b65mg78/7OXTw7tIqp3uk2u+a3atuh9Lrwco6C3lMSEks3myj2pKQ3pjG1x2PthnADLbk5juoWs/4DMpndt3NzG7j4t3v9vNtyDGl1DpiNbNuIWQT6dumzeeCUE79GSVkHMwe4i61bwQh3NOghk1bsgXd9/IbCbjtQ4WdDVE90SBNha09IiIiopdtzCCDPep48O4SW9ZoTwbpdxKk1L5jNC/Uy5WyjATiyFkve/roppghoQkj8Luy2dELc0xhPnttE0uuToz+wj362hDayZ/GNkfo35ody/vSUC+a9VlEsyUh9lb83Ogkeo6E6aPs7VOfLIaR0+4TiEnOtQB2TzvAZEwfXUwuQGod4oPPoJxjRH0vCWmETop33WYQm9QcnU21cSl0RI7Qv9Xb5nhz6H3qVlHRMzsqOw1MbLj3n0D57ErvCDq21TsxZlCkepvEgVfmxd40vs6uID8whcj/eo5ft86OlfteUfMrxnnqwSW/a+veZ+A9WOvjTkriYNx1SJRPSMMOZIY6JoR24pEBAQid31odF5rzWRPEbpv6/aAfUz8fca0Tt/Gu2T2eqQAc5fxxPUKgwL7vtTHXwdBOtp0Bo2wai5KYsbKPtCQ+34YcU3jWqI1LaMZzyNzWs5xvpyE5rn8RTVcQcGbW9S90loHffa8zgw8z7zfRDrlHIiIiotfgnmsyHKItCSPbjs/GeGlrHbpe+MJ2/O9xzNckm8aimKbrEDyNIvpzKeFzCvZ12WngMWYgm6PFf+D30KOSwxSW43bHsraJpUrHmtbQvtGsEVYz6BWbBO5+HhmdKrvzsytvo64ZKdW1Pu6srBWjI/Z2GpJ2bXdI/K7nPepWLv+ONBq+o+0mTRt15DXoHjSzJ/4ElNGnzrgXKg13zGjd/bznWhD3uh9e3vNNza84sposYnaX8S9cIOshjJ/JEHTfqz81YH7dEXwQMx+IiIiIXrt7TpcoonqiAfPLxuisMZKsjLFi9o9raPPrY6xEfo9jGsZfkyFA4KhhG33NnaHgwXORRv81GQofk7jzG0kNnEbhR19TYM0atTfWI/hehwpjNNFvOsfbaUjmdADj3Nyzs0dnXGshTbrwMQnJIztDza/oHTnHaOewjBP/uhU73PIbuyRq4xIahGukfEJaEq+ZOEKeQMzaVB9RNevSXbdm2Tyv5z3qNjFlp3Lr02ecW5qLUS69//P/b+/uVtrY+j+AfzfsW5giYugTeaRg8EDlb9ELiDmoHXMHBasQPBE9mZ193Ow5UTyRgG6hd5BO9SDmAiIVbA8kQhEiRRFxLuL5H6x5WTOZmcxMxtd+P7Bht+lk3tasWeu3fmsFzSH/8xh2/eI+g2LkeO3I9H1HxPNgTbXoDZwN/tw75EyJn9cwlUmUpPn+ixNhC9XKmSbi2jiLHGqGd02GvvdskGtrd5aT/lxllhlYXlUj4DmyMlriT/WI+P4PRUB6VkL9vPbWUdb9FAuIps9kiHzu9WN0YLqLlHr2SURERPTyDbwmg1H5B02pI1pTxRz6bWlkKFbgwBohdhchi7/QWOp93qfGKr6cSdM/PA3uA1Qa8rnKnQMpnXhzEqcb/vnpISJ/NSJqGoXdQfEuAieu3wEqb8UcZie9+XbfHaFsrGJm15TSn6VpBPq/aJru+S/etKSU4ah9Rqup62gOLTn7Wx5qYU1e10MekdycxKnu7aTXPrcA53ziBZb8+9yeN7FnTxFqrGJmF+59XgH27MyEnuuzhFdH7hSEmrqO0yn32k5/X3evbdT9jLy2fc7lcwvmhH0u73F15K7ZoNbb4txU0Wmu6L1TQ8KuX+Qz6FuMc3vqBz55RrnDn4eozuRgz/2495557qd0zzaLuNv1ZlQp89575t7PfXQmpPU35PUwYtyzVNd2QGmeB+d+yovbxqqrdbzbkPeXMDAyIT332A/OlPCLcT9Dyedplxf7PKOee+h456zhYtfj3jU2nIVB7euXQcYVERER0VPxx3/y//3fYx8E2TQcdt/jaiP5+hBVQ8wNDmx4a4bo9LyInzL8PUTezwTUelvMC3/i6fWByjs42RzBl56FIB/ve7O6L5TMsy7HRERERL+ZPx/7ACgbNXUsvMOkq8izbf6sRN7P2MSigeb3ZzoXvLGKmYTBNiIiIiIielwMMhC9KOJnR0v2hP+zfeQ56k5ERERERA+E0yWIiIiIiIiIKBMDL/xIRERERERERAQwyEBEREREREREGWGQgYiIiIiIiIgywSADEREREREREWWCQQYiIiIiIiIiygSDDERERERERESUCQYZiIiIiIiIiCgTDDIQERERERERUSYYZCAiIiIiIiKiTDDIQERERERERESZYJAhlIbDbhv18mMfBxEREREREdHzkC7IUN7BSfcCl/Z/33agZnxgflVD2l/3ApddA9W4G2vGgxyjsID6N9+xGlpm367W25l+3/1ioIaIiIiIiOh38mfyTTQcbk7idGMMlUb2BxTFPFrHTOXgYXeaUmd3DO90QAQdtnBpAHlVf+zDIiIiIiIiIro3yTMZyjm86vNPPFkH/gwCXxbESX0h8SHE36eGw+4FLlfGAaWI7cDMAl/mgf94i8aAx3qAit6COTHrZl74rsGhfDj+LBH7WK2/355XgImlkGOyziVx1oZ1nfzfWd7Bybcd1I0LXHbbqGvWsVnfr9bbOKlr0vVzsxbE/VhCAQpKm97sE7Xe9h2jOO6sygIRERERERE9juRBhsYqPh3B6jj2TllQ620s3qwjPzqG/OgY1r5P4m+507pZxN3umPN5kswEZX4rMBgQvk8d70bHkN89B8wW1qzP3YwCkWVQut13ts2/XYXh7hGlqWux3UYLmP8Yf4qG55pd4Q4KcmVAZIKM4Iu9v9F9YMW9jtUP3uvjHGtjFTOjY1g7MoGz/VTXL9gC6t/e42rD3uc6Tqf+cqc4KEVM36xj70xBaWUEXzZaMJURFOyP55eQa1jX/QgofRBBkZoqzq0DE03nu1XUABiVr+gokyjZ+yiXMK2c48szyVIhIiIiIiKiYKnWZDAqc6LTuAssezr8CyhNKZ5gwPa8AmVYdEnV4iSUs31rGkEvtd72rGVw6Ft6wDxaDwgGRO8zktW53QudxmCiqVv78QQKAP/of+zsAW0WBYyL69Z1R/vt7+3cmCispF3H4QCVt/5ASR/lEqYVOdtgCyVFQe6N/Q/czr959C9q/u2l+2m0fsAcysW4Djr2joDpogg+qcVJIOi7iYiIiIiI6FlJsSaDRFeR10U2wLIGGDoAmGhuzKVar8GozMXvHHuk32d6Ot6NxlxjoZzDK5hoNwBoEJkIIYEN5xpoYpoGzBbWkgQN0gjbxz0u2Gi0fuDvTZEZkpsCTnVmMRARERERET13GfyEZQE5xf7/A1zdKihpwaP6RusHzIn3Gf/aQPQ+AQA/rz0p/o5GE6fmOBbvdS0ADYebRXek/uc1zImlniyNHroqphv4jtv4ZQKh2QIp1mRoXOFOKbpTWgZQ/VAEvjelYEUHV6acFSHvdxVfzsYxZ3xE6fbrgy8iSkRERERERNlLHmTQDM+UhsvuEuD8kgJQU9fRhLTIojztobGKmV1TSs3PZrG/yH1a+/1yJk1RcKYiHKDydh93IWs9DKKw4r0+ztoJjVXM7J5Ln3unm3h//nIJ2FW90wj0fz3nOvj10/FuowXI1yDJz4NKi1AuY9+3RsQBKg35XL3fWzs+R2FiHJ1j/uoGERERERHRS/DHf/L//d9jHwQ9T2q9je3hr+l/mlMzcLkC7I2qXI+BiIiIiIjoBchgugRRGguol8eDF5MkIiIiIiKiZ2mwhR+JUqgaF1iegFgAkz9bSURERERE9GJwugQRERERERERZYLTJYiIiIiIiIgoEwwyEBEREREREVEmGGQgIiIiIiIiokwwyEBEREREREREmWCQgYiIiIiIiIgywSADEREREREREWWCQQYiIiIiIiIiygSDDERERERERESUCQYZiIiIiIiIiCgTDDIQERERERERUSYYZAil4bDbRr38ux8DERERERERUTzpggzlHZx0L3Bp//dtB2rGB+ZXNaT9dS9w2TVQjbuxZjzIMQoLqH+7wKWhOX8jjj3B8RIRERERERE9Q38m30TD4eYkTjfGUGlkf0BRzKN1zFQOHnanqZyjg1lUAdSgYQ7n6Dz2IRERERERERHds+SZDOUcXvX5J56sA38GgS8L4qS+kPgQ4u9Tw2H3Apcr44BSxLb9uZRl4GQehB1v0Uh4rAXkFKB9DMxpALRZ4PjY+080w5OVcah5PhTH3L3AZXcJhVjn6TuXFFkb3kwROesi4vqUd3DybQfVejv4GvnOM6t7TURERERERE9T8iBDYxWfjoDSZvAUALXexuLNOvKjY8iPjmHt+yT+tjuX5R2cbBZxtzvmfJ4kM0GZ3wrs7IbvU8e70THkd88Bs4U16/O8qltbLqD+bQul231n2/zbVRjuHlGauhbbbbSA+Y/xpzzox8Cshuos0NY7uDIV5MoQHe8VYM/e30YLr1bsdRc0HHaXAOf67HsyICKv7QCqxgWWh6TrM6qiJl2f6e/uPvdui9iWgzRKEYv4xzkX9xotoF5W0NxId6+JiIiIiIjo+Um1JoNRmRMdx11g2dPhX0BpSvEEA7bnFSjDYjxeLU5COdvHOz34e1VpRLx3hF9Ml+gNBkTvM1K5hGnlHHtqyAHBRFO39tO4wh2sQAEAb8ZBUPaAjr2b91i8+dfqsFvn+FqBeST9XaOJU1NB7g0AbRYFs4W9wMOJc54HqLz1B0r60TA3IZ2nRwE55RxfpOBA7fgcGMpJ5yp93ljFjBOgOMDVrYLSJjMYiIiIiIiIfhcp1mSQ6CryuhjtXtYAQwcAE82NuVTrNRiVuQSdY1n6faan491oQDSgnMMr8xodyOeTVSf7Mc4zvZo6hhrs4NEWcLYvZZEQERERERHRS5PBT1iKNQgEa/RaC14TwGj9gDnxPuOfZIzeJwDg5zVMZaRnfQORRTCOxQccaTd+mVDkaRfaR5SUc7R1+zgnUSoDYqqCvCZDjPNMtSaDjvaZgtIHLeCzDq4812cB9fI4zO/NRMEgozKH/EYLpicDgoiIiIiIiF6a5EEG32J+l9YaAvYUiJq6jiakRRblaQ+NVczsmtZ6DtktBhi5T2u/X87GxdQOz8KPB6i83cddyFoP2bKmROgq1o4U91hWFDQ3rCkGnvUutpBrrKNpJjjPlGrqOppDSwELP/qvj1i/It7aCr7pJJuTOA2ckkFEREREREQvxR//yf/3f499EERERERERET0/GUwXYKIiIiIiIiIiEEGIiIiIiIiIsoIgwxERERERERElAkGGYiIiIiIiIgoEwwyEBEREREREVEmGGQgIiIiIiIiokwwyEBEREREREREmWCQgYiIiIiIiIgywSADEREREREREWWCQQYiIiIiIiIiygSDDERERERERESUCQYZiIiIiIiIiCgTDDIQERERERERUSYYZAil4bDbRr18X19v4LJ7gUPtnr7/d5b62i6g/u0Cl992oN7HcREREREREb1w6YIM5R2cdC9waf/3AJ2yqiHtr3uBy66BatyNNePBO47+443f4RUdXQYfiIiIiIiI6Ln5M/kmGg43J3G6MYZKI/sDimIerWOmcvCwO01BrbexjH3kR/Xwf6SryEd8TANIfW0PUHn79MsXERERERHRU5U8k6Gcw6s+/8Qziu/PIPBlQZzUFxIfQvx9ajjsXuByZRxQiti2PzfkNAErRT7seItG4mMtDCsRn8r7807HUOttXHa3UFKAwkrwv4m8tmnT/f2ZKfL1Cc1a0XDYNVCvt61MDetayxkmvm2TZnMEnmd5ByffdlC19uu9L+HXNvBc5HPVjODzh7gvJ/Ud6/wSZtEQERERERH9RpIHGRqr+HQElDaDO1tqvY3Fm3XkR8eQHx3D2vdJ/G13Ass7ONks4m53zPk8SWaCMr8V2PEM36eOd6NjyO+eA2YLa9bnedUe5l5A/dsWSrf7zrb5t6sw3D2iNHUttttoAfMfY3Uua+o+OhNLIYGJA1TejiE/uo+O7xOjMof86DqaJtBxrtGckzESeW0HUP3gvSfu9QHQWMXMqPvZ3m0Ry04ffByl4a9YOzJRWHmPq419dKAgVwZExssIvjjb7gMrcTrn4p5Mf1/37HNb7vgrRSziH/G5576EX1txPNJ52mXCPlddFdf0yAw8KmW+CFjb7p2NYzGj4BgREREREdFLkmpNBtEZHkN+F1j2dPgXUJpSPMGA7XkFynABAKAWJ6Gc7eNdSCq7Ko1OB418m0frAcGA6H1GKpcwrZxjTw3LrTfR1K39NK5w53SgASdLIjCrwApujK7jdGorowUe45yn1cn2BEr669yYInPCCDpI73kuTwCvXtsdbBPNz9a1O/vqnT6jzaKAcVE+uhe47C6hIF8/OXPAE4wpIKec44sUfKodnwNDOen6Sp83VjEzqqKW4HwdyghilBLr/Nxy27kx45UvIiIiIiKi30yKNRkkuoq8LkaelzXA0AHARHNjLtV6DUZlLlHn2JV+n+npeBe15gIAZ46/ZuCyvANVT9b573U/5+lcd6vjD7OFNStQUTWWUDjbd7IbqsYFFuN+sbRdjwdfk0JH+2wJyysXuFwB7GuZKjhBREREREREgTL4CcsCcs4SBAe4ulVQ0oLXBDBaP2BOvM/4ZyGj9wkA+HkNM2jUutHEqXn/qe/q66g1GvwOcHUrZwvIf9/nPAf9CUZdFVMNnGu1gNwQYN5Ykw/KO1iciPldP69hTiylyODo4MpzTxZQL4/D/N4cLEBT3sHikDRlZvShg1JEREREREQvX/Iggy/N/bK7BOyOOankNXUdTUiLLMpTBRqrmNk1rfUcslv4MXKEqfzsAAAgAElEQVSf1n6/nEmp+860gANU3u7jLmSth3R8ixZ2L7A99cPJDHCnH4jpA+JaeBcprH1uAc4xuZ/1Pc9MjncJ2LWnHxyg0jh3p2hsjuA0ZM2CHo1VzOyeSwtYxr22/nsi1syIt3ZHxLVtrOLLrffaydfWnqqzPa8A1noawdNHiIiIiIiIKMwf/8n/93+PfRBE9668g5PNEXyR1m+oGhfip0ZD1+QgIiIiIiKiJDKYLkH0DLwZgXfSim8qCBEREREREQ2MmQz026ga4tcxHFELUxIREREREVFiDDIQERERERERUSY4XYKIiIiIiIiIMsEgAxERERERERFlgkEGIiIiIiIiIsoEgwxERERERERElAkGGYiIiIiIiIgoEwwyEBEREREREVEmGGQgIiIiIiIiokwwyEBEREREREREmWCQgYiIiIiIiIgywSADEREREREREWWCQYbfiWbgsnuBQ83711XjApfdi8DP7G0uuxe4NPwfJtz3tx2o6b8hU1XjAif1hcTbXHYNVFPvVcNht416OfUX0EMp7+Ckm7yMvBwLqH97QmXVuh+X3YsHq0fUenuwOi+DMpSmnnp+FlD/FvDueRHEuYl3aMjzFFJOBi5/D2qQd9t91DVP/137ezzbT4n8LGZ37WO1C59Y+/dxpH8m+aw8X8mDDAEPy9MoABoOH7ABCtxDI0AzvA2RB+ro1NQx5EfX0TQDPtRV5EfHsHYU9GF81dlxdBqrMAD4K/ukHQe13k61nbz98lALnyoH4i8CXwBPrJOVCfu6Sy/E8g5OrD/LwSb5v7iNf+e+BNyT9PfMeq4THku4kA6NZmT0LHvLdtDxiuv8cGXLc+0DztH+3HusB6joPzC9mS6oFvydA2isYmZ0DPnd80SbBb6byjs4GfQ9IT03AHrr7j7ivTs0zE2c44tdT/WrN+WAsOdeB2yX4Dn01wu991R+RpOX66qxhdLtPt7p8vf1vgfFfgMaqk797a0r3P/EfRJl0n/P3PO5n079ASpvx5Af3Ucn428eRP97+pAGqWv8Zfu5vLP9z7b4u8PQ++GeZ297cIDOsxy8TXjtPGUoyXOTep+D3Wu1/hdKt/vIj44hPzqGGc+1v1+J2r/Pqh4frC0fz/N/Vtx76q3jPG2zoO+O3OfgQbPAtmho+Uvn5WQyaLN4dbSPJiZRehYvmWDmmYlcURQWtTiCu7PBOvceVsDAbcw9kPIOFifO0fbtt7M75lT4+bd2BdyHZmB76gfWrO3Wvk9iO+EL7u95E3tx9ycRwRgVtYTbPTWmqWAxoEIS5zeG/EYLJs6xZ13jOOWlalxge/hrcDAq9T1bQP3bEuCUk31g5YEakVanNllDRMNhdwvT39edcu2/dmq9jWWcP1iHo2pceK59XvUdkGZge8pEJ6iaaazi05GC5cQvmQWUpkzs7Z6jMPtcRmIHoeFwRUFzYw6VhvTXqcqQS62/R+HsuKe+Ca03rfrdflY6E++tZ8Xu6Lr/rR2ZwO1VrDrQqResIE+hLDUiyzs46crPqO8a9KMZWB5qYc1fLh0LqGtF3O3GqYd0vJPP78zuULh1ducMmLOKZHVW/PnRDVhOkhEN02Xse8rDg7cJ/FLVNaK+lTuOicvfI+l5tss7OOm+x9VGUDBKnGeuETwQpNb/ct85Gy1g/q+Y70gNh5uTON2w3/vxAz3iPeZe9z0sxezkpN9n1fC+W5Pe68KwAvMm+zdv33Zh0vbvM6zHU7XlY3oJz8pl+RprAQMkRmXOcz9F29vEVQMQ7z53n2tHQElz71n6c3GPq7ctquFwBU7bPz+6jubQ+4Ha3PcQZPBHtqIiN/Jn1sixli4ttjqr4LSlo/kdmC56K7veEdqwSJEcFdNw2DVQl47XqUStbbbnFWBiKSSSZF2HJCP0rxXg5hhXwyWoWEBp+BrtG/lf+K5tVPTTczwxUjZT8Y8cBT90anESOPo3g875Auplb0S4NKUAE7OxR0CqH4q9x/LzGsGhHOthj0rVtkZF66FTTuRrtISC/3yC7mfISGvVkL7bd7+TRDHvGl9xN1XKNNpcUwM6sAAGumfaR5TQwp79tdosClB8z7d1fWM3Tg9wdRv8id0AiZo+VDUucFgPKQ/aLApn++GdBTvApR4Hfx4ynSlcbx3jHa0VIwDhATWrc6z/i6uQPRiVr1IjJ6ZyCdO3x6jpx+h47rOoU6shU7BE+ZaflwQjmyH1eOcmJEgrNcw87wffc2feoE/daQfCvI2y0DIU690hvrc0BTQ/p+z9lXN45TRW/DQsz6f7bvW14rl2om5fT9lJ9dcNveyORRad4MKwAhwfA7MaAA1zOEZ78K8dSORURZldvnue9YTPivYRJeUce6FBnejnwf+chb137O9wzinGdonrGm0WBTMqQAWgaATv08pcC7v+3jaje2099b+0vbfd2O/6BDzbjVXMhHbsRPAs7BkwKnPuO6fRxKmpIPcm/JLYROftq7NPtTgJBeNOEC6cv/7QMDcBKDHaFOn3uYDcUPQxhbVF7Xu0PAEo81s9n/tHk2OXk5hT+AZq/z6LejxKgvZvYD323J8VK5AQM/Di7Z8coPLWPU+j9QOmMuJcw7TnAiCiLdrBlTnuBnu1jygpYeUvnuyDDNpHX2RZivBpBraHv0rRNPgi1wpKZeCTHUFBEcuxGtwa5oZ+oNkQNwJSZWenxq/Z32kCHadBqOFwcwRfpKghVuRCPo6SPQq40QLmP4rPrJEH72hJViMRHTRvRlDSSsjdNFH7ZUIZLkA8kN5I7t5t0R0RlqOfGy2Yns7OfaVsuiNHItIWNEKuYXne9KU6CYWVmA0sdwvkFBNXP8X3iojlPjpQkIuZ2pUbMnHaCrhP1sPrplcXkFOsz/qlaitFlOyovidCrOGw6x2Jd69/xP1sXOHOOh613raORxy7OPcF1MsKmhtjKcuejvZt3GdrUOnvmfwitKPBe0f28zCYV68XPCnv6mvF+Sxy+hCAwrwdXfbWUdXZcZg3uZCUQ3tENstMmANU3opj+Lu+4L447DpXm0XBvEbOCG5AVY0lvDr6p8+IhY72mT+wE00tTuLuWLe29b+Ix7Fcvrbq4/2eTkVh5T2urHK9dzYemHHTK7oeF+VFSrN/MwL7bqv1NhZv3Gdw7fukuJb2tvNLyDWkkYQP3ocmZ40m+Bs1oWUo7rtD+4jS7dfAexNVbzqN4c3wsuZvMPXnNhS3502pgyoChncoSR3IJCnvBeSU3hE+R9HAMoKCdgpKm1LDdGU89h4BHW3MoqrNAsc6OjemqAseSb+6BoCop+xRNLux2rctFUx9rQD2qKDW2wGPfB7KOzjZFFklUe+dquFmSrzTfcdvPZ9381sB7/xkdY2/o9RLQWnqurf9ZptYwtxx78iufPx2u2ZZ6kQW5kfwZaMFc2IJizfr2Duz3idYQP2bW3/lR9dxOhUwuhjxbA+sXMJ01DMlkUf27UxE91yi9iF1fO1R5d2WpwOU+T5xgIreAqwgQVDZCWuL2iP4e2eAeWSXbbdu9I4m7+MuZjmJN4UvXfv3edXj3nNxAy5R7V93mpz7mYnmhu9cn/uzkuh4RMZLUFkBrMBGQGaj2Db+uUS3RUVfcQ/WAEj5GmsDZm9nH2T4eQ1zYimwkFZnxz2jN5cr48BQzhMBdEc1xMk6jbeIkVu1/h4F+2XTaOK0z5QJp2BosyhgHMueSJvc+THR1K3jaVzhLnZn1j3+NKlDRuUYuZURtD2FTTTI5AJYOz7vuX6AhkMN+BQV3c+MNxK5Pa/0dACDU359aV+75ygkSYN/Y6dLJU3ztDq8/gqrcYU763xyN+cpRvmlkaGf1+7L1hpp2Qs8xqj72cGVKcpaASbuhktQPcd+gKtb0dBOu15H7XMLr8pZz52LkPqeuZV6/u1qQJDMalwkKO/O6PYb4O5MiRWNlplOx1xkRcgvGmV+BG2nXJtOepsa0hn1nkqa6UwHqLwVjfbLzUmc+l/SShG5Y7kBZTV6tbAOXK/QbIBAYnRFBJVEmfZOmZDqVKtTIUffTSnoUTs+jxdQiqjHjV/WsZdzuDozfR0Y0bhyR7cC6rAzd60Ao/UDpqe+HUdpXkH2rBH+Y39B6F9vuimx+8BK8Lzb5KNfUgN+F1j2vdsLU/bAgNUhi5tVVM7hlXkdEvhWUJoPCx6YngBr0nU6ap+vsVi+DqmXn5iJJVxujuCLb+QuTluqL6u+2XOmjEQ/D6KRux9RP4l30uLNurc+fjMCxdMZ0tEOaaAnqWsKw/2evT7tN/ndrKtWW00E8+Xnwz+CaDojjb4OQbmEaUUOgG2hpPhHF8Oe7SxoOIzolAYroP4t4J7F2p3hls2fSTZMuU+7U2/VbT1B/D5t0cjzCO0DIKScxJO2/fus6nGETJeIbP8GecHPSgyBWdY2zfAFhjwfJjqX6Laodzrd3m0R2wMtdp9hkOHul522YVcEx5gLSDH1FMYk83c885TkCLqdfr3kqdjtxqR4QRSxbX9262tYn3nnJj7mnL7CsGJdRx3vUkWPrEi6nu2cqDBq/S+U0HLn2vfMx4+Z8qsfx8ywEJ3v0orU6IpMJ0uoXEIO/6J9awWpQhvA981O6dcwN3yMvZsRlDRvg9x+CX3CXz1p57E0VvHldhKluOlVqaW/Z8YvE7BGi+xKPct5ldXZEbQ//8ArqxPs1GEDMOWXhBNw0rA8LzfeRUOmtJnivoXvGWZQupznJW8Fr96Il7e3zrRGIwZdtMma0uI0tFfGE01nSq1PPa4WR4DPx04A0S1Dvg5rooDVOfZCR2UHUC5hGjEaZ5H1po69o95R+qqxlHD0y/+1/6Jpehvh8nQH45eZvLMbyERzYx3NobhzvfuRMsEaq5jJeN7wvTnb7xlJt6VpS/W/P4M8DyaaG/fwPITo3GRV1jJkuu2hwPUu4j7bibmjxnGD1J0b08nUEm1iMSWh73uwcYU7JyPNaqe+GYESo72Uep8eorMsZ5b1b4uG0XC4Mi49S1lm+2bR/n3u9Xi42vG51AZZwiv/dI2X8KzEPiQDy2FZDJqByxW4GareDxOeS5+2qJURYQczauo6mma8aSFhkgcZfl7DVKRMgfIOFidMZ+TKJSqCPWmkqnNjorAyWFSkh31R5Ip9o+VMmah+8Kb3eV6YVtZF2hdi9IOYfE2GaGKuzKK8zkJ5HOb3pjuvqv4Xco2HC5IUhuV0RVF4PWKmOqn19yiYYrqLtHHAr4UcoPnddNM9Ie5vaApRDzdDIOjv5z6M4Kp1gNqxiekPs3gV6zsjeJ4VMXfbja1H38/ODZD7IFJ6jV/A9OxIYGqoUZkT02NSvBBqxyZK5cnUpxdPvHsW+GsE+jE6kKa3WHWNd7pL8ufM+GVCGf6IORyj1mjidGgWy31HxfqrHZ975qW66W3eVE43NdBXH6X6NRl3TYAZvYVXcv2qH6PjqavtlDr/AlL2NLLgjoob/OyvOjsupaS60x4CX1IhC2I55xV3FCOqHv95DXNoFsvD12g2dLRvJ7E8a99rKyNIi7k694ciINW3go53Gy28SrggadS7o/qhiLuIdQpswfWmTdTHnvtmPT9hjd5YvwjimaMpnm05U6U6630nRZKmhQVzs3Sexs9bPvwvWAGijvdMjcQAbSn9GB2l6JkS5Ip+HozWD5h910wIeB5+Xnu3C6zHhSR1jVH5GnEuaVnXQJoWFbuN0bjCXZ/jiftsJyIt2hc1OunPLjZaP2BCqn+t9To89bE1yu99J4lMFPc5722LDrTPmORMlr5t0TD2gIfVf1Hr7/tO+YhtoPav8yVPvx4PE9n+7T/l99k9K6nfD9bzE5DFoNbb4QGGVOcSpy0q95GkaeMpJQ8yNFYxs2u6I1WbRdxJi175F1FZhpRuWpnD3pmc1jr4zzMGzlOxKvtlzUoLl+cLyaO+jVXM7J6HzCeKQf8XTdhZEvf4U5NDOahyWnRQVoZmYHte8Z6L0yix52JJUSsnw8QuiNJoZtf3s15d30Jl1vfWPresqTEXuOy+x9WRnLYa1UnwpbZN/cBazJElozLnzheyylf8kRbRgAie86mgMHQtKnr9GHcT41Dsl5adTrcyDthZMXHKSWMVn45gXW//ird97ieAwoQiXn7W8cAZffUtcrQ5idM02Sv6v2hCQRYJ355yYl8jq5ykv2c63m38wPSmdJ7+FfztrA8l4a/KTIwDxzrEC1ZBYUJa7yLieYg+XNVKL5PKdaJ0UDFtJ84CWoJY18P5+T97hXbn2dbxzlNXB0yn6EvDXGAQOfzf+jsPnRtTWqdEiTweRXoePCl9Uc9gv3pcGcerG9Fgqh2bKEy4jbaauu6pw3vu9YS33AZOL5HeiWLbGGUo7N3RL/ASUW96F6vrnZokOktJR798dY1vjqZR+QfNoRjXKJAItEaPktid1vt7v3rSquUpCD3PfQdXJpz1e+JJ/+6V1dR16zqLBmP6tpSOd6Pye0csiBfrefC3/cL2Kf27k/pC3zajfK3i1zXB55LFwtbutbauT+Svn/iOZ8NdN6Bnbnvksy2XE7ssBJcTxbcuQfVDEQrC5sVHaKxiZhduGQodLQ2+RqdT3ro61nOfep+9P08rtyOi26LRx/PlzH0nbQ//iF4fxXNIUe3C9O3f51ePh5S9fu3fhrcuif8efF7Piqec2NM6PQuGi4BFbxaDHSwLrudTn0vf85TvS0CGSUJ//Cf/3/8NckxPXdUQc2icB8ZZhOh5/NTRs6UZoiJ7ammp5R2cbI7gywv4KUoS1Ho7UaDq6XIXA33I3/COotbbYj2MTOYgajjsvsdVSN3bU1f/hn67a/BU3xMhXk5d8/RkW9c8Pb/ds/07e2b12sMTbZ1cw7funtV5B5+VF+PPxz6A+2X97I38M5BvRqBkNYefwukq8k+xrdBYxadiG9vfdtDhC+CZE/PRCjjH3ugzv5eaISLdZ/vIP5UXq/NrFU/xQX6ZaurY7xX81FXszV5g29BgPOXOpfXLCorZYsfhPvwGdc1v92z/zp5q+/fJ6E3DV18rgPkDHQAGn5UX48VnMjiNA+cvTDSZxfDbqxoXmDtO/ksHRL+HBdS//QXoWdaVzGSgIPdR1uj54P0n+u3YAyuO8/hTEOjZePlBBiIiIiIiIiJ6EJn9hCURERERERER/d4YZCAiIiIiIiKiTDDIQERERERERESZYJCBiIiIiIiIiDLBIAMRERERERERZYJBBiIiIiIiIiLKBIMMRERERERERJQJBhmIiIiIiIiIKBMMMhARERERERFRJhhkICIiIiIiIqJMMMjwANR6G5eGltG3LaD+7QKX33agxt2kvIOTroFqRkdAREREREREFCRxkEGtt3Hp6bBand4YnWix7YX7X5KO8qMQ53aYVXygj6pxgZP6gvcvyzs4iXudNOMBr6mGw67veDUDl9026uWAcqIZuOy61zI88KLh0PoOz/fK5xV5ngHbx1A1LrxlM7Og0H1Jd55ERERERET3KXGQwajMYe9sHMtWJ0yt/4USWlhT9XhfcLaP/OgY8qPraKKIv/2daurjAJW3Y8i/XYXxqMeh491GC5j/y+roajhcGUdndw6VhvgXnTNgzuqrV2fFn58y82jdKpv76EwsPVhwiYiIiIiI6KVINV2ipopO2Ilh4O95oKmn6fAe4OoWUIYL7l+Vd3AijSZ7O3li5NwdbXZHcf0ZAP4/ezMofNMGrBF2+z97O7HNFkoKUFjp3ae9n7CsDHmf2/NKrCvSuTGDP7i9EtdXPlbPSLt1bVbGAaWI7ZDR+Jx0TD0daF+mQSyNVXw6AkqbBg6NJRTO9vHOijUVhhXg+BiY1QBomMMx2gm+Olj0eYr7sYQCFJQ2/fdbw2HXQDX0Gso6uDKBV69jliFfufXuUy4zvdkHUWXIm13hLe/h50lERERERPR4Uq7JoOPd7jmUiXHg6B9n5DoZDXMTQOdYd/58uDmCL6NjzmgyVuTO2hKw637Wib0bA9vDX63txpDfhZOFASygXlbQ3BhzPp+pHAAQGRv50XU0TaDj7NcdpVfrbSzerDvbrX2fdLIy1Hob21M/sGZ/dhQSPAgggi5SZ/TNCJwQha6GfJ+Od6NjyO+eA2bL2W/ek10yjpJ9HXbPUShnM63CqPyDpjmOwsQ59nqyWXS0MYuqNgsc6+jcmJ6Oezi582wFFWKcZ021y4Yp3VMVNekaLJevre320Zl4HzzdoFzCtGLitCXKQmQZKu/gZHMSp/b+NlqIe7ejyhDKO1gcks5RKnv9z5OIiIiIiOhx/Jl2Q/W16PqKTvGB9IkICDj5CWYLa3Jq/8QSLrtLAETn/Z0TY5hFAeModC+w7HyXiasygDezKJgtrMWckSGrzo4DE+POPsXXXkMFYOAAV7dbWN68wElx3Qkw9LeA0pQCRdnCZXfL/eszcdalKQWdRnh2h1pve7Ib7Otg/DKxPQygnMPVmYnp4gLwK8nZRpGCAD+vYSojKADuMeoq8imuL1BATgEABbkyAF/Aqfb5Gica8OktgHrc7zTR3HA71dAMXGay9oApZd3oaJ8tYe6N+6kyb99P7/6jyhCKk1DOvqYItEWVoQOgcYW7zSVsd9soydeCiIiIiIjoCUsXZCjviGkSuy1MryzhUNPdYAF0vBuN6K2e7SOv6qKjvdJG/afUgbI+6zHg3HhPMMOnpo6hBnd6ROgx9PB1hB39R+qNylzk9BK1OAJ8PsadVoL6CzBvYudtPLiqNU1iD0tY1nagNlZhYAG5IRNXPwE0VjFjZ3886pH2Zx6JQFPVuMDypoFqw80OCCtDg51TWBkC3OfIWlh1M7ocExERERERPQUppkssoK4VxTQJfRWfjkwUVpLPBzcqX9GBIkbrATG6HrbY3s9rmMokSmVr/9+kTAmLs7aDZmB5wv37zk284zMqcyLVfSgndRzFuhG9Kf4HuLpVUNKCphyIbQqzmnM8cddkwM9rmEOzWB6+RrOho307ieXZmNva21sZComlWZNBM7BsTZOoqfvoKA+0kGfkeXZwZSrIvQn80FXeweLEOdoBnfba5xZMjDuLVkaVIeOXCUzMutN6Novw3jH3WKqGXG6jypBMLPS5duSfahLzPImIiIiIiB5Q4iBD1dhCCS18ctYuEHPylxP/dKK1rsP8R9FBa6xiZvdcWmRRWgjPWWDwApfdLUx/b3nWZKh9bsGcWBLblK+xJ61Z4PwaRsDijj2LSW5O4tS3iGXtcwuY3+pZfK+mil/H2Ja2tzvo9sKY9vGs7Z7HvyzKOF7dNGEAqB2bKEwouPslrrW9+OD2vGJNO/EtXthYxRf5XO/zZxjLOzhZGUdn1x7tt+/nVmSgwrPQp30OYYtRhok8zwNUGnI5koMD0loPm5M43QhZx6BhBc+sdSsiy5CuSp8tAUfymgw69o5M51gWb/bRlBZsiCpD/gVJt6d+OM9c//MkIiIiIiJ6HH/8J//f/z32QSSn4bD7Hlecq06xPVCZKe/gZHMEX7gQIxERERER/YZS/roEEREREREREZEXgwxERERERERElIlnOl2CiIiIiIiIiJ4aZjIQERERERERUSYYZCAiIiIiIiKiTDDIQERERERERESZYJCBiIiIiIiIiDLBIAMRERERERERZYJBBiIiIiIiIiLKBIMMRERERERERJQJBhmIiIiIiIiIKBMMMhARERERERFRJhhkICIiIiIiIqJMvIggQ9W4wEl94bEPI7aqcYHLbztQoeGwG//YH+88F1D/Zh9zNtR6G5ddA1X7uw0to2/+PfaZtgx5tu8aqGZyNPdPHK/13wPcN5eGw24b9fLg3zToPfu99yl9l2bgMqN78rtS623Pc8RyQkRERFl6EUGG56ZzY3r+fPfrwPNnT4eqe4HDh+xTPRDjl/camDedR9+nCAiEBFM0w7ofAR1z57Pez+/rPMPLkL/Bnn2A6MFpBpaHWlgbHUN+dAx5VXc+8neW4rGuifSMPcT16ffcP/w+3esQ1MGLeh6igj73c54dXHm+1sRVw3ucbj0pzituvZmuDIXtuz9//f4Uns0nVzY9dao/UCDqOPtzb9kNLydERET0cBhkeCy3VzB6GkSicezpUI2O4Z0e9iUP5QCVt2PIv12FkeXXmtfo4ABXt1l+abp9Vo0LbA9/xdqR2bOJWm/jsnyNtd3zgC/UcLgC7Fn3au9sHMv+Dst9nWdgGQJgnuNuuCQ6LuUScrfn8P+TmjqG/KiKWsaHdB/U14p1rtnq7LrPWOZlO0zYPXvwfWo47G4h11hHM+BYop4HaAaWsW9du310JpZ6O9n3dJ53vw6An9c95RmmiVflh+6sL6A0ZWJv9xyF2WRBCvNo3bp+62iiiOWnEEh+KmWzvIOTFQXNDevZ3PiB6U07eLuA+rclvJKu3+nUVk/5Cy0nRERE9CDSBRnKOzjpho9keUZq/KM0vm2TpEh6R4D8I8old3Qj7shQeQcn8vf4/uyM5IUeqzWiknAUzKjMWaOxovPuBBHKJUwr59iL7PCEnGd5ByffdlCVjtlzvJ6RIXfkTa23cVLfEd8pbe9sK2/nO0//CKD856pxgcO6da8Nzbl3TmNQV52OXU0dw0zFP3IWdG3F33kalP57GCVinzXVO0IuMypzEZ1QHe+kznrt+BwYyrn3pe95phNehnJ4hWu0b0ZQKgNqcQRXx9fuhvLzF/ic+Eb5pX9TNS5wqMmjiPJ1D9/O3jZ0ZDKibF52L7A9rwATS95trfPwfpZtyrX4ziUUoq6P7zp46wxfVkvYPfNdh97yHXC9YtZx4fvU8S4igBn1PEBXpc90tM+AV6/d6973PFORvquxihl/gOz2K77cTqIUlBof9s6JVYYiMoHKJUzfHqOmH6MzMTvA1CMTVz+lY42ox6PeSZ46N+AZlLfdnlc8R/CkyuabEShnX1GxMxAaTZyaCnJlACggp5zji1OPHqD53ZTKX59yQkRERPGNIGoAAAeWSURBVA8iVZCh+qGIO3kU0Je+vHiz7ny29n0Sf8uNuk3vtnE7XVXDP8LvbTwo85O42sh2ZMiozLnnOLqPu/mP9zuH/c0IFPMaUQn1keepFLGIf6zRnxZgH69m4FIabc9vtPBqxW0ciu/cR0cpYtkavVSGra6Vror7GDSi2UdhfgRfNlowJ5aweLOOPV9nJDkde0emZ9RQLU5COTsWZcHXWQ1Otb1f1dlxmN+bDzMqHqHTukauqKE0fI2mfoU7ZUR0lhurmBkdQz4wK2MB9W9bKN3uh47wF1Zm0ZayNhbrC85209/d537vtohtO0BU3sGi59mdczsQEWXTfv7WjkzgbN+7rXUe3s+SBXEKK0FBEQ2H3SVg133u5eexasjXZx8dmGhuqE752x7+6l67XfRmtSTVWMWXMwXTRakzKZWxntT7B0+/1zA3YeK0df/p9f3Ujk2UPviud3kHJ5uTON2Q63Fr5HvAMqQWJ3F3rEMEWsYxl+BWK/Nb1v3awvT3f9znAQivx9H/nVSYt8/V+35Q621sT/1wnsE09XmP+yqbP69hykEb7SNKioLcG0BMh5CvtYblecV9XxEREdGTkCrI0LkxRQO9pwG9gNKUIjWgxIiJ3QAQHcL90JEt/yjNodSQmJsw0dTDR/jNI7uhJtLS3c6sf+QxwWJ3nk7rEgqwR1NsYjQwdMQvIfW10vffhJ8nAEgjPNIojvpagXn0rxuUsUeG3lh/dkaNTDQ/Zzc3w92nPPIUV/C1NSpfpVHDBZSm4B6zFRDx/jfnbcDfI7XexvJQC58yylYYSGMV7eEl5I4TTAOwM2kiyrNcjtzMDP/ooi+jo3GFO6WI7YCAT9+yeY8Cp0tosyiYLezFfgzcY63OjntGxC9Xxr1ZLf1Y5ddfP9Y+t4CpkhMEmZtwr7WY9uL776Gmfjip6/882DMWSf8XzaH33jLmHxUPyLyIFjZVTMPyPJwMhNqxb8qEL+Dpz7Axfen+3s+D6/He7+19JwW/H8R7udMYoFw8ZNlsrOLTkYJl+zxnr9E07WyPA1T0Fl45AcJZXB2ZD7KmDxEREcX3Z5qNjMqc1SAXDR6YLaw5jQcTzY10HTvnezN1gMrbNJ0+DYcr4+js2g0rDYfd9xkfm5fxy8T2vBhxfuyR8KdLR/vsQoxk/SxhGj/wyTMqPu779+nLYxLOSOGDdfBCvBmBcnsMA4Chjj3mkUh0vBvV4QT8NiE9V89L7fgcyytLuOwuARCdxRnpPO7lvBpNnGp/oVQGjDezKJwd4531UdW4wPKE79976uP74mavZDUFaHAHqDQ+4qRYwOl970qbRQEKCpuiPNuqgAgI6CryscrBAZrf/0JpuACg33V8+HdSX/dUNr1tAQ2H3RG0nekTq5iR6vOqcYHc8VMpg0RERAQMuvCjroqUYTsVGwe4ulVQ0oJTIo3WD5gT71Okr+tonym9qbCZsEeCFlDXinByCco5vJLmyqr19+hNyEy3JkMo/V80zYCFAwdk/DKhyGm12keUlHO0s+gM2SO15R38Pd8/EyO+8LnQtc8tvJrVRLqyPDr3SJkMVeNigACD5qyH8dgrzIssAnsKRBIihXlR/kWLctC0ETEqvHbkzqEetGwav8xk2QL9/LyGqdhz+8VIvfvcL6Belhak86XWiwyvAX4W1FojoHddiQNUGiamiwuoziqebKPHyWQQi0amDjBYwel7+ZlE/Rh38+8xbf/557X3nVPewaJvekd0GQquh6qz41I2gjt9KMmUCfv7S1NKvJH4WO+kICKrwcm00IyeNRn67/uxyqadLfNv4NoKdvZY/MwjIiIieggpggz+6QdLwK608J0q5oJuB017aKxiZtdEaTP5wo81dR3NoaV00x7CWHNKxfFsIdeQ5l97PrvA9vCPwFXYs3WAylv/eWbwE5a6ijU5/XRFceeR9xG4+J4VBDEqX9FRrHu9OYIvgfP807J+jUEJWMyt0cTp0BK2p35k1rj0nKd9TobbKHfS3zEurqPd6SjvYHEC7jaJ75m1sroTqLsvVjBNPhf7mJ0O1AEqb8Wc9WTz+/3biXULnA6oL3V8e+qHO6VkgLIptv/XU98k6bgGrsnQWMWnI0h1gvzrC6JDJddf8j6Nypz4dZGINPlIjSvcAVCc9HP5PI9xN7+FZXzNKGhm1+NbKCnuGgGBi276nge7cytPi0tUH1ur/t/PPHode0eAYveh/e+czSLudn2Bx8RlKHgdis6NiULMX7jwrskQM1gzwDuppopfAbnsXkT8Uk7Uvh+jbNrPoDeY51nAcvjrA04PIiIiorj++E/+v/977IMgCvJkpiDcs9/lPJ8/MUUg15CmRDgLV2axiv1TnIJwH36X83xJeM+IiIgovlRrMhDdL7HCfwHn2Bt9wR1v69dWlAeZQ0+DKyDnyzJXXyuA+SPyF2FisdcTOdtH/gV34tR6G9vziljL4gWf54vym5RNIiIiyg4zGYiI4upZXPQ8oywGIiIiIqKXgUEGIiIiIiIiIsrEYL8uQURERERERERkYZCBiIiIiIiIiDLx58z/TT32MRARERERERHRC/DH+Pg412QgIiIiIiIiooH9P/uJEzRGPdqeAAAAAElFTkSuQmCC;" vertex="1" parent="1">
                    <mxGeometry x="200" y="-264.56" width="779" height="240.61" as="geometry"/>
                </mxCell>
                <mxCell id="37" value="" style="shape=image;verticalLabelPosition=bottom;labelBackgroundColor=default;verticalAlign=top;aspect=fixed;imageAspect=0;image=data:image/png,iVBORw0KGgoAAAANSUhEUgAAAagAAACFCAYAAAAO92ycAAAgAElEQVR4nO3df1AU9/348aedMGmuBqEexGAOkYKE+NFMOC1GdEbqyClK0SQzzDemqU7GmxpHkpqkIt9Gg8kgfpPYRGucIc0Xa2NmmPnGHzGip03xM8YEqmeraI1iUbiAFrgI6GAc2o/fP+52b+9u77xDgTV5PWYcudu93b29u33t6/V+7d2wtLS0m2gkJibS3t6OCC0xMRFA9tMtyHspMrKfIiP7Kbzv4v75wVBvgBBCCKFHApQQQghDGjZn3vybt55NCCGEGFz3tF9yDfU2CCGEEEGkxCeEEMKQ7hnqDbjbdXd343K5uHHjxlBvSlTuvfdeLBYLI0aMGOpNEUIIXZJB3aa7MTgB3LhxA5dLyrtCCOOSAHWb7sbgpLibt10I8d0nAUoIIYQhSYASQghhSBKghBBCGJIEKCGEEIYkAUoIIYQhSYASQghhSBKghIiS2Wxm8eLFmM3mod4UIb7T7qpvkjCbzRQUFLBnzx46OzspKirCYrEEzXf9+nWqq6vp7OwEID09nezsbHbs2EFvb2/Q7cFmt9tZvnw5K1as4ODBgxE/Zt68efz85z9Xb//iF79g165d/OpXv+LNN9+ksrJywLY5PT2d/Px8YmJi1PsuX75MTEwMI0eO1H1MbW0tPT096r7OzMwkLS2N6upq0tPTyc3NZceOHerrNJSKioo4f/48TqfzlvN2dnbS1tbGzJkzqa6uHoSt8wn8DNhsNjo7O3E6ndhsNnX/6u1T7XM0mUwUFRUFvXa1tbV++0B53S9fvkxXVxcTJkwIWq7L5Qq5H4bqs5aens6ECRPYsWNH0LTAfRitaN4r4vbcVQEqUKQHhytXrgDw/PPPqwfNofLoo49it9t54IEH2L59u9+0mpoaFi1a5DfvBx98QHJysnpfe3s7N27c4JNPPgHgz3/+MydPnmTDhg0AAxakGhsbeffddwHPB/yJJ56gvr6exsZGIPSBKD09XXd5WVlZxMbG+j1fCD5ADgYlEzpz5ozudJvNpntgBnj55Zf9bjc0NOBwOO7sBmqMGTOG3t5e9cAaFxen/u1wOHA6nRQVFVFXVxd2P/b29lJVVeV3X1FRkd/fFouF69evs337djUY6gWwUPsGPO+brKwspk+fPqD7RW+9qampFBUVRXycMJvNFBUVcd9996n3DcX7cTAon+Ha2lr1M6xIT08nLy+PAwcOBE0bbFEFqHHjxpGUlMShQ4d0p8+YMYO2tjbOnTt3RzZOa9myZeobZ9GiRWHP2rRsNhtxcXF8+OGHWK1WJk6cyNGjR+/49kVCCTh79uyhrKxMvX/NmjUsXLgwKGCdOHGCSZMmAcEZ1KxZs9SD/8GDB8MeJO4Uq9XKlClTAILevLGxsXR0dER0lmy1WjGZTFy+fJmOjo5BO3BZrVZyc3MBcLvdHD16lJkzZ6pZ4fPPP6/O63a7qa6uVp/PQAeeSKWlpXH+/HkATCYTAM3Nzer0zs5ONm/erN4OzJQsFgu5ubm3fD7V1dVqphGNUFUNi8US9B4d6H3qcDh44oknSE9Pj/hA29vbq2ag2oA9lAJPkAZ6vzU2Ng55YFJEFaDuv/9+3nrrLcrKytizZ4/ftIKCAtasWcPLL788IAFq8+bN/SoLtba2kpaWxgsvvEBNTQ1VVVUhz+oHkhKcTp065Rec7HY7zzzzDG+++WZQuW/r1q3k5+f73Rf4k87ax9y4cUP34HCnKGeSEydOpLW1FQj+8Ch/hzqBiImJITMzk88//5zW1laKiop4+eWXB+1M1eVycfz4cbKzs9XbgWUgJRsMJ7DMU1RURFdX14AeOEwmEyaTidzcXDXQAkFZqKKvr099z+ttcyiBmcSiRYtwu910dHQErRsI+k5HI2UdeiW+aDz44IO88MILfqVt8ATcadOmqVWFgaCcXAC899576snSvHnzMJvNhiiND7SoApTT6aSsrIw1a9YAqEFKCU5lZWUhs6s7ITU1ldjYWIqKijh9+rSaXehRzjJOnTrFqVOnsFqtTJs2jdbWVmJjY4PecAPtzTffpK2tjalTpwYFGYA33niDN954A/AE47KyMvXA8+ijj/L73/+eP/3pT2oJb9asWaxbt45Vq1ZFPI51O7TZB3iyDeWgFXhGZ7VaSUtLA/zPxpxOZ9CBq6qqyu+DOBQHNu1zu379OnV1dbrzaQ/wXV1dpKWlqeM5JpNJzWwGSmBZzmq1Yjab+x0U9bKd8+fPq1mY3gnhp59+2u9law10FrB48WJGjhzJ9evXcTgc2Gw2v9Id+Ad2t9ut+zm6dOlS0HMerDGo6dOnqxmdlnZ7tCeIygmJNvvRvg6BY/NaRUVFmM1mqquriY+P93vdtePP4ZYxEKIeg1KCkhKklL/1sqo7yWQyERMTg9vtBjw/F/HWW2+p0wLHRALpHRwHU15eHrNmzeKVV17hlVde4cSJE7rzHThwQP3bbrfz6quvcu+99wL+Qay2tpZvvvkG8ASrDRs2sGnTpgEbg1L2nxJ8zp8/T1paGn19fYDnNSgoKOCzzz4Leqxeg0Ugl8s1pK+Py+Xis88+C1vS0galzs5OkpKSMJlMjB49mpiYGL9S22BIS0vTLZ2BL4MN3PdKic/tdtPX1+eX7QSWtFJTU7nvvvuYOXMmR44cobCwMOggD/oHxurqakwmEz/72c/4y1/+Qm9vr5qZnT9/fsDLpVVVVWqJsqury6/sGapJwmw2YzKZ/ALX+fPnh6QpwmQykZSUxMmTJ0POo3wWt27dqgaS3Nxcrly5oo4ZmkwmNfuyWq0UFBQEBTxlvqqqKnp7e4mPj1enmc1mcnNz1ddXu4zBaHrpV5NEYJAa6OAEMHr0aPXvw4cPq+MY2p0UGxuL3W5XB/7CDW6D/5gDhO9GGgiPPvoob775pm55D3wND8uXL2ft2rUUFxf7ZVGffPIJY8eOZerUqTidzgHt4gtkNpvp6uqKeH632x2yk0ubcRlZU1MT2dnZmEwmenp6iImJwWQyERsbS3d396CWXJQy9VdffaUGAPCVhZRsTtvcouxn5T0eGJC0732TyURcXBz//ve/MZvNjB8/Xj3IR9MFd+nSJZYsWcL169eJiYkZ1LPv/tAbg1JOXJqbmwd12/v6+kI2dJlMJiZOnEhdXZ26TUpDypgxYwBPQ01tba363jhz5gyZmZmMHj1abRzLyMhgzJgxIQOO1Wqlu7tbPflobm5m4sSJQcfegXLXdPFNmDCB5uZmEhIS6Orqorq6Wv3AKcGxp6eH5uZmUlNTaWxsxOFw6J6pKY0Tg90i3B9PPfUUDzzwgHpwULKozZs388033zBz5kweeeQRVqxYMajbpexXm80G+MZHIhF4oLwbdHZ2quNu2g94fHy8X+PCYMnKylLXmZmZqZ7dZ2ZmAv4didqsNxxtFjxmzBj6+vro7e3l4MGD5OTkRDTu0dfXx4MPPhjU3ahkcNrsxEhjVeF0dnZy8uTJQb+sICYmhtjY2JDT9QJYV1cXZrOZ5uZm+vr61PcpeIJvX18fsbGxXLlyhZiYGB5++GFqa2vDvq4Wi8Xv9ezr6yM+Pn5QgnW/ApR2zAkIGpMaCN98840avcFzFme1WqmtrfWbr6mpidzc3JAfpvT0dB5++GFiYmKw2WxD2pmVmJjIj3/847Dz5OXlAfrjUGvWrGHZsmVs3rx5UMahwomPj1cPaLdiNpuxWCxYrVbDHKAsFguLFi3i+vXrQdN+9KMf0dTU5PcBb21tpa+vj9GjR2MymQa1vJeenk5MTAxnzpyht7dXPdPv6elhypQpHDhwIOh1ULJd5WCj92OVyknGfffdR2ZmJmfOnGHixIl8++237NmzJ+i6KSXYKB2PyjIaGhr8xkkCS/BKi/NQXu4RrcEeIujt7aWtrU0tKevRC2BxcXHqiUhMTIxfIFGGSZT93tfXx+nTp5kyZQo9PT0hh0eGsoM16gClDU7agDTQQerQoUN+V+5rU0/tmbs2zQ0MUDabjYcfflitpxYVFandfYPRVnnw4EG/QLJw4UKSk5PZvn07f//738nLy1MDkp777rvPL4PKycnhxo0bXLp0SQ1g06dPH/DnoeVwOPxamZX6tPZDpW2USE9PJyEhgcuXL6vTteNbtzPoHwmLxYLFYlHHMhXa8q62y9NsNjNixAj1TFQ7DlVVVYXVavW7LmmgmUwmsrOzqa+vV4NQdXU1RUVFjBo1Sve9bDabSUtLU39FWXmeSnOItvnF5XLhdrv5+uuv/U4ItQ0a4cZw+vr61EwzlJkzZ9Lc3DyorcyRvrf0xqCGinJNW+C1XPPmzaOuro62tjamTJmilh7T09MZMWKEeru7u1ttDOvt7SUzM5OYmBhaW1vVY2ZraytXr14lPz9f973T1NREXl4eTU1NQ9J6HlWAslqtusFJOyZ19erVAe3kA09tdcyYMX4tpNp0VhnAVw6SygfR7Xbz/vvv+32wtVfKD1b6rmQ+LS0tzJo1ixMnTrB161ba29vp6upi2bJlHDx4MKhJ4saNG/z2t7+lsrJSbab4wx/+wFNPPcWFCxd0z/4HmrL/vvrqK6qqqrDZbLpBXxkgV2r8es0Ig9E6G9hmDuHPjgMDUOABbrDLewUFBXR0dKgnZsqJQUNDA8ePH1dfC2U7zWYzY8aMobu7m0mTJvllTuGed+AJYSSsVitdXV23zKIHs0ymBBxtlheOka6D6uzspKqqSr0UQ6GU5JTXWAmogR12yomLMtauvbZPe1LvdDoxm80UFhYGfZFBY2MjsbGxFBYWqvcN5lj9MKvVejPSmYfyQl0IPnPTdigFXlgJvsAUyQ7t73Uskab92mualGxJj7Zsp71eSlvie+qpp2hra1PfmMqyA7+JIhJWqzWi+bT7uqGhgcOHD1NUVITJZAoa+FZKOF988QWTJ09W23218wW2rUP4NtiBEPh1ONrn6HK52LNnj1qaSk1Njehi6IH88CpjSUogAnTPepXmoOvXr/Pll1+SkpLCjh07dL8pIZC2I0/7ebNarWGff1tbG//5z3/47LPP/L5iLNznc6CFum6yP191pG24Guz36fdZVAFKBDPKGEp/RRqghBBisMm3mQshhDAkCVBCCCEMSQKUEEIIQ5IAJYQQwpAkQAkhhDAkCVBCCCEMSQLUbVIuor0b3c3bLoT47rtrvizWiC6PLeDGrA+HejP67cbN/6H77xsY0fn3od4UIYQIIhnU99iwod4AIYQIQ75JQgghhCHd43Z38T83bzJsGHATJFoJIYQwgnsYBj8Y9gNu3rwJw6TsI4QQwhh+cNObMg0b5vknhBBCGME9w9So5Pl/2DAp8gkhhBh69wCe8p4QQghhIPcADJPanhBCCIOR66CEEEIYkgQoIYQQhiQBSgghhCFJgBJCCGFIEqCEEEIY0pB+m3nygpUsnQzHKtfz8UWdGVLmU2pP5HBpJYfV21bu73ayZf0uWu7w9ky3v05+yrWA7clhaflskiNap4UnV9qZNMJFjbLNEa0TIHC9GinzKS2CD6vhGbsVjlZS3j6HdeNPs6qyxbNOBmaf3HnFbKufxLHsZ9kYYg7b+hrKZoyMYFln+ci7nOKt9UxyZvPspsgef+5Dz7yGNKeCvcthY34JDt0ZbFTUrCWiXXRmO1MWhdrTg2j5NuqsxwK2pZht9QtB57Uo3lrP05nae9wcOtTJjBkZwcs2ynMUd9ygBShPMBquO22S/XUm+d3jOVgffSyD+xnO9AUWDu90MT3Pyv3A1XPOKA7EStCAq0crKd/p0p8tZT7TUwCGa7bHxbGj8SQDjLCytNzqt326waQf2wWegNa8YCXr7MNp2fsqW4745kx+LIP7Rwxn7mNO5R6enGYB2klOSSBjBHCxw3jBafk26p7ROaAA4+rreTrgPveh1cxd6cCxMj/gwGyjomYhbfmhg9rGRdvZVl/PNrLZrlmWsh17H9ruu20g4YJpWX09ZQH3eQKrg5L8gOcyp4K9RW3MNeSB2kbFHDOHNm30bOdrufg942fqqXvG+7c32GxclM1GPPtn4df5oU8mlm9jW8h3hbjbDUsZmxbRVbo//OEPSRw1KuT07q4uuru6Iltrjp11cy0BC9DLAHwZybGj8UwKEeA8vEFjtM6yw/AELXxZyOeJLJ1r8d6f7MmeLu6nhtnkxwdso5LR3XIt2oxKG5i0z9vC9AVzmD7Z4l2eNghaeHLlHPgcMuZa4Oh+zo6bBtXrOfqYTuC/uJ9VlUcwnmK21cxm5MhO3Gfg2CL9gBN5BuXm0Gv5lOzz3vRmHo6Gidh4l428oL8cI59xz6lg7/KJQCfu9ja2L9LLoqLIoNy1rNHLxOZUsPe1JByBmaxfpuPJcMZpp/vtu1tnw8oy1ROEcNlhUJZlo6LmBdjke42Lt9aQVB36tvhuiTiDmlf4BOMefjjk9HNffcX/q/7olstRM6mL+9nSMc1b4vucRPtslq4kIEi5+PhzF5PGQ+Lk4YTKXHxlMp/ALCSINkjmzPGW5Tzr3pK4kqXjrExfkEEyLmoqj3A4JYHpditzc3YFLdeXmQWX+IK3zcXRc9d8wdYvM9MazqS8HD6uPMJ0uzegzfVOmjzbk+HlzYf44WqQY8FKlk6+Qo0Rg9PybdQ9Ax9l72dS/SSOLTrGpPp6tumUd/wzqAgOgpqD3tx9ngBn807yy6SU7dDb3QZgW19D2YSTrNl0kuLlsL0aiutryH0t8AAckEHpls/uFF8ZVQmM25ZvjKI8aqNiDjjyHRRvrcfGWRiZoZsdAnDmmO/v5QuZwUnW7PMtKymxkzb1djGTMjs5JsHpOyviAPWvy5fCBqh/Xb50iyV4x3JAPcNPXjDNO+0IW0phaflslpZbvcFFM3+3k72l+5i80h5QDvQErHYArtB+ERgd6TPSOFLJqiOoGRFHK1m13lMKPLzTf9bk8TlwxD8A3D/ZzrrJ2nss5Je/Tn6I1bXsXM8q73KVgB0uoB6ufJXDmmxNDYg5dtbNBbo9841JGA5cifhpDwqlpHNmO1OyvWflAGzk2eyNFG+tp65ecxDUKwGhXxL08GRRGxtqKKupgPwSv6kjZ6ylrn6t/0O0B0Ej8JZC3YdWMyXfk2UUA+wrYe4+GxU19dQt92VC+hlmBnX1C/WXHyqLipqD2oYXKH7IBpEubU4uE0ZmMKO+3pN9VSexd3lbBNtjo2JOBu6G7Zr5MkiijVp12UmMPHNMCnzfYRGX+ACWvbiCESPigu7v7u5i8zsbwjwyoKwVgaDS23qnJ0Bd8ZavcuysmxvvCVB5r5OfEtiYoAlwQcJlYlGUE4PGoG7dJKGX7YXTsvdVtuDJ9lqOOomfrFdS9KwP++vkY5zyXvHWep5OPMs5MhjXjwH9cOMPtvU1FPOuX3akNEpsf8gzbSMvBM0zsNlGtLyluvaznMvM8C+lheCfEYYbmwsuj/mJuMSnzV6L2VY/mzY1o4uwxIeNivUZlKz0jkEtT8Id6j3hDaYEBuEz25myiOCSo5ehm15Ev0XVJPHprp0s/OVi3fvDc/Hx+lf52FtWC5UtKAFCO14TJGU268pne29cC7POI2wp1axEKemF6sbLsauBo12T4fjW681gbnN853DlqxzWBM+rRysp/5tV7U6sOZdBvrcE6lmPhSdXxnOscj+J9tkB68/hSft4MlIs/FdODqTA1aPGaZXwDHR7DqKhD2LFbKtJYrvfGbV27EMzgB7AfSh4fQC29b77jJ1BKaW6YrbVhMkq9BogtA0o4bLL297GDJ5Wl3+Wj7Lzo85YbOtfYMaMkdTVL+TcISX/OctH2ceYVJPE9vw2Fmr+Bxu5Ezo5dwbaqvMpoYK9RaBk3QFL9wTi87f1JIVBRRWgmi9e4GhdHZOnTFHvO1pXR/PFC1GtNHnu657SVH9c9M+gAt0yQwkc87m4n1WVsDSgsWK6/XWmd4Tp+gu7ruASn19GqMkk759sZ904J1tKX/UEzRQLzTtdjLG/zrry2Vw9upuzDGeS3RuUNQH66tFKyithabmF+GnTuJ9rHPtb6O0dOtqDnA53re9vdawqm2Oa1vFAngxKy3c2zwMjcTsdODY5vAf8SM/0h9DI3NDjMgBntqt/Fm+t52m2MyX7WJjn5T1w3zal/OrJ9mzrbWyMqhvSRu6Ekb7sePk26h5ooyExKcxjPIG7eGsN4eYS331Rt5kf/u+/MGZsCokPjKL9X5c5/N9/iXql4TOoqBfnv32VrwaX1m51/VSO3deplwJgobnDRf5kO6WED1LB3XYBJT5lXAtQM0m97St/XS3deQKP9nncS2L5bOK9Y0/KuNWVdhfg4tTF2eSneLKu22t9HyjagfZAngxKtelZpmxSpsC4ZyLMoOYkMdLdxlls5Ca6aTsPvhKYN2MycLt52HGiOUoG4aG0YHv2ULjgHyaD2teG+7WJJM0BNCVA20Nm3P86q/MAByWbctn72kKKcUQR6P0bOjzLPwaJuTxd78kAy+rx/a89WfGTREVNfXDn4pnaO5AlCqOKOkB9++23fLj1//LAqAf51+VLfPvtt1GvNPoMKpG59jmePyMu8UXB2yQxXclScNGys5JV7XbWzZ3D9J3hLrodrnMdl04GpZ0c2GbfrcmgvEFuXbkm8OWM94ylTbZTipMrkz2de3u9Qb654xqkDIeUaTyZcsSAQSqKDCpAqLGFwAzKNmMiNLyLY/lCyrydX7b1LzCh4V1KyPA0Zmx6FsfWGirmOIzXlhxFBuUvVPC/VQa1kWNnFvJ0UTHs8z56TgXFM6DhtRABfF8JG2fUULa1mI1RjuH5Lrx1c+i1szAhXIlPTxsl+dl6S2Zb/UTaotoacbfo14W63377bdRlPcDXLRetERb4vJL2aZ5Mx38MyMKT8UB3O823Ws6VKC9m1dneqx2BS4gmg9Jbbo7avaiu42glq3ZCcopmfm+jxP3eJomWzz2ZoO/bODxjVJPsdtoj/BaLwaFzUWkUIs2gMh4YiduJpvOrmG0TTrIx3wH4LhbeWH2SvdqDsiHoja1Eqp8ZFLBx0WqSatb6df+d+zA7bPB2rNzPwvqF7F1/lrkrddYfmAl6uzLdH2YzxbmNujlt1O6D3OWRPLeRzHitnjoIHaDnJDESaTX/rhqkb5KIvovPUwZMJnGEJgAcUcpjgR161zhWGVy68y8ZXuPYgeijo/8yXNRoyn265cRAF3dRXrpLc0dwd6EnIAWXEVv8gh6+8beU+ZTalSxUEwy9rfrKN28MteCvq7kFnQtoI8ugipmUeZZjizKY9MxZHCsd2NYvpG3Ts2Rsracs07PsZ8GbBWyjYg4GyKKiuODWK+i6rn5nUHDrk4eNPBuUtGiDqePWgXWf59o0gOKtGZzb9ywObOQqy/KWGTLa6z0lvjPatnLvhdj4lzgD95v70Grjji2K2xJVm7kQQggxWOTbzIUQQhiSBCghhBCGJAFKCCGEIUmAEkIIYUgSoIQQQhiSBCghhBCGJAFKCCGEIUmAEkIIYUgSoIQQQhiSBCghhBCGJAFKCCGEIUmAEkIIYUgSoIQQQhiSBCghhBCGNEi/BzWYLNh+vQRr7DWcVf8HR1S/UKhvdMFv+GXWcLqOv897e4b+d5aEEOL74K7PoEYX/IbSNWt5espQb8kdtmAzf21q5EJTIxfqN1M41NsjhBCD7K4PUKPMw4d6EwbGzmX8NDWdsZX/uOOLLtzyBRd2l+hOK93tDYpNjVxo2k3pHV+7EEJEZvBLfMnzeX5xFnE9x/njlwn80mYBvOW4pCWU2iwAXHSs5qM65UE5PL3GhvrL6y0OyqtavKU8z10ptrWUPn6cP/7OqVmZ5nEtDsqrfD/5bl28Fpvmd9f912fRLNuF87j2Cfim+T/m7le45QuWjDrAi6nL2O29/U79Zk5ne24LIcRgGsIMahyF3mAEw7E++RueV29DyuPzGQ0EBSeAZBvPFzxwyzX85EnN45JtahkwMDiBJ8D5pvsCH1iwZt1GlqYt1TU1BmUufhlLNKW8gOV+GpAQ6WZC3se8Y0uACc+p0/+6pQAoYYkN9lf4gtHupZ9wOuExZi/wPrZ+M1t2h1pnCZ9qtsezTCGE6L+hC1Cx8M+q1ZRXHadL93YCo4DRBTm+DKjMNz0u7SFO/W612gRx0bGa8t/tolVdwXA4/z7lZb554hIskDyf7GQAF46y1ZSXreaPx68BkJKZo5l+DWfVar/He7hw/M5zfyTZU+miPNor0xmb6v1XWKFOK9zyBfPbVqjTXjz+GP87ogN7CZ++/RC7lGWmfgB2XzmudHejNxNSphdSDmrZ8EVHBzR8oK73p0v3wAILiXTg2qldz2lcHQlYMrw3E/KYjfdxlf9g/AIloBawpf7nuF5S1rcCZ9YqtiyI4KkIIUQIQ9fF13OOUy0AHZ6AwxU6/W4HSLZRusYWxQqu8c8Tno67y53XIDkgC+rp4LL3z9YT5+jKyiIuLsGbtWm3L8TjI3S6rYMl9kYuPP6BX3CCAmZnJZCQsIELTRt8dzeMB/aEX2jJ44znEcY3NbJEvbMD1wJgZwlTJ3Sw/6WBKMv9g/eV53D2azoSHmI8sHvBbKwJCSS83ciFt31zn87QXYgQQkTk7mkzDxhDUozq7/K8GVorMPrRcZ6A2NVBKwlB02+nEWP30qmeQFGymwtNjdBxgBfVMZ0O9r80laU7wy5CX0NgwLtNO120v/0YlgWAuj3jsSR04DobweP9npcQQtw+w3fxtZ445yn5JdsoXbNW/RfYVp5iW0vpr+f7MqBQWnZR3wJgweZd1i+zhgPXcH52BFqc/LPHf7r/eJUF26/1tyGsikLGpn7AaW/WAXtwXU5gdkk/WsjPfk3HhOeCxp28K+KLhgRmL9Lv0gPY3dwBoywB6w1+XOnu5xjf8MmtA+hOF+0JeRGWJ4UQIjKGD1C07OI9ZVxKh/Oz0NNCcVa9j7NHe4/2ol4Xjo81y+w5jsM7RhW9ArbUa+uvz/YAAATNSURBVJsVnoNK73gQUF64gv3k8Y5es4M347pgfwQSvPMoTRQ7l/HTyn8w3q7fYFFeuIL9o54L3S5e8Qe/9SoNDYGPWzLqAC9GlKVVMO+lA2DbIC3qQog7ZljK2LSbQ70RQgghRCDjZ1BCCCG+lyRACSGEMCQJUEIIIQxJApQQQghDkgAlhBDCkCRACSGEMCQJUEIIIQxJApQQQghDkgAlhBDCkCRACSGEMCQJUEIIIQxJApQQQghDkgAlhBDCkCRACSGEMCQJUEIIIQxJAtQd5fuBwr/q/Lps6W7NDwzu9v/F28ItX+j++KBHCZ8G/qChEEJ8x90zNKvN4ek1NlKUmy0OyquOQPJ8nl+cRVzPcf74ZQK/tFlQf+02aQmlNgsAFx2r+aiOEPND1/H3eW+PC8/Psy/BGnsNZ9URRi72rlNZn5d1sf/PuqvLV7dT+4u7oZTwadNzULmC/Qs2YA2YWrjlC5bwAWNTPb9QW7q7kb9uOc1Pl+6Bkt28k/U3Xkxdxm7vvO/sLmF3YQUs2Mxf334M50sfwNvP9WtvCyHE3WgIMqiA4ASQbOP5AovmjnEU2pTbw7E++Ruet/mmpzw+n9F+y9TOD3FZ/8sv4AD85EnNOpNtPD3F82dgcAJIsa1Vp0eugnmp6czT/YX0EpbYYP/WCvX21AmQkDWbQgrYsuARTu/0BCcoYHZWAkx43POT6TuX8dPUqSzdGe32CCHE3W3QA9ToghxfFlO2mvKq43QBcWlWX9CJhX9W+aYF305glHahyvSy1d4sZzg/eVQb8IbD+fc10yEuwQLJ88lOBnDhKPM8/o/HrwGQkpkDHOGjstWUl90qe7qFBRYS6cC1E09G1PRzXJUH6Eh4iPGMx5LQgesseLKwDVh2fsBpErAsuI11CiHEXW7oxqCSbZSuWUvp4iziAqf1nONUC9DS4QlIXKHT73aI+YHLndd0ZrjGP0+4Qk/v6eCy98/WE+c864hLCMjS7oCS3Vx4+yF2pU5l6dmAaRnewPVSqCxMCCG+X4ZoDIqgcSAAkuf3b1nejKoVGGUefluPH/3oOE/A7OqgtX9bE2yni/a381iy4IA6zkTGQyR0fM1pTmPpeI7Z9od4P3Uq5aBmXF9IWU8I8T026AGq9cQ5urKyiEu2UbrGpt5/0bGaj9r6u1QLtjVr8S1NyZgsoR8C0LKL+pYsbMnBj3d+doTomiTCqeCLhudIbNuvjjNtWfAIHcf/wG72wPFVzE760hOcgNJFeSQ0fKDeFkKI76PBL/G17OI9ZSzpTuk5juO4r3R30RF5MHFWvY+zR3tPf4OR0mK+gdkJkGDb4NcWXl64AmfWBm8r+Qasx1d4OviA3Uun8j7PqW3mS/iAsYW+hgpPi/lzjAfG2xu50PQFW2R8SgjxHTcsZWzazaHeiH7Ttpn/btedK8kJIYQYcnKhrhBCCEOSACWEEMKQ7u4SnxBCiO8syaCEEEIYkgQoIYQQhiQBSgghhCFJgBJCCGFIEqCEEEIYkgQoIYQQhiQBSgghhCFJgBJCCGFIEqCEEEIY0j2Z4/9rqLdBCCGECCJfdSSEEMKQpMQnhBDCkCRACSGEMCQJUEIIIQxJApQQQghDkgAlhBDCkCRACSGEMCQJUEIIIQzp/wOUM3NObb3NEwAAAABJRU5ErkJggg==;" vertex="1" parent="1">
                    <mxGeometry x="210" y="56.5" width="328.36" height="103" as="geometry"/>
                </mxCell>
                <mxCell id="38" value="" style="shape=image;verticalLabelPosition=bottom;labelBackgroundColor=default;verticalAlign=top;aspect=fixed;imageAspect=0;image=data:image/png,iVBORw0KGgoAAAANSUhEUgAAAcAAAACoCAYAAAB39T7wAAAgAElEQVR4nO3dcWgjWX4n8O/khjsSLjfZzFVP47OvW5pxOkh4wW3OfTYXdrkFSX+0LQtmD25huQFZDoqZYOw/rlozf+56dH/YmNtzBJYFfTdH/sgMyGX7D1mwYcMsMu1gm6yQSMdpd0/UcTyu3eQ6u7m9LLc390dVqV6VSnJJtiV31/cDDW2Vq+q9p1L96v3ek99rv/G7/+NLEBEReczr/+///qLXZSAiIuq6X+l1AYiIiHqBAZCIiDyJAZCIiDyJAZCIiDyJAZCIiDyppwHwm7/3LbxYj+Mvfu/ttn7/xYejLX7rbXy8ZDvmu1NtnYeIiF59r1/9Kd7Gx0tfx+Qb+o/PnmHzK7fNnwG8dffreLH+de2HF88wvfB9fOJwpE8Ov8B3797GW7f78B0AHzY54+anZdyOfx0v1ofwvemNpr9HRETe5SoA/vN/9k/wzr/81abbT3/6C5z+/TnfJ3xWxvcwhPeFn9/4zp7lV77zYRzvf8X4aRSfrQ/hq44HexPvr8fNYwH44uAH+K0/eALgCT7ZfYJPdve0461PAYXWRSMiIu9xFQD/87//1/h3vt9ouv3073+B//g/K5dWKIsWPcJGWtBEIYff+RT48Ds5fAgtdUpERCRyNQb45Mf/p+X2P/ubn3V08u98GNfG9M4d1zOM4jPb72rH+BY+HgMw9hP818JP8NVIHC+WvoFv2vb+4uxJR+UkIqJXj6sA+PBP/wZPfvxzx23/8Itf4r/98HnnJXhWxveetfqFX8fvLxlBbw9/8gyAPgYIjOJrtwG8+AKbuwB2n+CTTzfwxvQPsInbWHcIgkREREAbk2DSf/xXyP6HO42vf/9z/Owff3mphbL6Nbz1BoA33sHHY3vY/NufA7ffxNfeBfDXv463AODvfopP7JNtAAC3sb4er//01UgcLyLmVnPckIiIvMZ1APzLH/9v/Pc/PcV/+jc366/98On/wg+fvriSgtX93V/it3b78CLyJia/MYpvf1+bCfrV3x7FN2+8hbcA/OjPtck0315wCGbvTuFF5M02xxKJiOhV19b3AMVU6D/84pf4L3/8V+53vj2E92+38fqY1rv74m9/AnxaxuYLaKnP3Wd4pP//93/zVwH8HM/+utlJ38bHY29q/33jNtbXp/TUKREReV3bX4SfU44wt3GE6T/68/ZSn83G+p6V8cZ0ruErEfhXegA8077asPnk5wDexNfefYJvL+TwxvQJII7/NRjFZ+taSvRHhRymD7T931+P47N33RebiIheTW1/Ef5n//hL/NlJO7M+nwipyT18iLfx8ZLW5TO+pqB5G7e+Yv5f67mZvbtP/uAPrenLd/vwVQBfPHlmS2sKY4GWtOcfmuOEkThe/Hbj9xCJiMg7uvCXYM5j/cL7jwpawPrk09v4i2/8FJvD38KLePMv4Rt/ReaLgx/gj37z61o69cUzTE87jffpwfjdKbyIDOGzd/fwO59eSaWIiOiae+1fxNe/7HUhiIiIuo2rQRARkScxABIRkScxABIRkScxABIRkScxABIRkSe9/iuv/9Nel4GIiKjrXn/z7X/b6zIQERF13Wu3fe/we4BEROQ5HAMkIiJPYgAkIiJPYgAkIiJPYgAkIiJPYgAkIiJPYgAkIiJPYgAkIiJP8l4AjK1i71hBqtflICKinupuAJQVPH20iqjwUko5wl5mQg9MR3hq//doFVHI2HbaZgQyh323ZeciREPDwM46FsXXMiXhXG1VqF6uZudzNoHMI7Ose5kJaxmN8jiVyVLXEjKxtgpMRES669MDzM9i1D8In38Q2TKg7szD5x+E794sFKRxX982t6MC5Zy2zR8VAlkVWf13fGtVBGecgoOMRBjYL27VX0kpR1jp29SO247YKvaOJ1FbyKHSZlWjmQcYOdDrt1AEwg/MssoKVu4eYs6o78EwVhQjusrYXhrG/oJez4VDjCyxN0tE1InrEwAvU3oXFUgYuGN7XR5DsLyJZN58aTE6CF803f458rMY9Y9bjuWWkhzHaFIPwvkC9lWjrBPIxAKo5GehQPs5clcChsaQAhDNTFrKHw0NQ0IA4231PomICOhFAJRCWBFSlYmhKziHPIYgqihZ4toEMjEJhYcdBLurFItgRDLKGsSApKL2GNDSq8sYyOe0YB4Dgn0S1BOtv2n0XLNl4MatiRYnICIiJ90PgGqxnt4z0p2XI4CEEVhngKwlPQpAnkYEhyh00GO7OjK2l0I4W7OV9Y6RXh3E/YZ4HUTm0RGmTuY767kSEREA4PVeF+DyVBuDniA1FkAlH9VTi9eBjO3jOLAmBrkKamockZl+ZP3jWl1iA7gBFaU8UAmpSITjGFgbxGgaACYwcBM4291qdhIiImri1RwDtIutYupmEdmOOkzGjM1LnGwSW8VeQ/ADgC0UDlSgvFsP5Kn3QpD0n5XiIVQxtStPIyLZU71EROSGJwJg6r0QcFBw7P0ZXzlYCUvm+KTiZlaJ8RWIOIIAgjPuv5aQei8Eqb6P9esOSnIcWcTNMVLkzFRnfhaja2id6iUiIlde/QVxY6vYW+rHBgMFEREJXv0ASERE5MATKVAiIiI7BkAiIvIkBkAiIvIkBkAiIvIkBkAiIvIkBkAiIvIkBkAiIvIkBkAiIvIkBkAiIvIkBkAiIvIkBkAiIvIkBkAiIvIkBkC6OrJiLvfUZImplHLJay26cLXn1NaP3Haobi/q2q6UcoS9zESvi3E9xFaxZ1y/Lpc6o5dLTwKgdiMw/zndLNonY/sqLlJZqa/V55axxqD9n+duLOkofP5BzO2oXT1tNFNyuabjFYhFMIJOF18mRx18Bt1ofZ1MICOHcLY2CJ9/ED7/OJJ5FwcVH/pcry1KvfJ6d083gcyjZURQxJx/1nGB2leBkhzX6yZj+3gStQWXHx4PWowOdn2dxqs8p7b48rzjtd2LulKnghiQVNQet7OPjO0ZIOs33ucJZB49QCaW5uf/mupuDzAWwYhURfZes+CnpY/sq6QD2tPaXmZVX4XdmkrSepRxBCEhstS43Vy9vbEnllKOsJ0RUh31c+r7zATMleIv44kutoo9W081minVz6vVUxbawdartaRlHHrP+hNoe71qa/tY2i62ir1Hq0gJvVqz/WRsHytIuUh1OrdD4/tsan0tOPas9WOuhCVgKN50e9Nz2p7ezTbU6plxbANrO44PVbGR3Gp6zIbz2rZbjmt7r91dt7b2a7NtNRHzerBsa3GdYAKZRyVk5CZlstXFfp1YskKX8hm0Z4SEn1teJ0YdbfcTV+esoKYGkDB+V55GRFJRY/C7trobAO/0Q1Kfo+K4UesdjhzM6ymHQWRPQ1gRLjwpHAL0lES2HMCUfkNYjA7C58+hAhWFBSNlERWewiZRq78+j/27DyxBJRgexv6Ctq2AEBIyAKRx3z8I31oVUIuY08vki14wt5WfxUZZwkjIuJlNIHJXQiVvPhRI4TgG8oN6+hCIvGe0gYztpX5sGGXx54CZyxhT0uvqN84p1dtWK1AIib5NbftCEQhPC+cMIBF7rrdPDpWhSXdp6PwsRo32baBnCk5z9TL5hIcmJTluvu7P4cwoj37MuR0VKJv7jhoBqdU5ZQVP9ad3o543ZsQbaACRu4daPRvaQBPNTOLGzrq1l6engY1jWpPBE8jEJOGaFcoaW8XeknFdGvVctjzYOF+352ndtgAghYf1z4v9uOdcJ5AQiQHf9Tfum3pPTCdaP0fRTAlTJ+bnfu5gGB9kJnDuZ9D+cOF2rK7ldWLU0XY/cfW530Ly3iCy0INq7Dnm6vchuo66GgCjt6QWW4MYkKxPz4u7VeDmgPkUWc7hvn4dVk5USH3B808ai2BEEnuGy4hIEgbumL+i7nykpyi2UDsFbtxyN1Zn74m47XUtPiwCdyNavZzGjIR6KsVDqEYbyGMIIoBE/ZzaU+qA+IHXb7j324rT1h7BSliytW0VWeMGkC9gXxXPqaKQNm6gaZTK1rbtiJEpaHbTsdz4HNqgA9FbElQxeBn1rNdFqGe+hrOGc8pIhIH94hbc20LtVLs2G3qUd/ohlTeF1FkapbL12mx93Wo3Y3twO7dtWx73vOsEwoOcdn7x8xqccepJaQ+AUni55XEdiQ8X9X9XP9zQ/HOvtU8COfMB/ppPevK6ro4BKp+rWAn3Iwh0d/xPLWKuadq1c+ZYX5vyBezLy9rT8a1h4OAj98cp5y7eC7WJZh5YxmWjmRJW+i71FJdIxvZMAJU14+aqjbP2nDyGYHkT99u8+RrjgtpNdflK3t/LcpHrpP5Z0R9erJ9JFYVOxsllRUuPWnR4rDY0/dzXh3i0928xOo+BR8sYlwFcz7fU87qbAk2voyDmyC20/LmZUplAJhaAelBwGRwqqKkOvY98DWdSSE+pdODxc6iSFrQvzxaS+SqCYwoSYdU6ZmSjTarQ2+Dxc6hD8dY9zQ7GAIN9EnBaq0/cSYRb9NTlaURwiILTDSa2iqmhKkoX/bDnC9i3XAviOQZwA+bkhGhmsuG9UT5XrZkDF5TPVUhiWlOeRkRyWxc9lfmw84oryXEtRWqU+/FzqGI6ObaKqSG1rR6m49cuWrXtOdq6TppJR7X0Yv0zpfeC5RazPJt9Bs/tAZr3g5QSv5Tr5HxiZiCIgQ6aiLqny1+D2ELy3jwKN+MOKYQtJO9p4xz1VOVpzhwTcXPsfFVLs1gG6NO4v1AEhBRLW9/Fys9ioyykHS9rWnN6F5WhAILl3cYxAmFgPoGcdQxrTaxjs0kO7Vl8WIRaP+ckajv2MTKh/jOwTWIS0stLw9hfMMc8jFSRZbJBfYKAnsYUJzjU62K/FoRt+hiqcc6VvkMU7N+ySK+jAHPSRD292Oqc6SjmdiShnhIKCy7Hb1o9FLTe0TqpZGkY+/U06yxG11ShbUM4W2uvZ1M5UQEEtB5IXYu2Pcf510kztkk3x3FgzWzbxei85f1qeIDr6DOYRnZHrX9Wpk5y7q+TTtnfs+M4buzMtzkcQd302m3fO1/2uhDeJGP7OA6sWcfrtLTS5vVJg8VWsbfUjw3HwXx+zcOYVDKQdzHuKivaxIgrSMc3Pd8MkOVEDCJHXf4eIBmimUkE1SLmrkmco05tIXnPXZYiNRYATne7EPz0mZ6SNh7G4EfkjAGw2+oD91VkX+E/BkCalHKExJD+g1rE3L1uPPG4D8pEXsYUKBEReRL/GDYREXkSAyAREXkSAyAREXkSAyAREXkSAyAREXkSAyAREXkSAyAREXkSAyAREXkSAyAREXkSAyAREXkSA6BHpJRLWO6FiOgV0pMAqC3U2WTtr47J2D4umQuIXhZZ6WjNvWimdHlrB7qmrbt2Oe3Z3jmd1lMz1gM0/4nvj22NuK63FRF5XZdXg9CXaUERc1wJ4RVgrGk4j0JsGSNOv1LOOa5tmFK0BY99+uoIWg+10sYCyEREF9PdHmAsghGpaltRXGTrFQg9r2imhL3MqrCCtrmqu9ajjCMork5uWfXduvK22FNJKUfYzqxir+Gc+j7i6uGX2FOx9IJd1lMrlmLrVWn10Xpby4hIEFaMt/eII+ZxG3q1etu31dtN477fxUKwDSYwcFNF4aG54+JuFVJfsN0DERF1rLsB8E4/JPU5Ko4btd7hyME8fP5B+PyDyJ6GsCIEHCkcAtb0beUApvRAthgdhM+fQwUqCguD+v7GKtgTyDyaRK3++jz27z6wBIZgeBj7C9q2AkJIyIBxc/etVbV13PQyXcZK7dFMCVMnZj3nDobxgRCUm9UTsVXszUj1Os7tqEA5h9HkFpTkuFZ+FaisGXW1rtQuhYf1dhDrecWG4g5pzi3UTiWMhIw6TyATCwA3B9pONRMRdaqrATB6S2qxNYgBqYoNIQW2uFu13hTLuXpvo3KiuusxxCIYkcSe4TIikoSBO+avqDsf6YFiC7VT4MYtd5NF7GNc7sbeJhC5K0EKL9f3WwlL1rq0U882gkbrem4heW8Qvqa98/ZpQdkIxjlUhuL13vdiNIezehs8AA6qwGmNaXEi6pqujgEqn6tYCfcjCHT3RqcWMXeJN3aDkhzv8JgqCgvW3pkr+QL25ZAWzJeAl2tV+TRK5TimhJ/v+83edDRTwsiJc26AiOgqdDcFml5HQQ0g4TiOVkFNFdJ9elpMPSi4vMFXUFOtPTsAQL6GMylkSTG25fFzqJIWtC+Hlv6LyO3PLIU8rU0c8dvTvOKx3fdgrToZA2xDbBVTQyr2iw6TXGQFK2HV0vsnIrpqXf4axBaS9+ZRuBl3SB1uIXlPTItpswTdzwrcQjJfFSaAGJNH0ri/UASElGPDxJJW8rPYKAeQ6GQSzJBTPYHFqDYGt9Ju+jS93tB29rosPhTregVfC7EwJi1pk2+MtK5RF0uKeGkY+2KvV5zME3uOuYZgTkR0tV677Xvny14XglySFS1Y1NO55sQhfn2AiKg9/EswL5HGSURBDEjA2ecMfkRE7WIP8KWi/yEBIQ6qO+z9ERF1ggGQiIg8iSlQIiLyJAZAIiLyJAZAIiLyJAZAIiLyJAZAIiLyJAZAIiLyJAZAIiLyJAZAIiLyJAZAIiLyJAZAIiLyJAZAIiLypO4GQHENuE7Wq5OVq1uwtYmUcuS4pl/PWNrQuhbgxcpqrO3XxlqJF2Qpr32dxdgq9ppdJ6222a+xdtZv7PScrsjYPnZYcLjj4xrvl/Zvz7bgc8u2PbeoTm2on084lnYO7XqxX3vX5vNC1EL3e4BqEXPGiuZrKiJLV71oa+eimRISEFdgH8T9dC9LJGN7BsjqZcmWA0gIN6TFqFlO31oVwVgbDwuxCEZOc8iWAxjvxk1LVoS2zaEyFBduljK2l4axv6DXZeEQI0tGYJ5ARja3ze0AEVmoZzoqvF85VIYmXV5fFzjnuSaQeRQHytU2ztlaNPMAIwfz+n5FIPzArGfLtj3vuCU8Fa4xn38Qvqhx0VdRwZhePhnjqKKib6lfewtFqKjW9+/t54Wotd6mQNNRZMsSRkL606vlaVh8WtafnmcCgCSspC4+2dr2bfjA60+17TyRBvvs6+8JYqvYE3tLlp9lbB8ryAgrotuf0DuTxn1h5fTF3Spwc8DxRhy9JQGnNX3h3PNFQ8M4201jcbeK4JitXR+tItWkLinlCNuy/v449EqbVyUq3FjTKJWBG7e040YzkwiWN+urx0dDw5BgBOYtJO+ZK8srxUOoUj+CTueIDeAGVNTyThtt9b/wOfU2cOhtRTMPEDnN4f5uO+c0Dut83SrJcXMZrHwB+6qEgTv6xhZt25qMRFhCZc28xkza2pOlXWjlk8eA3d3GQxC9RHo+Blg5USH16beS/CxGhSfP7GkICRnQbvxar8bSg6x/yGVsL/VjQ3jyx8zFU3mLUe3pubMAFkDk7qFW1oUiEJ6+9NRiaiwA9aAgBDkzEK2EVWSjbh+/JxC5q6KUBpDeRWVozFpWKYRE36bQ27DWJTgzhpLQK51qu61kjA+p2C9qN/RgnwT1ROtbpJQjrPRtItvkJh4NDUMq71pu2PV03FIIZ44380YXPWdTsVV80OS9aOecrc8RwYhU1d6/Bta2bX2cAdyAcRzhoUZM26Z3gTEZqTGglK6gpkoYuKYZHKLz9DwAWok9iSMkhlzeDOQxBBFAor5vHEHYPph6aqy9lIweeP3z2L+73GYPUkUhPasFp3wNZ/byXFA0U0LiZhHftSyGa5R3EL41IOG2NyZPI4LnejorjVJDGrRq3sCN3oZQF3Vn3eyVRgfbXKBXSw/e2Pmo3hPSBJF5dISpk3nhQcdebsUx0Jup4Bww08571vk5621ved1InbYKwuec89zrVsZ200DfrG3dEB46ba9nTyYxdbLu7gGA6BrreQC0PgXHESybY27ZchsHKlvH6nz+8Q4+9M1sIXmvg3G1KxLNlLBy9xBz92abpzjT6yi4fDpPjVlTy4khWNOgV0Zb4X7kwLqqfeVEhRSOYyBvBNMJDNwEzj4XAqus6GNVrYJLGtkd1dVD1OWdUyBPIyJJiCzpD2ZCCn9bdnnO1ifA9nEcWHMKkM5t21KrB7XYAG6o2kOSJf1K9BLraQCMZkpIDFWxIXz4jWCI2Cqmhmw7PH7uPN7z+DnU8wb6OxgDbCjvLfuYoHGzmEBGDqHFiKFTgZxnBZ4jpRydH/wA/ebrZvxLS5EVFgZtk0fGnHuP8jQiOEThwg8XMraPnW/QSvEQKoSUnjyNiJDiMydqnBeItDEtNwHl4ud0GAO0TMixpvDvp88/p/Zak+s2toq9psGvedu2lkapLLU5wYfo5fV618+oPwGvAPrNwLiRbyGZn8bTmWU8PV4GUEVhR8WIuG9+FhvvHSFxfIQEoPX6omlt7PCOgqczR3g6o/+uWjw/SLSkPUFHxKgmHtMoy9IRni4BlbUcKjNjbRy/gpoKBPWA7qqc9YcCoQ0BVNYGcT+t9QbqDweWtm1BHkNQPUTWEtAqqKlxTGUmsFgEoKeXEwCAKrJujnuOaGZSK2vYeL+NY0exaLyflnMagUcLaoAklAlQd7SbfUrRerD6qygsDLrLBFzgnB1rec7WUu9pD1ySwzWPVm17znEXo4OAcmS5vlDehYIBfOC4hzD5hugl89pt3ztf9roQXuUqldlrsVXsLfVjw23aj4joJdHzMUBP0r+yce2DHxHRK6z7KVDSUl+XNkGHiIg6wRQoERF5ElOgRETkSQyARETkSQyARETkSQyARETkSQyARETkSQyARETkSQyARETkSQyARETkSQyARETkSQyARETkSQyAreh/tPppq3X7LmGdwe6ZQOZR+2sQEhG9irocAGVsH5eQMVac1gNM74NHk8Vp87MYNRYyfSloAa737emSrHQWjMUHE/F60qUUY5ttgVoiIkEPe4DaKupnjitad5k8hhs7ORQwjEjs/F+30Ff97nkdXNlC8t4gfC/1EkwTyMjD2NdXsJ/bgWUF82imhARy9VXYs4hjLzPR0xIT0fXUswCYUpYxcjDfEDgsT++23kE0UzK3HStIGRtiq9h7tIqUsL2dm15qTMJ+MY3CATAScrufnk506IVEM6WGsqcUa5la1bOTVKXWNtoK9sEZh3LpqdrGXpGM7WMFGb3ttmW9N2xv32OzvJYepm2bvY7OP+vnmAkAkra6vfve2haS98brq7wrxUOoUr+2AjpkJMJA4aFxUckYHwKkuxGmfImoQW8CYEhBAjmMJrcsL0czJUydzNef3ucOhvGBcQOVFaz0bda3+daAhHjDlEJIGNsXikB42ryBtyRj/OYhCnntZgrXN0u9N+XPoWLboiQ3UZHE3qSM8SEV+8Wt8+vZISU5Dp9/HgUVqKzpbeQ3A4XRU53bUR32DiDSt4m5HRXBmUnUFnKoQMJATCv79lI/Nox29+eAGT04xlaxt2T2xnz+HM7Cyy5SsGncN1LLahFzxrGjeuASg3WLVCcAREPDkMq72mr1sQHcgIpaXi/b8SRqa0UhQBIRmXoQACVEwgGH1ycQuStBCi/Xb3orYQlSn3brSo0FgKG4eUOcCQA3B4RgVUXWuIHmC9hXjRs4Gm6oYq8kmplE8LSmpQTzBex3kgZtkEZ2R+hNymMIljf1YNS6nppupypVs9dULyfMsiOARL394ggawfFOPyTL76dRKgM3bl0w5agHa+u/cWu5AO2hKKya77vw+tOlfmz4x5F8fLGiENGrqwcrwqsoLHwEyMvYy1RsvUAVhQWHG52u0ul4YToKn+N+WjCCFMfT47hZitAEkN9y2sE1pXiID+QIothCcCyAyq7Yr2xdz2unnDN7Z6Krml8iK9oDjoWtzWQFT2eArD+q9f4AIF/D2VIIiVgRc3794eFOPyT1eUMvnYioR2OAW0jes6fLtlA7lSwTGkSVExXBGcVdWlOeRgRaWrOlWAQjUhVZsaexUGwjDdpCfhYbp8OIxGSM3ywiW48freup6fTrCluonV5CD0z0+DnUobhzWvPxc6hDk5ZZvVNCqheA2bOVFSSGHPZ3Sk+e0wOMZkqNwU/bEaUyoB4U9J7zBDKxgPAzEZGph7NA07i/UMSNGTMluRidRwHCpAhhwoWSHEe2LKbi7BNdhG0zQNZF+tAyfmTI13AmhZCQYaZOxcka9aBkTBbRUoKRpcZxqsVdFZGlOJC3lqVVPS9q8WERqKdXzfIYE4hWwpKZSnYz6SQ/i9G1qjCxRmiD/CxG11S97kd4uhTC2ZoZqBYfFqEa54o9R9Y+/pifxYb4nrqaBCMjEZZgeb+PrdfQ/l2j/tpEK/tYMxERALx22/fOl70uxIXFVrG31I+Nhh4BERGRM/4lGCIi8iQGQCIi8qRXIwVKRETUJvYAiYjIkxgAiYjIkxgAiYjIkxgAiYjIkxgAiYjIkxgAiYjIkxgAiYjIkxgAiYjIkxgAiYjIkxgAiYjIkxgAL0pfMumyljPqnLaGYO/L4VJsFXv25ZXsrk3bEtGrqCcBMKUIa8td9xucrHSwMC2dKz+LUf8gfGvVXpeEiDzq9e6ebgKZR8uIoIg5//kL1r4U0lH40uf/GnWAbUtEV6i7PcBYBCNStcVq7Voar2HlcWgrmu9lVvVV2I/w9FhBqn7cVew9WkVGadarlIX97CvJw1z53bKvvo+4Grxl1XKxrNaV4OtlanLOlHKE7UyrFKB+7Av0PI0V4O3ndWpb8febtW1K2N7Qfs3Y2sB9fZq3bTRTajhOSnFfTyIiQ3cD4J1+SOpzVBw3ar3DkYN5+PyD8PkHkT0NYUUxI5kUDgFr+rZyAFPijVgKIYKctu9aFcGYceObQObRJGoLg/px57F/94F5U5UVPJ2RUKhvH8T9NACkcd9I0alFzOnbfFGjS7KF5L1B+Py5xvrEVrG3NIz9+jFzOAsvW4JyMGxsn0cBISQuMQ0czZSwcvcQc/5BjCa36q9NnZhtO3cwjA+M9pMVrPRt1rf51oCE0NSXq4UAAAKvSURBVO6QQkgY2xeKQHjaDJCtGGlO4f10V8/mbaskN1GRhhGpB0UZ40Mq9osu6klEJOhqAIzeklpsDWJAqmJDv2EDwOJuFbg5YD7Bl3N6cAIqJyqkvqCwfxVZIzg9fg5V6kcQ0HudEiJLRq9gGRFJwsAd7VdTYwGoOx8hmb+UKmru9EMqbwrHTKNUBm7cMm/E5jm3UDu1bqsHgKY95eaCM0daMLPsO4HIXQlSeLneM1oJS/X2S40FgKG42WuaCVjbXWzbfAH7qoQB8QGiae/a2vNODNnr2Yk0sjvASMgI3mMI1tu6dT2JiERdHQNUPlexEtYCU1fH/9Qi5joIJi+jyto8arFl7GUq9d6fRkVhYbxpoK+sDdYfLtrSYpwupcQRLOfqveaUcoSpDk5hpxQP8YEcQRRbCI4FUNkVk5yt60lEZOhuCjS9joIasKbX6iqoqWJacwKZWADqQeFigStfw5kUapoGW9ytQmqV0hN7k249fg51aNJMs8ZWMSWk6c53kTHALSTv2VOuW6idSojIzsernKgIziju0pryNCI4ROHcADOBgZuAeqInMWOrmBpyWYXz5GexcTqMSEzG+M0isvUA3LqeRESiLn8NYgvJe/Mo3IyjcdKJeeOupypPc7ZeTCfSuL9QBIS0mGWSRzqKuR0JiWZfy8jPYqMcMLfXg7eR3osjCCPFqk/YyM9idE01065LIZytdbNXotX5xoxZ3sWoNta44lBPJTmOrFjHhlSmsG0GLSYxibaQzFfNdORSP/Z3VHOzkToVJxnVA36LttUt7qqILMWBvLUsrepJRCR67bbvnS97XQi6xmKr2Fvqx4Y/isVel4WI6BLxL8EQEZEnMQASEZEnMQVKRESexB4gERF5EgMgERF5EgMgERF5EgMgERF5EgMgERF50v8Hsj/R8QB+nGEAAAAASUVORK5CYII=;" vertex="1" parent="1">
                    <mxGeometry x="605" y="56.5" width="338" height="126.75" as="geometry"/>
                </mxCell>
                <mxCell id="39" value="" style="shape=image;verticalLabelPosition=bottom;labelBackgroundColor=default;verticalAlign=top;aspect=fixed;imageAspect=0;image=data:image/png,iVBORw0KGgoAAAANSUhEUgAAA0kAAAEMCAYAAAARc/22AAAgAElEQVR4nOzde1BUd57//6fzi5VvWG9cRAcDJgohRE1iYAMTdQaMQCRhyZiNbAnr5ZddRycrqUnmNxEsY4wV1GSSqSHlxnF/lpcFq3C+ccd10wYx4qxmpplAbl4I8TKCkUGuoq5Jvu7+/P3RfU6fbpqmuSO8HlWWnPM5l885fc7p8/7cekTK/PRbzQ11iIiIiIiICNxx69atgc6DDLC2tjYuXrzId999N9BZ6ZI777yT8PBwxo4dO9BZEREREZEh5HugIGm4ux0DJIDvvvuOixcvDnQ2RERERGSI+Z5iJLkdAyTD7Zx3ERERERmcvqcYSURERERExEXN7URERERERCy+N9AZEBERERERGUwUJImIiIiIiFgoSBIREREREbFQkCQiIiIiImKhIEmkG0JCQli2bBkhISEDnRURERER6WV3DHQGuiokJIT09HQOHDhAU1MTmZmZhIeHt1vum2++obi4mKamJgCioqKIj49n37593Lhxo910f4uKiiIpKYl9+/aZefRnnRkzZrBv3z5zOj4+ns8++4wf/ehHHDp0iDNnzvRZnpcvX87atWu58847zXnV1dXcddddREREeF1ny5Yt/OUvf+Hv//7v+ad/+ieefvppZs2aRUpKCsuXL2fVqlW8+OKLlJaW9lm+/ZWZmcnZs2eprKzsdNmmpibq6up4/PHHKS4u7ofcuXjeA6mpqTQ1NVFZWUlqaiqRkZFu176V9RgDAgLIzMwkODjYbZmysjK3cxAVFUVaWhr19fVcuXKFGTNmtNvuxYsXOzwPA3Wved4vVp7nsKu6cq2IiIjI7ee2C5I8+fuC2traCsBPf/pTysrKuHr1al9my6eAgABmz57NmDFjWLp0qVvaiRMnKCkpcVvW80X25z//OTdv3uTzzz8H4Pz589TX17NgwQKAPguUtm3bxrZt2wBITk7m7bff5l//9V/NecuXLzeDISNvxnxv/vZv/5YJEyZQVFTkNn/Lli2sX7++T46hI0aNUFVVldf01NRUr8EBOD4PK8/PsLdNnjyZGzdumC/348aNM/8uKSmhsrKSzMxM7Ha7z5f4GzdusGPHDrd5mZmZbn+Hh4fzzTffUFRUZAZk3oKojs4NOK7HRx55hDlz5vTpefG23ylTppCZmen3cyIkJITMzEzuuusuc57n8Q4VISEhLFiwgLKysnbPjKioKFJSUvq84EVERGSw6nKQdN999xEWFsbRo0e9picmJlJXV8dXX33V48x5ev75582Xl6VLl/osvbZKTU1l3LhxFBYWEhsby4MPPsjHH3/c6/nzhxH0fPHFF24vXrGxsSQkJLR7GbO+yHqWjIeEhDBhwgTAUbNhBCt9ad26dWRnZwPw5ptvuu3z+9//PufOnXMLkHxtJygoiOrqas6dO9cuWOwrsbGxJCUlAdDc3MzHH3/M448/zsiRIwFHEG1obm6muLjYrP3o6+DHX5GRkZw9exZwXE8ANTU1ZnpTUxNbtmwxpz0D7fDwcJKSkjo9nuLiYrPGpSs6qt0NDw9vF0z19TktKSlhwYIFREVF+f2yf+PGDbMmzho0DiTPIL2vz9uZM2cUHImIyLDW5SBp9OjR/PKXv2T9+vUcOHDALS09PZ1169bx85//vE+CpC1btnSrmdqlS5eIjIzkhRdewGazsWPHDqKiono9f50xXlbr6uralcQnJCRw6NChdsfkrQbDs+bC+mJ/8+ZNfv3rX/dB7h2MGp709HTKy8sB2LlzJ2lpaeYyDQ0NAHz22WekpKS028Zdd93FvHnz2LZtG+Xl5Wzfvp2GhoZ+q0G6ePEin3zyCfHx8ea0Z5Mso4mYL55NrjIzM7ly5UqfvrwGBAQQEBBAUlKSGewBHQaZN2/eNK95b3nuiGeNytKlS2lubqaxsbHdvsFxDq0GU+2Lt+Z2XfH973+fF154wQykDeHh4cyePbtP7zfjmQHwz//8z2bA/tRTTxESEtKtpoIiIiLSuS4HSZWVlaxfv55169YBmIGSESCtX7++w1qm3jBlyhTGjBlDZmYmp06dIi4ursNljdLWkydPcvLkSWJjY5k9ezaXLl1izJgx7V56+lp6ejptbW1ERkZ6bZ6UkZFh/m28ZJaUlFBSUkJAQAALFiygvLzcLOHtab+Krlq3bh3PP/+8OV1aWkptbS3nzp3DZrO5vaivW7eOWbNmAe7N9D7//PN2gVBcXBwPPfQQ27dvB+j3pnbgXsP0zTffYLfbvS5nDTKuXLlCZGSk2b8nICDArOHpK55N5GJjYwkJCel2YOat1ufs2bNmbZS3Qon/+I//6Pa2rfq6NmTZsmUEBwfzzTffUFJSQmpqqlszOnAPLpubm732jfvLX/7S7pj7q0/SnDlzzJotK2t+rAUpRlBsrQWyfg6efTWtMjMzCQkJobi4mMDAQLfP3eiXNnLkSJ/bEBERGSq61SfJCIyMQMn421vtUm8KCAhg5MiRNDc3A3DnnXfyy1/+0kzzDCI8VVZWDmjpttF86fHHH+fAgQMddmK3NvGxvpyAeyD15Zdfmtvw1b+gt6xfv94MkGfNmsVHH33ErFmz+OabbwB46KGHePPNN3nzzTfbrett0AdPn3322YAESIaLFy/y4Ycf+mxeZg2MmpqaCAsLIyAggEmTJjFy5Ei3Zm/9ITIy0mszNnANpuB5DRnN7Zqbm7l586ZbrY9n87IpU6Zw11138fjjj/PRRx+RkZHRLtAA7y/nxcXFBAQEMHfuXI4cOcKNGzfMGqqzZ8/2edPFHTt2mAUJV65ccWuC2FEBQ0hICAEBAW7B09mzZwdkoIaAgADCwsL44osvOlwmNjaWyMhIdu7caQYzSUlJtLa2mn3IAgICzFqo2NhY0tPT2wVdxnI7duzgxo0bBAYGmmkhISEkJSWZn691GwMx6I2IiEh/6PbADZ6BUl8HSACTJk0y/z527BixsbEEBAS4fVGPGTOG5cuXm8GCrw734N5UDXyP0tUXAgICSE9P58MPP/RaMnvmzBlsNpv5kpKYmOgWCC5YsIDAwECmTJlCTU1Nv/YjuPfee6mrq/N7+QsXLrQb1MFgrXkazM6fP098fDwBAQFcvXqVkSNHEhAQwJgxY2hra+vX0nWjyeiXX35pBiHgaqJl1GqdOXPGbBJmvFQb17hnUGS99gMCAhg3bhz//d//TUhICNOmTTMDja7UYv7lL3/hH//xH/nmm28YOXLkoK+F8NYnyQiea2pq+jXvN2/e7HCQmYCAAB588EHsdruZJ2OQjMmTJwOOQT7KysrMa6OqqoqYmBgmTZpkDmYTHR3N5MmTOwx6YmNjaWtrM58tNTU1PPjgg+2evSIiIkPJbTW63YwZM6ipqWH8+PFcuXKF4uJi86XPCNCuXr1KTU0NU6ZM4cyZM2ZzNU/GYA79PXxzdzzyyCOMGTOGv/u7vwNctUllZWX813/9F9HR0YSFhfW470VXGaXtO3fuBCA0NJSgoCC/1jWCIm99lgarpqYmLl26BOD2khkYGOg2mEJ/eeSRR8x9xsTEmLUcMTExgPtIfcZ90lkerUH75MmTuXnzJjdu3KC0tJRZs2b51Q/m5s2bfP/732/Xd86oybLW0gymvku+NDU18cUXX/T7kO8jR45kzJgxHaZ7C6KuXLlCSEgINTU13Lx507xOwREA3rx5kzFjxtDa2srIkSO5//77KSsr8/m5hoeHu32eN2/eJDAwcFAHuyIiIj3R7SDJ2gcJaNdHqS+0tLSYpZjgKM2OjY2lrKzMbbnz58+TlJTU4QtdVFQU999/PyNHjiQ1NXVARywz+rL4YryUeWtSaPSl6ewlpz/ce++9fPPNN+bADZ0t+/DDD7tdQwMtPDycpUuXms0Hrf7qr/6K8+fPu71kXrp0iZs3bzJp0iQCAgL6taldVFQUI0eOpKqqihs3bpg1HlevXjUHAfEs5b9y5QrgeuH1HGwBXNfjXXfdRUxMDFVVVTz44IN8++23HDhwoN1w9EbAY4wEaGzjxIkTbv1mPK9do3noQA7F31X93Vz3xo0b1NXVmc07vfEWRI0bN84MhkeOHOkWzBhNlo3zfvPmTU6dOkVCQgJXr17tsCZ6sIzsKCIi0l+6FSRZAyRrUNTXgdLRo0fN37MB92Yg1kDD2uTE22hx999/v9m+PjMz0xz1rj+aqjU1NbmVRMfGxhIcHOw2pLmvkuqRI0e61SRFRkaapcnGi2hhYWGfH4fV0qVLzYEXIiIiePPNN9vVEFkHb1i+fDlTp06lurraTLcG2/fee2+fDgkeHh5OeHi42bfNYG1qaR39MCQkhLFjx5ol8tZ+STt27CA2Ntbtd4v6WkBAAPHx8ZSXl5uBUHFxMZmZmUycONHrtRwSEkJkZCTfffed23EaQbZ1tLqLFy/S3NzM119/7VYoYR00wlefnps3b5o1bh15/PHH+715qL+DXHjrkzRQjN+88vytp6eeegq73U5dXR0JCQlmM8CoqCjGjh1rTre1tZmD1dy4cYOYmBhGjhzJpUuXzGfmpUuXuHbtGmlpaV6vnfPnz5OSksL58+c1LLiIiAwbXQ6SYmNjvQZI1j5K165d69MR7sDR1n7y5MluTcysTUvOnj3rVgJrvAw2NzfzL//yL24vl0bH9vr6+n5rSmPNj9GpOjU1lZ///Oduo0d5drq/efMm+/fvNwM8gOPHj/PII4/Q2trKzZs3+yX/VsagDB9++CFxcXHs3LmTixcvsmHDBrffUUpOTmbLli1cvXqV5557zusAD/feey9//vOf+zS/nkOAg+9aAs8gyPMlu7+b2qWnp9PY2GgWDhi1OydOnOCTTz4hLS2NL7/80sxnSEgIkydPpq2tjbi4OLcaJF/H7Vko4Y/Y2FiuXLnSaV+V/u73Zwxh7s9+B9PvJDU1NbFjxw4yMzPdmrsZNcfGZ2wEdZ4jzxnBs9H30vrbX9aCpcrKSkJCQsjIyGj3Y9tnzpxhzJgxboPG9HffTRERkf42Yl5q2q3Wpst+rzCQPyYL7UuwrUGE549/gisY8edLva9/58Y6iISv/Fib0FlfYK1Nlh555BG3vBrb7k6zGH+bEFlHqLPZbPzqV79i+/btjBkzhueff95t+OTk5GTefvtt3nvvPZ566ikiIiK4cuWK23KeQ4oD7ZbxR2xsrN/LevL8gV7r9XTx4kUOHDhgnvMpU6b4HATE0JcvkEbfIiMYAryW/hvXwzfffMMf//hH7rnnHvbt29fu94+8sY5UZ73fYmNjfR5/XV0d//M//+M2CEln92df6+h31bozfL71/tUw2CIiIkNbl4MkGXpuh47zvvQkSBIRERER8fS9gc6AiIiIiIjIYKIgSURERERExEJBkoiIiIiIiIWCJBEREREREQsFSSIiIiIiIhYKkkRERERERCwUJAl33nnnQGeh227nvIuIiIjI4HQHjBjoPMgAunlnIP/909/DnWMHOivd8h3w5798xL0n3x3orIiIiIjIEKGaJGHECAXKIiIiIiKGO/R+PLyN/K6Vh37/04HOhoiIiIjIoHHHiBEjaG6+wv936xYjRgC34NZA50pERERERGSA3DGCETACvjfie9y6dQvnpIiIiIiIyLD0vRHfG8EtZ9XRiBGOfyIiIiIiIsPVHTDC0nHf8f+IEWpwJyIiIiIiw9Mdxh+3bikwEhERERERucOoRdIw0CIiIiIiIvqdJBERERERETcKkkRERERERCwUJImIiIiIiFgoSBIREREREbFQkCQiIiIiImLxf0Xdd/+rTY0NA7LzOcs3sPKZucSPOcuxL6/26rYjfvwyq38IH1Ze7NXtupvFyvzlpIw5y7Hgv2PjynmMO/cRVVf8zN/iafyfDxv465f/HxZP+z+9kte+PKciIiIiIsPBHZ0v4m7CxInM+VESd/6v/+U1/btvv+XY78u4XF/ve0OzlpMWWMm7eb+jtquZGDRqaWiDQHO6lYYLluR7niZveSyjAbhOxbbNvOdMr21oddvStcbeOQvHtq3lGLNYmb+IZz517U9ERERERPzT5SDpvugY7rs/xucyl+vrOw+SAFobb+MAyaW14SJcauAaoZa5s1i5PJrqbWsdgco9T5O3fDlz8rZxzFikrYEaLkIrRPdqjhzBm4iIiIiIdF2Xg6SPy//IgzNnMnbsOK/pbW1X+Lj8jz3K1JzlG0i7x5i6iM0MLMJ55uXlxI01dlbJu5tdNVERP36ZlX89yrWhDmt1oPb9tbz7kSV91nI2Phnefr5PF3lv81rn378jP8+VEvHj2URcOM67zjxEzIxmNKOYPguOfQR8tI1c535qt611BU4iIiIiIjKguhwkffvtt/zH7/6NrCXLvKb/x+/+jW+//bbT7USEBnptYjZn+YYOmuE5AqTor7aR+28XzWVXLm8kd9tHjgDpvmpzvYgfv8zK8ca6s1i5PJRjeUYw4uhLNOejbX0WnEweP8o8vjnLN5DGB9guPMGc0HCgL/tJAVykoXUU0yfhHiiKiIiIiEinuhwkAdRc+DPHjpYxJzHJbf6xo2XUXPiz75WdNTp8vI38f/MMFmYx/Z7rVGzz1k8pgtCxFzlmWefYqYukzR5PBOH89X2jqD3eQf+mWdOIIJyI/A2kmTOv03APriDCUrPTeyLcArs5y5/o7R106Ni2tbB8AxuftNbEiYiIiIhIZ7oVJAEc+30Zk++5l4h7HO3iai9c4Njvyzpf8cLvyM/7HRE/fpm8H+/xEij1kQsfkLut16OgDtU0Xiftr58g9P215H8EEE5oILSe6p/jnbN8A9NPrSV3W7/sTkRERERkyOjR7yT97+I9fGy387Hdzv8u3tOldWsbWhk9PsJj7kecvDCKuJRZ3tagoS2cOT8Od06H88zscK59VUktF2lohYhpzvVmLXfvm3SpgWv3PMFKb5s1zFrOxvwNvpfpgtpPq7nGRU4acdms+cSNtUx3ahYr8zew8eWnifCYt3KWIwja+PLTRNzzNHn5L/PMPdZ1wwkNvE7Dpd45FhERERGR4aTbNUng6J9UWmLrrbwAcGzbNkJfXs7GfKNpmtFc7CLvbf6AlfnL2fjXzqQLH5j9k45t+4Dp+U841mur5N33YeU0Y7nfkf9+KBuf3MDGJ53zPAZ96HUXfkf++47AK83tOPzlGKEuYmwok8F7PlsbqWW8txQREREREemmEfOfevpW1amT/b/nWcvZOO1UvzaBu92Yg1F0OZgL55mXF0GxfidJRERERKSrelST1GP3TGMOH2lQAU/GcOXdru2KIHQsNPRB1kREREREhrqBq0nC9XtI17yOdCfdoXMqIiIiItIzAxokiYiIiIiIDDY9Gt1ORERERERkqFGQJCIiIiIiYqEgSURERERExEJBkoiIiIiIiMWwC5Li83I5XDC7j/cylc2/yGJnciDMTGL/LzJ4Kcy/NWOTM9j/iySeJZCXfpLF/oVT+zarIiIiIiLiZmB/J2nIaqGhDSaY01eprbMkhz3CzuwYAgG4zn8W7uctZ3pl01W3LbW2tvR1ZkVERERExGLY1ST1p8tNrXC5jVa3uVPZnB3OicIiMt4oIqPwIjOyk3jWukhbG+dppdZ9RRERERER6Qe3VU1SVkE+y2KMqVp2JG+lCIAI8opXMDfImdRSwZrMfZQ7J+Pzcnk9abRrQ1WWjSYsYO+GOIxVT+/KI6fQkr5qN/bsaL4qjGfxO/7mtJW3flPk/PsTlr7hSolNns79F07ysrPmKHZaOIGMIm4m/PZT4NMyMj51pFXuLeK3/u5SRERERER6xW0TJGUV5LNsQgVrkl3Bj4MjQHr4863My681l329oIF5OccdAdJD1eZ68Xm5vD7RWHc2BRtC2Z+c5wy2ZlNQuoKsQiP46n1TAkeZTeieXZhFNnYKLyTwZEggoKojEREREZGBdpsESbOJj7nGkbWeARJABBODatnvDJAAiv5Uy7L0UOKJ4PGHRnP6gLf1gOzpPEAED5Tms8yceY36BMDunHxnMQl+1yD5K4iXfpLGjPM2MkpbeXZhQm/vQEREREREuuk2CZL6UJWNeTnH+21351uvEzgzgdDSIpZ+ChBIRCBcPqNaJBERERGRweA2GbjhOOVVo5m7yNvQ3bXUt0SQkRfhnI4gLz2Cls8rKKeWmsvwwKPO9bJXuPdNOttAS0waBdk+dr1qN/bycnav6p0jqTx1kVbqqHD2O2Lmw/xwrGVaREREREQG1Ij5Tz19q+rUyYHOhx88BmdwG7hhNgWlaTxgJLnVDlnSWipYcyCU1x896UrPXsHhJUaARbtBH7o3cEMnZiaxP9n44aQ6Ct8o0wANIiIiIiKDxG0UJImIiIiIiPS926S5nYiIiIiISP9QkCQiIiIiImKhIElERERERMRCQZKIiIiIiIiFgiQRERERERELBUkiIiIiIiIWCpJERKRf2cvLuzS/u8uJyO2tJ88Kz2W68nzp6J8ML3cMdAZERES6IiE+Hnt5OQnx8QOdFRHpY8a93tE97+tZ0Fmg1NF6He1HhpfbNEiaTUHpHOrXbiTfPtB58SWH3eVZ3EczR19NY/XBgc7P0JO62cb6CR+QsLRgoLMiIkDOznIWhZaxLq2OrPIsgo++wpMvlwDuLxmdlRBbX1K6UppsXS91s431iU3siS8izPYaiQ1FPX9WzN/E+6+GURK/mA63NH8T77+aBJZj71057C5/grpB+73i+O4LPvoKT36dhT07RN+BXeG8fpoL4ym627iGfVxv3dy+v9dnn33PdnKcnsGPt0CpK4FTVwpW/A+IdK0PSs5rK5jqHt07/RYkTb7nXm5xq8P02gsX+m7n2Ss4nN7Amsx99Gc5QM5Ox42T0JUvSfODdWg2H2KWG/HlEiCVTbbXSKSMdWllJHm8AOTsLGdRTM8uDq/5qnJ/yXC8hDhz21zGurTVlHiu40gc9A+OQRdwrdqNPTvaOeH5WRoBuMNXhfEsfqffczi4mefPy33g89r0fW7Na97zehcAqi83Q6hruvlr1xkyXlC6UyLsz8uN54tNyddNrLdMN1+u7nQbQ9Kq3djn1/Xj9VpNXTPm9xg0UWd99vfg2eb4bnNOdOX7yCfn92mw9TvXktrde97XcbqleTyDDtbR/KplO811DMkrt5Pj9HbPe87zVePjLdCxzuvJs8alk2t9SHHdm+3fObp/3/r8ru6ug6t58qDz3t2ZQ0E33+v6pU/Sowk/IGvJMrKX/N8d/ns04Qf9kZV+Z31B6FwOu52lKgnx8STEF9Gc+Bq7Vxkbq6Z5QhKpAPOTCGuoptlct5qviCPHuZ04qvmqtw6CHHa/+iDNVc3us1ftZv2ML1gX78jvuhMPsn5njts6J151HsurXzDj1d3ktNu2eJfD7mzY4zy3e6qiWWSe21Q22bLAcp2QbWPT/AHN8KCSutnmeCks9PZq4eva9H1uc3aWs37CB6w72uxlu2JqqKPE+fLQG/x9afG6XHMd1ZRQ19A7efHLwdU8GR/fR7VIt4/mr0vgbB3ul0H3n22pm20sosiZFs8esnh/c6oj0ef3kS857C5/jbCDr+Dttu7+Pe/jOOdv4v3sEI76/H5spu6sI9DvdYPq+uz4OD37AnU2bTCeA8Z1YvzznOeNr/5Ivvoleb/Wh5D5m3i//AnqXi3y8m7Z/fvW93d1z/X0/umXmqTL9fW9sMxsCkrTeMCcvoa5RsIC9m6II8iYbqlw1hpZ14ng9dI4R3qVjXk5xwHIKshnWYy5UU7vyiOn0LJbZ4TbuyX1rlIrwCydYvMT3FdVRIK5nwKKjj7B+tgcmB9GMHWUXA4jaT6QGEZdZR3B8wGiCQuGioMQtwogDiorICbOfa+bbaxPpMs1OkaNWAEvsH6C5RjmR/PVwcXOUrVUkmYEQ7AjUKve/AT3VX3AYud+UhMfJJhgR/56eB7dSgsBqiyJHjVxrs8th93lcVQUwiKj9M4ozXBbJwt7eRbgKlFM3Wwjhy9oTkxylpJ4lHZ0WPtncJaweJae+FTAYsszvKCymkXzw0gFSlZlOWoQjfO4Ko77CCY4MRUO9vBLr4Pz53YOmsvYc+JBFiUGm8eas7OcuMoiyM5qd446PX9uJapeSqi6cQ+WvJzmuC5X7XarSQBI9XVt4vvcFiyNdx7TE/5lxG/upXDWayhnZzlxl8sITnR+Lm6l2e7rWc+t23pVRewhi0UxnveE93265alL163l3AOr03rnJawrfQHcXn7eWWw+T0ucn11vCdtsw+58DlmvTWuJqddrObbC/CzaLdPh8wvaf9bN1OF9Pdc1Yl0nmvXl5Y77wfqZ+twn3fwOLLF89o4SXZfuPtuiyUqEo68an2IOcTEQHOooOEzy8X3k+3MvYHF8AY7vNC+p3b7nfRxnZBjBVR9Yao7KOLHqBcLmAweteQJYbHkn6AmP9w48P2vv7yXGp9h8GTbZyp3p7VuGdO/9wvdxemte15W+Qn1Rk9R+m76u9W6av4n3V8GJhiQSY5o5WvgFM7KTCLZ8Jm41M4DrM0llk+0FOOhcB9rXgHbnnj5oHFsOu1/1SOv2fVvi87t6MOiXmqSaC3/mY3vHnYc+ttupufBnH1twBDvsymNech7zkm2ctibb97Ew2UjLY8flOLKyAY6Tk5zHvF21jsDJWMYZIAEU5bjWm7e2gonpC+idrsCphIU6Skg8528ymsYZJRrOizd6QnC75iAlXzdBqOPBClB9tI6wxBySJtRR9k4dzcFhmK+X71RAbA45sVDxTjV1zSGOh25PrNrNotAyCtqVOEUTFmwcn1ESV8RXOPZpPRajJG5PFQTfneq5hy5J3WxzLy10K93LYferYZTEW0szrKVz0SyaX+dct4ivYp5wfCk6S9XWHW12vDw417e+MAYnJpmlJHuqokk1Si/nb+J9a62EZ+1fL8mJjab5RBklQOrdIc6SelcpzJ6jzQRPiO5sM53txef5C0580FGKFJzEImfJqk/GjLIAACAASURBVHWf92U/Qd2rXs4RPs7fqt3YLaWtCa+WEdzHtWK+rs2+O7e+pLLJ5jp3CfGvcGLGC27n4L5E4xp7haMkkWVeXwUstpSMrjsa4nbe70sMo+TVMppjski9/IrlHux8n32tKyNHeZYId1RS3H8DOUSTOOEDxz4Lq7lv/ibzGV2w1Pk5dVSkHJNFXGW8l3V93X+OYMdaUutWmut8hpkltQ3GNeK8PgqrHS9KxjJLXS8svp+Zfc/vZ9v8MIKNpkxGqXZhmfM70Pf30WBgPU7O1tEcE+c6z6uySAwOJiyyL3NQwuo0yzViLVx0vpfMOPGK2zVkrYkLTswi7KDxnIHEzIFpF9KT54bnPH/3NyCCk5hx+RX2VAWTmO18jjvf91I32xz9PuNdz5qvCq3BaTCJ86HASHf7zuh93b9v+8HZOpot79Bd1W99ko79/giT772H0AkT3eY3XK7n2O+P+F45ezoPtFSwprCjBTxrmaClPgKo7TRf8Xm5vJ402jKnlkhw9V16p+ulOD5LVOYnMSO4mj1p3SzTPLiaisxy4irjKSGHLLfEAoou28jh1zwJbPJY1VrC6x+juYAjiPN6kUVu4v1yxwvc6oOO5V2iXQ/el0vI2ZnlbQtd4Cgd/OpgB23CV8VxH9HcV17OInNmM3Vm6VwzR98x1i2goiqLOH+/lKqKzBKX6svNLJoQDZSAZ4mgc7upd6c60p3zXKVlXWc+EJe6H3XOznJHFXZaAambbd3evsnH+asGcB7n7lebOVpcAInuJavNR39tnoeCymoWxTrPEXR4/lLvDqH56K9dJb0HyzixKsn9ZaEb92DnfF+bvX5ufZmfxIzgYIJfLcduKaH7ynIOXOe2hLqG15hhXl/tS4epcp335qNFFJBEKtWUvFwCO1/ze589vW47c3uPHlXNHiPQOOsqrPLr+dpcRpFxPVuvbV/Pr8g47mu2lNS241nLBM2Xrc+gDnT6zKSP7j+Hbj3bzIKVNArmb+J9a5qP7yPPFgi90zrE8/7z3qei3XEeXE1Boo31xnmvKuNocwi0K1TtL9GEBTufEU7Wmi/A7RlecvQLclY5a8WcyV1/v+ictVmdNcjpaDl/5vs7ut3Acz2zXc/xjgXf7X6/u96TStrX6PfRPd3t+7YvHVzNk2zi/fJycroxkE6/BUnffvstB363j+d+8lO3+Qd+t49vv/22R9vOKkjjAY8mdBn+rJiwgJeS4MjaPMcoeQkL2LshtNPVOuN4WKSyyWZjE/5XPbu9fDs5IvQKSiLjWN9QQQmOZiNu5ocR7Ozw6HpQ9azGBpzNkgj2+ALNwl7+BEdf/TV1zVkkZoc5LnojHzRRcRCqE5tZlJhFWGE8T77jyE9YKDRX9nEb6C42DRrszJozS1V5yddNrE/MItUyKIi3Wshu6eD8pSb2fNODRfXljq/NErL67tz60s1BIFI3v+Bo5mAUZGy2WZrE9s0+pQ919PzqpBQ4Z6d7s8icneX+fwMM0DOzy8+2g9D8ahKL5ruudyKN775qwnx8H0HfvMR7fQH14zjb5yeH3eVhZl7FoaPR7Pxdd6gqOfoFOYlJ7s1nB7B/Wffv237gbLpYEB/frfu/X39M9nJ9PceOlpnTx46W+dVfibMNtARF83gCQAR5xdZaowgmT4CWemetUcICMmK8rR9Ku0qDyFCCaKXG2RIwa5GlX5Nh1W7s5eXdaD5VQl2Dl+rzg2WcaHZvimSucfQLmo0mYADzN5GTiKPUvhekbrZhL/e/KVPJy2luVdOu5mhprD5YQtmJZqiqMEvNcjKTCHZOlxz9gmaqqTBLSbNIDLZMg3lu3/dyLjrIEXUNcF9sjrm+W9+ks3U0x2T591nN30RqjHt+PJs2+uVsXbvPLDWmmRNHPft2lGP3qxOxZa2d5V6/XHmngq+w7MPXPm2b/D+erpw/n5z91So7v25Lvm4iODHLo9mJ9+ukt5ow+rw2/Tq3vqSyyVaOvbwLTZYO1tEcnESO3/eBS/SEYLOZA+SQ5Val1NN9du+6vb104z7pK77uv7N1NAc/6OiP6uwk7ao1cgb5RiA/fxOp7b4D67w3b/Hnnu/l+w+6+2wroKIKV5M153PGMe37+2igdHicbhyfZ/DRoi7ktRvPGZ+qqXN7L7Ge2/ZyMpPAI62r7xfd5W8T2+4OwOBteHHr8t0JvhznpvfuoZxM6wBf8V0v5Ojte7rb961/vJ2/1M02x3N7vqOWaPcqx/3W7vsqMoxg8zuy6/r9d5KO/b6Mr6odjWH9CpAA7Pt4qyyX1zfkMxc4vWsrR9KN5jG15B+o5fCSFRxOckwfKbvGwx7r76/KZ1lpPsvANXBDoY0j6SvM+S1lFZyO6XlNkm8lrE6LZnf5a9jLnU1fjBLdg6t5MnI3dksTmK8K4x01UR1ezCGEPVTXQVrftnEueTmN6J3l5kAHbiWSxrGYtVBemiGcraOZaGd/D/8u4YKlRcSVOwdXaC5jXSGsj8V9n9nl2I1mFm6l5cEkmufW0cnRLT/vFHF0/mtm6Yy3oWDb8fWZ9YT5omMpLcJoIlLA4lfDeN/jWNz36RhZ7L6uNAPycf78EZzouqabj77irKXpxDuLWXe3pdmJt8+lOzwGg1hUXs4iz/vM67Xp+9y6N9lxfjZuJfGO5nAEh1g6YXfG2KflmeDnUKgFxWWkvmoMNtLM0aPV3OdXTVL399lbBkfTum7cJz55NL9y3kt+Ne3y9fwymmc5r8uvCl/h6PwXnAuVsPpgFvZs47Os5ujRZmZ4bLsks9xxH4DrWd3pM7MP9ODZVrD0FcJsHs8Z5zPa5/eRTx6fmfM5Zh20xvc9353jdN/nV2attr+685zxvb127yWetRMxWe7nth9rLrr7w9FdG4ChfZpnE7/uBkqOnyIIbtckrrsKissc94i1e0Of1wh7NOnNLseebdyf3b9vfX5XO+d1fv6c/RFjvST10Ij5Tz19q+rUyd7fsjhH/NLv13TM1Vm074ciHew/vtj7Omrm0RdydpaTerk/PsfbgNn2uv8CjttNd34nybqMoTea1PTnfSLSa3r0nHF894YdHPzvJ9ZnQkc/EAvtnwX+FML4uy1fefKPa+CV3jjf7b5vzQGkhur7TQ/On3NE0e4GkP1ekzTcOJqG6VXJk1E651dtjXSNMaSv+pz0M6OkrX9rZG5HPfkRx17ra6D7RG5LvfCcmZ/EjOBmTgzYQBH+62z47975QdiurdOVbRtDdffez8g4mtdy2TIr0jKC3BDT0/OXendIj/avmqQ+ZTzMvDWHkv41/GqS+pNqkkREBrHOfg9Lbh+ev4umd8z2zHPUs0JLBUkiIiIiIiIW/Tq6nYiIiIiIyGCnIElERERERMRCQZKIiIiIiIiFgiQRERERERELBUkiIiIiIiIWCpJEREREREQshvWPyWYV5LMsxpiqZUfyVoqA+LxcXk9qNafJXsHhJRGc3pVHDis4vCSQI2s3km8HEhawd0MclG1lYX5tr+QrNvkMKWGNVNoe41CjMXc1i5Y8x2TnVI09ij3Vnus4J+q2s7F0U6/kRURERERkuBm2NUnxebksm1DBmuQ85iXnsaYskGXFCzB+R/l0FcRnO/7OetQxbWipamXi3AjHduaGUl91rdfyNSnhD6Rwmhq3uemkPPMc2KPYuCuKjbu2Q8IfSBlvXWe7My2KQzzHyoT0XsuTiIiIiMhwMvSDpOwVHC7NN/8VZAPMJisJjvxqH+XOxcrzj3E6KJrHEyBy4mj400l4dDYwm3hOmsvFRwRC/UnqJ8YRTwSPT2ygvN5zpznsLi/HvjOna3kdv4W/iW7kUOkf3edH/wOxHOL3Rs1R9A+YzHimTk0HVvOjaKj8zKg5Wk10GIyb9ETX9i0iIiIiIsBQD5KyjaZxjtqiecl55BQCCaFMpJUau3XhWupbRjMx0pg+TjnTycqeDn86ztn6a0yMiDCX/bA+lMez45hYX0FRbStBEyPomXRSfphCmz2DSo+USYHj4epFLuGoNcqd/jWHqhsZN3oajA9nLI00NwLjt7Byyd/QZD/ElVF39zA/IiIiIiLD05AOkrIejaClrMjRd6gbivY0kJHeQFFh+7Ty/JNMXBJKudd+SAUsjo8nYWmB3/ualJDL1EsvuvUz8hSbfIbFo/+dje89T7vKq+j95KbdzZ92PcahFr93KyIiIiIiHobnwA32BuqJZnICYAZQEUwMukb92Qgmp1+j/ixg38fCTEeq0VcpcuJo6v9UC9SSk3y8lzK0mh9Fj2ccb5Mb/bY5d3LaGWLrtrOxthGin+PR6hfZaD8AwMTR47ly7RQ0QhsppEw/xO5dz3MJIOhuxl3/upfyJiIiIiIyvAzpmqSiP9USlJRGVruU45RXjWbuotnmnKyCNB6oOtbtWid3Xe2TtIk9u6LMgRc27tpODY1U2qIco9RV/5EaGjl3zhEgMX4Lj4YZ05uoroMrlz5wBEikkzL9Aa5c+qA3DkREREREZNgZ2jVJhVtZE5HL66X5LHPOOr3L0S+pKGcrk4tXcLg0zZHQUsGazONAx32LfPY7mhBKPJgDPPSuTeyxhbMy7Qy5ALgPD15Z+iLBz7xN7hJHLdSV6hd511njJCIiIiIiXTNi/lNP36o6dXKg8yEiIiIiIjIoDOnmdiIiIiIiIl2lIElERERERMRCQZKIiIiIiIiFgiQRERERERELBUkiIiIiIiIWCpJEREREREQsFCSJiIiIiIhYDKsgKasgn715Pn4QVkREREREhr07BjoDt6cI8opXMPFAHjmFA50XgHRSnnmb2FGOqSvVL/Ku/YCZOinhDyyOHu+YuH6I3e89z6UByKWIiIiIyO1gWNUkDVWTEnKZeulFNu6KYqPtEETnkuKMiYjez+JJn7J7VxQbd0Wx+9JMFievHtD8ioiIiIgMZkO+JimrIJ9lMa7plnrX3/F5ubyeNNo5VcuO5K0UASQsYO/PYP/n0SxzpreUbWVhfq37OkvyObwE4BpH1m4k3+7YX3x9BROT4ggCaKlgTeY+yr3mx7JPp9TNNtYnwtFX01h90L9jvGR/jHeNicYPOHc9hZAgoDGdlOkPUHMyw1lzlM60SeNh1A+IBSr927yIiIiIyLAypGuSsgryWYaNecl5zEvOY0eVJTF7Ba9PPGamzdsFywpmu9KD4lhmpK+tgKQ0soDy/I3MS97KkRY4vcu5brIjQDI8kBTNZ2vzHMsRR1a29/ysKQtkWfEC4nvzoMc/wdRRp6muBphGyKhGmloAVrNoyduEnNxODeMJHu97MyIiIiIiw9UQrkmaTXzMNY6sPe41NevRCIiJ4HBpmmtmSwPx4Kz1qWVHjnNdewWftWQxOQGwt9tUOy1lRc6gqZaay/BwhGOwiMkTrnHkV678lB+ppiUplEhzn1DycholXTlMN6tZlJZCmz3KvZYoaAsr02ZyzhbFocbVLEro9g5ERERERIa8IRwkde70rsEy8EJvWM2iJc+BPYo91ca8UzRdf47YhLs5tOsxR+A0PpyxNFLdOHA5FREREREZzIZwc7ta6ltG8/BcRy1OfF6uW9+ks/XXeGDJCrL82VR2GnOp5kOzFslRQzQxoivDiddSc3k0cxe5mvRlLYojqOpkuz5J9nIbm+Z3YdPjt7CyXYAEcIBTlxqh7o9mzVLswymMs0yLiIiIiIi7IVyTVEv+ryrYu2EFh5OAKhtryubwkjO1PH8jOybms6w0n2XOecbgDA4RlrRadiS7Bl8AKNpTQYaxbcvADb4U5WxlcvEKVxO/lgrWZHpvDtgVsQ+nMA4Yl3CGXKMpnTHUt/0xDiWfIXfJc475ddvZWLqpx/sUERERERmqRsx/6ulbVadODnQ+BpeEBezdEMp+j5HnRERERERk6BvCze1ERERERES6TkGSiIiIiIiIxRDuk9QD9n0sTB7oTIiIiIiIyEBQTZKIiIiIiIiFgiQRERERERELBUkiIiIiIiIWCpJEREREREQsFCSJiIiIiIhYKEgSERERERGx0BDgt410Up55m9hRcKX6Rd61H3BLjU0+Q0qYc6JuOxtLN5lpkxL+wOLo8Y6J64fY/d7zXDJTV7NoyXNMBmrsUeyp7uPDEBEREREZ5FSTdFtYzaIlbxNy8kUqr7dPnZTwB1LYzsZdUWzcFcUhnmNlQrojMXo/iyd9ym5n2u5LM1mcvNqRNn4LK5f8DU227dT038GIiIiIiAxqQ74mKasgn2UxzomWCtZk7qOc2RSUTqe+LJC5SaM5vcsGS9J4gFp2JG+lKGEBe38G+z+PZlnSaMeqZVtZmF8LHuu6pwFEkFe8grlBnvs0pLLJ9hqJlLEubTUlfh3FJvbs2gSkkzLdM201P4qGStsmczo6DMZdf4JJwLTpD1BzMsNZc5TOtEnjYdQPiAUqG5/n3V2OdRb5eT5FRERERIa6IV2TFJ+XS0b9VuYl5zEvOY81n0fzUl6EMzWCuROPsabsGg8smUP9WhunCWRygjM5KI5lE4851l1bAUlpZJlbjmDuQ9WsaZfmCJAe/ty1zx2X43i9YHbfHeT4cMbSSHMjrpoh+yGujLqbiUwjZFQjTS3gqo3aTg3jCR7fd1kSEREREbmdDeEgKYLHHxpNUNIKDpfmc7g0n9eTRhM00QiSrnFkz3HHn1XHyLd7rl/Ljhxnur2Cz1osARTXOPIrZ+2QvYF6M7iKYGJQLfvNWiUo+lMtTAgl3pxTwuq0eBL8rkXyU/R+ctPu5k+7HuNQi0dakNGsTn2OREREREQ6M8Sb213jyNqNXgKgPqzZ6W+NF2kjhZTph9i9yzkgQ9DdjLv+NfWcIvj6c8Qm3M2hXY9RCWbNU3XjwGZbRERERGSwGsI1SbXUXB7N3J8tsNTidFN2GnOp5sN2wVb7fda3RJBhadKXlx5By+cVHn2SyrHbNpHa03wBsInqOrhy6QOz31HK9Aec0wc4dakR6v7oCJCA2IdTGGeZFhERERERd0O6JqkoZyuTi1fwemmcOe/0rjxyCv1ZO4JlpfksA6CWHcnWwRc6Ukt+po2C0hUcTnLOqrIxz9L8rntcw38DEP02udFvm0N2V5a+SPAzb5O75G3AfYjwS/bHOJR8htwlzznWdRse3DX8NwAJZ8hNaKTS9hiHVNMkIiIiIsPUiPlPPX2r6tTJgc7H4JKwgL0bQtmfvJWigc6LiIiIiIj0qyHc3E5ERERERKTrFCSJiIiIiIhYDOk+Sd1m38fC5IHOhIiIiIiIDATVJImIiIiIiFgoSBIREREREbFQkDSE7P9FVpfmd3c5EREREZGhTEGSmDLeKFKgJCIiIiLDnn4n6TYRm5zBKzOvUvjGZ0T8JI0fttrJ2HsO6FoNUMYbrl9+6u56hD3CzuwYLpcWsTfEyFcZv/V7ayIiIiIig5dGt7tNVDZddZtubW0x/zYCmP2/yHIPZpw6mm9d15d2wVRdG5et021tnO90KyIiIiIitwc1t7udtLVxnlZqW3tnc/4ESB0vd52Gy+2DNxERERGR292Qr0nKKshnWYxzoqWCNZn7KAfi83J5iWrqk+J4AIBadiRvpcjbesDpXXnkFHqs11LBjs+jWZY0mpayrSzMr/W5T4dUNtleI5Ey1qWtpsTfA/m0jIxPHX9W7i3qlaZt3W5uxzlefsPR1I86V75ERERERIaCIR0kxeflklG/lXk5teb0S3kRZjATlBRH/a485hU6ApuMvAiKnGlFOXlmwETCAvb+bAHxhfuc60Xz2VobbEhj2UQba8rm8PrECKC20332te4HPq71/a1hEhEREREZioZwkBTB4w+NJihoBYeTLLOrHMGM428bOYWOP8/WXyNooistPi+X15NGW1asJRI4C1B1jHw7FHCNI3uOw9w5/u+TElan+V1/1GUdBT4iIiIiIuKfIRwkAVzjyNqN5Nu7uFrCAl5KgiNr8xzrJixg74bQvt2niIiIiIgMCkN44IZaai6PZu7PFhDf1VUjQwmilRpnoJO1KI6gXttnKpts5dhtm0jtar5ERERERKTPDemapKKcrUwuXsHrpXHmPGMABp8KbRxJX8Gy0nyWAS1lFZyO8a8mqdv77CVqWiciIiIi0jP6MdkhpDu/k2RdxqCBG0RERERkOFOQJCIiIiIiYjGE+ySJiIiIiIh0nYIkERERERERCwVJIiIiIiIiFgqSRERERERELBQkiYiIiIiIWChIEhERERERsVCQJCIiIiIiYjGkg6Ssgnz25kV0uszh0hVk+Vyqb/MwkJ5dmMX+nzxCLFPZ/IssdiYHDnSWbiOWczYzif2/yOClsIHOk4iIiIj01B0DnQGxmk1B6Rzq124k394/ezzfeh0scdHlplbXRNgj7MyOcSZf5z8L9/NWnSv52YVZZN/jnLhgJ2PvOTMtNjmDV2aOcky0VfHabz6h0s/t+mJu13Ob4AhUksOAOgrfKOO3/m2yk/xMZfMvErjfOdX6qY2lpcY5aqGhDSaYG7pKrZ/HISIiIiKD15CuSfJHUU4e85K3UjTQGRlIrW1UOl/4XQJ5KT2cE4VFZLxRxGufwg/THyHWmRqbnEE2djLecKQXkuCqhZqZxCtTLvKaM+218+G8snCqc82pbM52bTej8CIzspN41o9sPrswi1cCT/Lap9fbpcUmZ7D/0TZeK+1qlOLrOAN56ScJTPjU5jxOGyempLF5pvsWLje1wuU2Wr1sXURERERuP8OgJimOgtIVPADQUsGazH2UAyQsYO+GOII85wMQQV5xFhyo5uEl3paZTUFpmmObQEvZVhbm15prZxXksyzGlYOWeuMv9/Wglh3OAM26zgMb8pnrkd7ZPiGH3eVZ3FdVRMLSAr/PTmXpfjKcf7/1G2uo2Mpbv9nvWu7URVpnjmUKUMlUFs6E/yw0ao6mEncPBAbeSyyQ+GgYX/6pzFnLE0jilFEwNoJnOcf55Oncf+EkLztjmdhp4QQyiriZ8NtPfef1t3uL+C0Qmzy94+OYmeT3sXd+nEGEjq3jfbPmqJWj56+zKiQQaHWua5yzT1j6Rhd3LSIiIiKD0pCvSQpKiqZ+raO26AhxZGU7E+z7WJicx7xdtR2sOZq56fBWsue6EeQVz3Fu05H22UNZ5CU41soqyGcZNmdaHjuqrNs8Tk5ynpm2piyQDGd/JUeNlo3TXOOIZduOV3Df++wPsdPCCbxQ62jCFjaWCUbTsrBH2PmL6TSUVtE6dixTCCJ07HUaLoOjqVoaoX+y8yVjiAiDKYGjaG1tAVw1Q4UXYELI4OgL5XactNDQFkacWXM0lYUzRxEYGDRg+RMRERGRvjfka5Jayoqc/XtqqbkMD0dEAB0FRu5OHzBqjmrJz8xzzEyI4+Gg0QSZtT3OZSMB+2ziY65xZO3xDrYYQV7xCuZa37Gr/MiPz30aUwUsjve/BqlLZibxysyrFL5xrt38/clQ+MZ+fhv2CDutaRMeYaezWd1bdVPZnGxNDOKln6Qx47yNjNJWnl2Y4LFN1+gH7n2Aus+tjxTwZWkRL3vWXLU7zlbeOlDFzuws9icD1PGfn15nAi09zo+IiIiIDF5DPkjqE+2a5/knPi+LuVSwJtmxbnxeLq9P7Nt99pgZCFkGQqhr4zIxZD9axWtvOAdPmDCWwLY2ztNCRNsofpg81hE8gVnzVFHnGCgicGYCoaVFLP0UIJCIQLh8xhkIfVpGRifN7rqjsnQ/GaVdPE6Auk9Y+sYn5uSzC7MIPaPeRyIiIiJD2ZBvbtfr7A3UB8XxktdhvWupbxnNw3MdafF5uW59kyInjobLDWa/pqyk0V7XnxjZlX0acthdXo59Z05Xj6hDsckZ3gMHzlFxAVrP/9nsd/TSo2HOaUe/Hcwma/Ds7BizCVvlqYu0UkeFEQjNfJgfjrVMD4COj7P9ctmBVewdwLyKiIiISN8bMf+pp29VnTo50PnoE1kF+WTUuwY4cJvOXsHhJR5Bh1lb42gWN/FAHjmFXjZsHfQBcBtgwZpWZWNN/RxeosixT7f1rnGkrJW5E08yL8fSPM8tXx1s1zMN6O7ADR1zH/ra4Gr+FshLP0njh2M95zv4Gh7cvUmd/8N1ezaZc9u2RzM9wPsw4V08Trd9eh6HiIiIiAxJQzpIEhERERER6So1txMREREREbFQkCQiIiIiImKhIElERERERMRCQZKIiIiIiIiFgiQRERERERELBUkiIiIiIiIWdwx0BsTd/l9kkfFGkd/zfS3jzzrGch3xZ30RERERkaFEQdIgZAQ33QmYPAMez+mO1utoPyIiIiIiw80wCZIiyCtewVwqWJO5j/LOFk9YwN4NoexP3krv1qNMZfMvEpjwqY2lTQ+zP3kM/1m4n7fqHKmewY+3QKkrgZO/NUnGsv56dmEW2YFVvPabNhYax1Pa6vf6IiIiIiKD2TAJkgaLFhraYII5fZXaOleqt4DGc56vGh9vgY51XldqkXw533odAl3Tl5sUIImIiIjI0DFMgqRa8jPzyB/obDhdbmqFy220MtZtvmdA46vpXGc1Tsby/vRj6ozXbbS2UUkLiW0Q2ukWRERERERuH0M6SIrPy+X1pNGuGVU25uUcNyezCvJZFmNM1bLD2ryupQHycjnsXL+lbCsL82td21q1G3t2NF8VxrP4HX9z1MpbvzH28AlL33BP9RbsdKWvUF/UJHnbZmXpfjKcf7uOR0RERERkaBjSQVJ5/kbmGdVH2Ss4/KgrLasgn2XYmJfsCJri83J5vXgBZ40+S0FxLJvoTE9YwN4NaWTl93Yfpc51pa9QT/ok9WQdEREREZGhZEgHSR2LYPKEaxz5latWqfxINS1JoUSCc2CHWnYYtU72Cj5ryWJyAmB3rvDOYhL8rkHyj7VvkRGo9GZNUkfbExERERERl2EaJA1OHY1m5++6IiIiIiLSc8M0SKql5vJoli2aTb7dUVuUtSiOoCqb9+Z02WnMpZo1jD1ClQAAC4ZJREFUdsu8bvVJ6jp/a5K6OwCDt+HFjW1lvFGk4EtEREREhp1hGiRBUc5WJhev4HBpmmNGSwVrMo9blohgWWk+ywDHoA5+/L5SL+luv6CuDsDgmebZxM9zvoiIiIjIcDBsgqT4iECPOT6GBbfvY2HyPt8b7IM+SYaeBjv+6iwIsgZLCpREREREZLgYMf+pp29VnTo50PnoYxHkFa/g4c89hvEWERERERHxMIRrkhyB0dwg52SVjXkKkEREREREpBPDpCZJRERERETEP98b6AyIiIiIiIgMJgqSRERERERELBQkiYiIiIiIWChIEhERERERsVCQJCIiIiIiYjGEhwAfpKL3k5vwAHCaQ7syqLSmjd/CyrQUxgHQSKXtMQ41GomrWbTkOSY7p2rsUeypdq06KeEPLI4eD9cPsfu957nU5wciIiIiIjI0qSapH01K+AO5079mt/20l9TVLEqbyTlbFBt3RbHR9ilT0/YTC0A6Kc88B3Zn2q7tkPAHUsY71oxNPsPi0f/O7upGL9sVEREREZGuGLo1SQkL2Psz+OxyHHNjrnFkVzUPL4kjqKWCNZn7KAeyCvJZFmNd6RpH1m4k3x5BXnEWHHCuA2BZD4BVu7FnR/NVYTyL3/EvS5fsj7ERIHp/u7RJCX/D5Lp/Z48zzpk0dSbjGE90NFTyD8RyiN1GzVH0D5jMeMZOTYfGA1SWRlHp3IaIiIiIiPTM0K5JCorj4fqt7KgazdwloexfW0FLUCiRQHxeLssmVLAmOY95yVs50gKnd20k326sPJq56fCWkU4cWdl9l9WJo8dz5dopwFUzdKgOxgamMylwPFy9yCVctVGHqhsZN3pa32VIRERERGSYGtpBErXsz68FoKXMRlEnS0+MiHCbPn3AqDmqJT8zj5xCS+I7i0mI978WyT/TSHnmDI9ee5GNpZvapRrB08b3nqe+N3crIiIiIiKmodvcrhPlR6ppSYrj9dI4x4wqG/OcAdVAqL/WyLjo5wixR/FuNUA6wWOgrfYAl/gHiH6OR6tfZKP9AOBe8yQiIiIiIr1n2AZJWYviqN+Vx8LCzpf1qht9kny5dO5TrkTfTbXZ7+gfiB11mkPVAH+kJmE8TeccARLjt/BoWCPnbAd6vmMREREREXEzbIOkoj0VZGzI5/ASy8wqG/NyjvfdTs3hvx1SlpwhxRiyu/F53rXvJ3fJGVIA9yHCN7HHFs7KtDPkAp7Dg5vDfzu2yuIlZ6Buu9cmeyIiIiIi4tuI+U89favq1MmBzke/yyrIJ6N+KwuNJnYJC9i7IZrP1loHbxARERERkeFmiA/c0JEIJk/wmBUZShCt1ChAEhEREREZ1oZpc7ta8n9Vwd4NKzicZMxz/EZSZyPgiYiIiIjI0DZsm9uJiIiIiIh4M0yb24mIiIiIiHinIElERERERMRCQZKIiIiIiIiFgiQRERERERELBUkiIiIiIiIWw3QI8M5EkFe8grlBYAwNrh+YFREREREZHhQkeVVLfmYe+cymoHROL243nZRn3iZ2lDHdSKXtMQ41OifHb2FlWgrjvKWxmkVLnmOyc6rGHsWeateWY5PPkBLmnKjbzsbSTb2YbxERERGR4UPN7frRpIRcpl56kY27ohz/7I3EPrzambqaRWkzOWdzptk+ZWrafmIBR3D1HNidabu2Q8IfSBlvbPcPpLDd3O4hnmNlQvrAHKSIiIiIyG1uiNckWZvNAdSyI3krRQDMpqA0jQfwluaHVbuxZ0fzVWE8i9/xb5VLrY2MS8gl5dwBDjWmkzL9Aa5c+n8BmJTwN0yu+3f2OGuOJk2dyTjGEx0NlfwDsRxit1FzFP0DJjOesVPToXEaP4qGSptRc7Sa6DAYd/0J4IC/RyMiIiIiIk5DO0jKTmPuZRvzMo97STxOTrJrfnxeLi/lRVCUX9t3+anOYGPLFlamnSEXR5O5d52Bz8TR47ly7RTgbDrHdg7VPcejgelMYjxc/SOXcNQaLZ70KYeqx5MyehqMD2csjVQ34myuN5Nz9kOMTbi7745DRERERGQIG9rN7c420BKTxuHSFWS1S4wgrzifw6WOf68njSZoYoT/235nMQnx/tciARC9n1yjSZ3tEGMTzng0i5tGyjNnePTai177FMUmn2Hx6H9n43vPU+9123fzp12PcailC3kSERERERE3QztI+v/bu6PQuq86DuDfgY9m1LrZ0Ep8sFJafVAXTB4mmJKoC5OMPVQwAxfmQ0HWB4XO3FJRQu9cYAgF2XyqK83ACoVSiNOURrRgApndIGsIWGFxLUlTkqbZ+3xIbvpPehOTtndZss8HQu7//z/n3HMfv5xzfv+hcznUVkpr22iaBsq5ONCdUvPCo6ZSZw5mJMfaSmltK+XY4HzNp/NEw4HcHn95oRjD9E/z2tDV7Njz/exJMjk/nR37Xshjo1/Ja0MXkvwgn380mZu9kOuz08nuF5aFp6WVp+n/Zi4H8t2vfZDTb3Tk7STZ+cXs+PCDmv8eAADYjrZ3SFpyOUfaSjk1Vpf6vQt39tbXJVM3M5wkeTKdLXUbG/LF0xkaHs7pFzfWbUfdV5c+7/nc40ufr1+7ktu5mvGlc0c/yROfXbwe/2fez3SuXVs8Y/T47/Kt3ZXr32T8RnL7+lu5niSpnHV6a2MTAwAAkiSPPPX0Mx+NvTe62fOoiaZSd04Uw89Yf1qPLJ5Dan42Z3sas1DTYT6XBmdzsH508fnKog6LbYrvS7qPwg33lgC/mr9WVn+ShS1zzQeqP1uzPPjycW+P/2xxNQoAANiobR2SAAAANupTst0OAABgfYQkAACAAiEJAACgQEgCAAAoEJIAAAAKhKSP2fmjncv+b7QfAABQW0LSJuno7RN8AADgE+gzmz2BLWv3N/OH5/ZnaqAvZx/ryC+/cSdnegfzp0KT1UJQ8f75o53p6O1bs0/xeXVfzitHm7PrSn+ev/X1nG97NH8/cz6v3tjIDwIAABIh6f7dmMtU8XpuLv+p0mxlwFkZilZrX2y32ha9u+PM5OZcsmvpyZ1MCEgAAHBfbLd7IB/m5lTy9q07Nf2WShjq6O1b+qtm6tZsMjWX2ZrOBgAAtrctsZLUVOrOzzOeyZbGHJgZyal396WrpS4zg6/nUHkiSUNKfzycgzsrPSZyqu31VKJE58lyuvYXR5zPpeMvpzy0cPW9V/rz6+8kf/tVe37x5/XO6lpe6r228PHGYDquVG9VXP3Z6KrS+s3m1d9XxvlXnu99CEMCAMCn1JYISUmys2Vf3jnen/S0p6u+P8cGv50T9Q1JJpLn2nNwqj+tP7x8T7+mUne6do3kWNu5DC+GqfoLdwNSra3cMgcAAHyybZ3tdmP/WAw287n05oow9O+bmdnfnosDh7OeKFLf0LDs+i8vtae5aSOrSA/u4a0iAQAAD9OWWUla09C5HGo7l+TJnBwop6uwnW740nhmWhpzYqBxoe1Yf1rLE5s21Urp72oFGlZaa6seAABQG9sjJC25nCNtl9N5spymvUmGks4fNWbyjVIOnVm91/2dSVq/aiW/VwtHlbb/ryw4AABQG9siJDWVunOipe7ujbH+tC6Gor43R9LRU87FH2f58yP3nl+qlWqrRqu9TLZ2xR0AAID1eOSpp5/5aOy90c2eR810niynY7JSBS9J87M527Mv7xyvbfGGai+JXW3laK3tdtVCU2L7HQAA1Mq2WElaXUO+tCvJZOHW3i9kZ2bzfo2r260MMauFmvW8WHa97QEAgAe3zUPSRMq/HcnZnsO52FK5t1DUQdQAAACq2fbb7QAAADZi67wnCQAA4GMgJAEAABQISQAAAAVCEgAAQIGQBAAAUCAkAQAAFAhJAAAABUISAABAgZAEAABQICQBAAAUCEkAAAAFQhIAAECBkAQAAFAgJAEAABQISQAAAAVCEgAAQIGQBAAAUPA/iUUtdbXtqnMAAAAASUVORK5CYII=;" vertex="1" parent="1">
                    <mxGeometry x="294" y="240.00000000000003" width="591" height="188.33" as="geometry"/>
                </mxCell>
            </root>
        </mxGraphModel>
    </diagram>
</mxfile>